<svg width="396" height="230" fill="none" xmlns="http://www.w3.org/2000/svg"><path d="M317.203 123.051a111.998 111.998 0 0028.461-6.995c.437-.184.708 2.798.708 2.798s2.038-3.978 2.746-4.319c7.493-3.498 14.366-8.456 18.047-15.276 0 0 1.819 41.813-51.929 51.099l1.967-27.307zm17.873 47.697s17.741 9.409 52.462 11.044c0 0-23.608 21.536-77.6 14.121l1.748-24.526 23.39-.639z" fill="#5E8845"/><path d="M310.261 146.895a105.879 105.879 0 0120.985-9.53c.516-.175 1.609 2.885 1.609 2.885s1.748-3.987 2.719-4.267c15.52-4.652 36.776-7.686 59.659-1.233 0 0-6.934 9.662-21.125 20.233-.604.455-4.617.096-4.617.096s1.688 2.029 1.137 2.414a135.928 135.928 0 01-57.578 22.734l-2.789-33.332z" fill="#92A44B"/><path d="M395.259 134.733a199.136 199.136 0 01-20.915 11.576c-7.161 3.498-14.523 6.576-21.982 9.391-3.725 1.425-7.528 2.623-11.297 3.9l-5.727 1.749c-.962.28-1.906.586-2.868.874l-2.903.726a192.677 192.677 0 01-23.433 4.608l5.849-1.207 2.921-.586c.97-.218 1.932-.472 2.894-.699l5.797-1.382 5.745-1.591c3.83-1.023 7.598-2.282 11.367-3.428 3.742-1.311 7.519-2.535 11.218-3.987 7.458-2.719 14.786-5.797 22.008-9.111a278.315 278.315 0 0021.326-10.833z" fill="#C0D254"/><path d="M346.731 157.152c1.478-1.382 2.92-2.79 4.372-4.189a92.684 92.684 0 004.171-4.319 107.936 107.936 0 003.891-4.547c1.267-1.556 2.387-3.2 3.497-4.905a26.715 26.715 0 01-2.763 5.43 41.046 41.046 0 01-3.777 4.809 42.735 42.735 0 01-9.391 7.721zm-21.483 6.453a39.884 39.884 0 004.476-3.498 35.36 35.36 0 003.883-4.057 33.444 33.444 0 003.217-4.582 49.01 49.01 0 002.571-5.071 21.11 21.11 0 01-1.749 5.491 22.749 22.749 0 01-3.121 4.896 24.042 24.042 0 01-4.206 4.014 19.163 19.163 0 01-5.071 2.807z" fill="#C0D254"/><path d="M346.731 157.152c2.738.153 5.482.153 8.219 0 1.355-.07 2.711-.236 4.057-.429 1.347-.192 2.685-.489 4.066-.734a15.435 15.435 0 01-3.882 1.617 20.243 20.243 0 01-4.162.7c-1.406.091-2.817.05-4.215-.122a16.45 16.45 0 01-4.083-1.032zm-21.046 6.479c1.67.201 3.322.358 4.966.533 1.644.175 3.296.289 4.94.359 1.644.07 3.288.07 4.932 0a45.695 45.695 0 004.949-.49 17.91 17.91 0 01-4.862 1.39c-1.68.225-3.377.301-5.071.228a31.135 31.135 0 01-9.854-2.02z" fill="#C0D254"/><path d="M361.648 110.11a31.044 31.044 0 01-6.82 10.423 45.038 45.038 0 01-9.881 7.729l-2.772 1.478c-.926.507-1.906.874-2.859 1.294a52.097 52.097 0 01-5.902 2.142c-.979.35-2.011.542-3.025.796l-3.043.726c-2.055.323-4.118.621-6.173.874 2.02-.525 4.048-.927 6.051-1.443l2.972-.874a28.65 28.65 0 002.947-.936c1.915-.76 3.891-1.364 5.727-2.29.927-.446 1.898-.805 2.79-1.303l2.71-1.478a52.635 52.635 0 009.828-7.345c.754-.7 1.472-1.438 2.151-2.212.332-.385.691-.761 1.014-1.154l.953-1.215a30.036 30.036 0 003.332-5.212z" fill="#605ACA" opacity=".5"/><path d="M376.18 184.738c-2.431.472-4.896.761-7.353 1.05-2.457.288-4.932.419-7.406.542-4.955.222-9.918.152-14.865-.21a109.91 109.91 0 01-7.388-.875 67.083 67.083 0 01-7.31-1.46 50.74 50.74 0 01-13.754-5.57 53.139 53.139 0 006.855 2.755 66.952 66.952 0 007.109 1.95 103.749 103.749 0 0014.584 2.063c4.897.437 9.82.525 14.751.481 4.932-.044 9.846-.297 14.777-.726z" fill="#4C6E37"/><path d="M352.922 193.412a18.633 18.633 0 01-9.496-1.88 14.664 14.664 0 01-3.961-2.938 11.012 11.012 0 01-2.448-4.223 18.147 18.147 0 003.077 3.576 19.9 19.9 0 003.856 2.553 30.876 30.876 0 004.372 1.749c1.513.466 3.048.854 4.6 1.163zm-12.932.77a18.662 18.662 0 01-8.858-3.891 14.595 14.595 0 01-3.244-3.734 11.127 11.127 0 01-1.469-4.652 18.25 18.25 0 002.23 4.162 19.562 19.562 0 003.209 3.323 30.142 30.142 0 003.874 2.623c1.372.778 2.763 1.522 4.258 2.169z" fill="#4C6E37"/><path d="M198.227 229.524a28.857 28.857 0 00-21.86-9.793c-6.12.079-12.057 2.098-18.125 1.749a23.178 23.178 0 01-21.51-26.494c.699-4.809 3.218-9.618 7.572-11.787a14.6 14.6 0 017.747-1.224c2.419.229 4.783.859 6.995 1.863 5.028 2.238 9.408 6.173 12.915 10.492 3.174 3.961 10.431 9.776 15.336 13.527a231.197 231.197 0 004.949 3.681c3.436 3.235 3.611 13.911 5.981 17.986z" fill="#4B5923"/><path d="M144.942 196.735c15.284 4.372 32.16 10.492 44.095 20.985z" fill="#3C481A"/><path d="M243.441 194.566c-.17 2.58-.851 5.1-2.002 7.415a16.885 16.885 0 01-3.314 4.215 25.754 25.754 0 01-2.116 1.801 30.84 30.84 0 01-9.277 4.861c-4.783 1.522-9.898 1.81-14.296 4.503a17.39 17.39 0 00-7.162 8.971v-4.284c.473-4.739.945-9.566 2.711-14.095a40.242 40.242 0 014.59-8.263 56.888 56.888 0 0110.003-11.244c3.087-2.623 6.619-4.818 10.388-5.378 3.768-.559 7.782.875 9.504 4.145 1.12 2.16 1.198 4.809.971 7.353z" fill="#4B5923"/><path d="M207.933 218.078a35.607 35.607 0 0112.993-15.686c3.497-2.317 7.397-3.9 11-6.068 3.602-2.169 7.073-5.124 8.743-9.085" fill="#3C481A"/><path d="M202.092 221.969c6.724-6.662 16.254-9.723 25.636-11.069 7.817-1.12 16.028-1.163 23.346 1.827 2.291.936 4.547 2.23 5.902 4.302 1.356 2.072 1.548 5.063-.105 6.899-1.399 1.556-3.663 1.932-5.753 2.002-6.864.254-13.588-1.749-20.312-3.156-11.559-2.422-24.15-3.008-34.66 2.387" fill="#5E8845"/><path d="M210.433 218.463c13.92-5.867 34.022-3.978 42.783 2.09" stroke="#4C6E37" stroke-linecap="round" stroke-linejoin="round"/><path d="M68.4 141.291a13.83 13.83 0 016.994 1.652c.219-3.497 1.39-4.197 2.169-5.465-5.797-5.482-14.349-5.919-14.864-17.234-.114-2.43.402-4.144 0-5.876-1.75 3.629-4.836 4.372-4.591 8.08.245 3.707 5.106 7.362 5.98 12.189.726 3.978 2.23 4.992 4.311 6.654z" fill="#5A4FD1" opacity=".37"/><path d="M124.464 198.335c-3.908-1.548-9.128-2.177-11.629 1.189-2.098 2.824-1.014 6.829.437 10.038 1.216 2.702 2.772 5.456 5.352 6.925 1.824.9 3.81 1.427 5.84 1.548 5.624.667 11.283.994 16.946.979a35.483 35.483 0 0119.927 6.75c-6.969-12.941-23.722-22.235-36.873-27.429z" fill="#5E8845"/><path d="M117.609 206.746c4.976.21 9.995.56 14.769 1.976 4.774 1.417 23.66 10.056 26.598 13.728" stroke="#4C6E37" stroke-linecap="round" stroke-linejoin="round"/><path d="M80.081 193.701s-25.96-5.684-45.93-3.498c-.63.061.139-3.873.139-3.873s-4.118 4.372-5.159 4.538c-10.982 1.748-21.676 5.535-28.977 12.94 0 0 13.282-54.569 86.039-46.455l-6.112 36.348z" fill="#5E8845"/><path d="M95.173 196.621s-11.63-5.246-26.153-16.561c-.577-.446 2.055-3.934 2.055-3.934s-5.788.944-6.794.096c-16.613-13.99-35.683-35.613-45.275-66.051 0 0 15.94.674 38.254 8.823.944.35 3.497 5.106 3.497 5.106s1.04-3.384 1.872-3.043a182.303 182.303 0 0167.851 47.899l-35.307 27.665z" fill="#92A44B"/><path clip-rule="evenodd" d="M21 77a2 2 0 11-4 0 2 2 0 014 0z" stroke="#92A44B" stroke-width="1.03"/><path d="M19.006 110.915a265.551 265.551 0 0128.321 14.925c9.199 5.465 18.065 11.463 26.712 17.759 4.372 3.121 8.482 6.514 12.696 9.81l6.121 5.168c1.023.874 2.055 1.749 3.06 2.623l2.947 2.719a262.766 262.766 0 0122.419 22.9l-5.657-5.666-2.72-2.876c-.961-.927-1.949-1.819-2.92-2.728l-5.823-5.491-6.007-5.247c-3.97-3.558-8.158-6.855-12.242-10.274-4.232-3.244-8.376-6.584-12.73-9.618-8.534-6.374-17.383-12.329-26.415-17.994a380.287 380.287 0 00-13.702-8.246 496.312 496.312 0 00-14.06-7.764z" fill="#C0D254"/><path d="M79.871 148.88c-2.623-.647-5.246-1.224-7.87-1.801a139.953 139.953 0 00-7.912-1.504 130.604 130.604 0 00-7.966-1.023c-2.667-.262-5.386-.28-8.114-.28a35.701 35.701 0 018.132-.874c2.736.03 5.466.267 8.166.708a57.279 57.279 0 0115.564 4.774z" fill="#5084DA"/><path d="M54.322 131.384c-1.889-.114-3.75-.175-5.622-.254a91.937 91.937 0 00-5.579-.043 91.592 91.592 0 00-5.56.279c-1.854.149-3.69.446-5.553.787a24.342 24.342 0 015.439-1.617c1.87-.32 3.76-.495 5.657-.525a39.445 39.445 0 0111.218 1.373z" fill="#C0D254"/><path d="M102.92 168.248a51.115 51.115 0 00-7.213-2.457 46.566 46.566 0 00-7.406-1.373 43.938 43.938 0 00-7.511-.245 66.548 66.548 0 00-7.581.874 28.891 28.891 0 017.467-2.046 31.083 31.083 0 017.8-.096c2.591.27 5.14.857 7.589 1.749a25.712 25.712 0 016.855 3.594zM79.871 148.88a99.645 99.645 0 00-6.12-9.198 49.868 49.868 0 00-3.498-4.232c-1.25-1.364-2.518-2.623-3.82-4.031a20.869 20.869 0 014.677 3.165 27.095 27.095 0 013.847 4.162 30.322 30.322 0 012.964 4.818 21.784 21.784 0 011.95 5.316zm22.761 18.852c-1.006-2.02-2.046-3.996-3.06-5.972a101.32 101.32 0 00-3.236-5.806 96.858 96.858 0 00-3.594-5.552 64.328 64.328 0 00-4.197-5.194 24.332 24.332 0 015.142 4.433 39.236 39.236 0 013.987 5.526 41.692 41.692 0 014.958 12.565z" fill="#5084DA"/><path d="M11.33 191.83c3.313-4.521 7.868-8.036 12.686-10.886a60.508 60.508 0 0115.625-6.261l4.128-.874c1.372-.306 2.78-.403 4.17-.604a69.492 69.492 0 018.394-.551c1.4-.087 2.798.053 4.197.105l4.189.201c2.78.35 5.543.735 8.297 1.172-2.798-.087-5.56-.315-8.332-.411h-4.162a38.894 38.894 0 00-4.154.114c-2.754.253-5.517.297-8.236.813-1.364.227-2.746.315-4.084.63l-4.04.874a70.523 70.523 0 00-15.415 5.832A38.421 38.421 0 0021 184.03c-.577.367-1.18.717-1.749 1.111l-1.653 1.206a40.384 40.384 0 00-6.269 5.483z" fill="#4C6E37"/><path d="M56.237 173.354c-1.513 2.404-2.982 4.687-4.215 7.1a33.935 33.935 0 00-1.635 3.698 35.395 35.395 0 00-1.11 3.988 12.52 12.52 0 011.364-8.394 19.221 19.221 0 012.404-3.559 14.49 14.49 0 013.192-2.833z" fill="#4C6E37"/><path fill="#263238" d="M170.894 190.876h43.002v29.571h-43.002z"/><path fill="#605ACA" d="M170.894 190.876h43.002v10.72h-43.002z" opacity=".5"/><path d="M236.035 219.984h-87.28a4.995 4.995 0 00-4.498 7.545 4.993 4.993 0 004.498 2.432h87.28a4.983 4.983 0 004.984-4.984 4.987 4.987 0 00-4.984-4.993z" fill="#263238"/><path d="M241.028 224.977a4.993 4.993 0 01-5.002 4.984h-87.271a4.987 4.987 0 01-4.993-4.984c-.006-.41.047-.82.158-1.215a4.966 4.966 0 004.835 3.786h87.271a4.968 4.968 0 004.836-3.786c.113.395.169.804.166 1.215z" fill="#605ACA" opacity=".5"/><rect x="54.785" y="11.183" width="275.201" height="183.82" rx="3.5" fill="#fff"/><path fill-rule="evenodd" clip-rule="evenodd" d="M57.82 8.997h269.115a5.246 5.246 0 015.246 5.247v177.69a5.246 5.246 0 01-5.246 5.247H57.82a5.247 5.247 0 01-5.247-5.247V14.244a5.246 5.246 0 015.246-5.247zm269.99 5.247a.875.875 0 00-.875-.875H57.82a.874.874 0 00-.875.875v177.69c0 .483.392.875.874.875h269.116a.875.875 0 00.875-.875V14.244z" fill="#263238"/><path d="M332.181 191.576v-17.374H52.573v17.374a5.92 5.92 0 005.92 5.919h267.76a5.918 5.918 0 005.928-5.919z" fill="#263238"/><circle cx="192.395" cy="49.105" r="21.553" fill="#C3CED9"/><path fill-rule="evenodd" clip-rule="evenodd" d="M195.573 51.89a8.332 8.332 0 005.146-7.699 8.327 8.327 0 00-8.324-8.333 8.334 8.334 0 103.178 16.032zm9.387 12.613V79.06a2.775 2.775 0 01-2.781 2.772h-19.56a2.77 2.77 0 01-2.78-2.772V64.503c0-5.53 4.482-10.012 10.011-10.012h5.098c5.529 0 10.012 4.483 10.012 10.012z" fill="#fff"/><path d="M243.948 95.167H140.833a8.525 8.525 0 01-8.534-8.525 8.524 8.524 0 018.534-8.525h103.115a8.525 8.525 0 018.534 8.525 8.524 8.524 0 01-8.534 8.525z" fill="#C3CED9"/><path d="M240.372 88.872h-95.989a2.233 2.233 0 01-2.23-2.23 2.23 2.23 0 012.23-2.23h95.989a2.23 2.23 0 010 4.46z" fill="#6A6A6A"/><path d="M244.062 125.84H140.886a8.534 8.534 0 01-8.526-8.525 8.526 8.526 0 018.526-8.525h103.176a8.524 8.524 0 018.525 8.525 8.534 8.534 0 01-8.525 8.525z" fill="#C3CED9"/><path fill-rule="evenodd" clip-rule="evenodd" d="M143.552 119.693a2.23 2.23 0 110-4.46 2.23 2.23 0 010 4.46zm8.849-2.229a2.23 2.23 0 00-2.23-2.23 2.23 2.23 0 000 4.459 2.23 2.23 0 002.23-2.229zm4.389-2.23a2.23 2.23 0 010 4.459 2.229 2.229 0 010-4.459zm8.849 2.23a2.23 2.23 0 00-2.221-2.23 2.23 2.23 0 100 4.459 2.229 2.229 0 002.221-2.229zm5.974-1.577a2.23 2.23 0 11-3.152 3.154 2.23 2.23 0 013.152-3.154zm7.272 1.577a2.226 2.226 0 10-4.45 0c0 1.228.993 2.225 2.221 2.229a2.23 2.23 0 002.229-2.229zm4.399-2.23a2.23 2.23 0 012.221 2.23h-.027c0 1.218-.977 2.21-2.194 2.229a2.226 2.226 0 01-2.23-2.229 2.23 2.23 0 012.23-2.23z" fill="#6A6A6A"/><path d="M207.032 157.974h-29.283a8.534 8.534 0 01-8.534-8.534 8.534 8.534 0 018.534-8.525h29.283a8.534 8.534 0 018.534 8.525 8.534 8.534 0 01-8.534 8.534z" fill="url(#paint0_linear)"/><path fill-rule="evenodd" clip-rule="evenodd" d="M300.503 187.274v9.749h-60.787v-9.749c0-3.206 2.6-5.806 5.806-5.806h.507v-9.032c0-13.299 10.781-24.081 24.081-24.081 13.299 0 24.08 10.782 24.08 24.081v9.032h.507c3.207 0 5.806 2.6 5.806 5.806zm-30.393-30.962c-8.905 0-16.124 7.219-16.124 16.124v9.032h32.247v-9.032c0-8.905-7.219-16.124-16.123-16.124z" fill="#000" opacity=".09"/><path d="M311.887 105.677a15.385 15.385 0 00-8.744-3.497 10.63 10.63 0 010-1.041c1.749-.288 3.305-1.845 4.197-3.952 2.405-2.317 4.031-5.176 3.244-8.796a.696.696 0 01.088-.525c-1.032-1.854-2.938-2.745-5.054-4.66-7.109-6.436-15.556 2.51-12.364 6.199.404.622.7 1.308.874 2.029a.127.127 0 000 .06 3.049 3.049 0 00.516 2.432c.046.362.069.727.07 1.093v.096a4.37 4.37 0 00.604 1.521 5.64 5.64 0 003.619 4.25c.172.062.347.115.525.157.115.376.142.774.079 1.163-2.013.21-3.956.858-5.692 1.897-13.588 6.576-27.019 27.736-25.541 32.405 1.478 4.669 5.246 10.134 7.756 13.78l.402-.07c.201.708.402 1.408.612 2.107.064.365.234.703.49.971.413.269.913.372 1.399.288a2.613 2.613 0 001.696-.481c.246-.238.419-.541.498-.874a3.819 3.819 0 00-.376-2.711l.298-.052s-5.859-8.744-5.649-14.112c.079-1.959 4.652-6.558 8.377-9.986a49.29 49.29 0 00-.131 3.629l-1.749 42.608s1.539.297 4.004.7l2.387 25.435h9.619l.227-23.966h.708l1.425.096h1.006l.944 23.765h9.496l1.95-24.202 1.154-.201.49-.114.927-.219.48-.14.875-.279.402-.14c.402-.149.787-.315 1.154-.49l-.183-45.94c0-.997 0-1.958-.088-2.903v-.21a37.771 37.771 0 00-.236-2.561 2.69 2.69 0 010-.254v-.227c1.88.376 4.328.822 7.52 1.364 2.014.329 4.076.201 6.033-.376v-9.365c-8.036.909-16.945-3.646-20.338-5.701z" fill="#000" opacity=".09"/><circle opacity=".3" cx="182.173" cy="116.607" r="14.812" fill="#6A6A6A"/><circle opacity=".5" cx="182.173" cy="116.607" r="8.036" fill="#6A6A6A"/><path fill-rule="evenodd" clip-rule="evenodd" d="M240.022 172.436c.014-13.293 10.787-24.066 24.08-24.081 13.294.015 24.066 10.788 24.081 24.081v23.162h-48.161v-23.162zm7.957 0v15.205h32.247v-15.205c0-8.905-7.219-16.124-16.124-16.124-8.904 0-16.123 7.219-16.123 16.124z" fill="#F88859"/><path fill-rule="evenodd" clip-rule="evenodd" d="M244.866 172.348c0-10.623 8.613-19.236 19.236-19.236a19.24 19.24 0 0113.603 5.634 19.24 19.24 0 015.634 13.602v18.485h-38.473v-18.485zm3.113.088v15.205h32.247v-15.205c0-8.905-7.219-16.124-16.123-16.124-8.905 0-16.124 7.219-16.124 16.124z" fill="#FD7658"/><rect x="233.709" y="181.468" width="60.787" height="48.493" rx="6.77" fill="#FDA859"/><path d="M272.916 202.357a8.84 8.84 0 10-12.906 7.869v9.549h8.132V210.2a8.848 8.848 0 004.774-7.843z" fill="#F88859"/><path d="M288.655 181.468h-14.602a91.243 91.243 0 01-14.427 27.508c-5.876 7.625-15.127 17.313-25.584 17.112a5.805 5.805 0 005.473 3.873h49.14a5.805 5.805 0 005.806-5.806v-36.881c0-1.54-.612-3.017-1.701-4.105a5.803 5.803 0 00-4.105-1.701z" fill="#FFB255" opacity=".4"/><path d="M269.979 148.364c.384 1.338.769 2.676 1.162 4.005.064.365.234.703.49.97a1.96 1.96 0 001.399.289c.604.04 1.203-.13 1.696-.481.246-.238.419-.541.499-.874a3.927 3.927 0 00-.56-2.912 11.513 11.513 0 00-1.976-2.3m69.303-44.759a32.399 32.399 0 011.906-5.439c.345.582.451 1.275.298 1.933a4.37 4.37 0 012.133-2.247.438.438 0 01.359-.053.446.446 0 01.218.341 6.121 6.121 0 01-3.672 7.223" fill="#FFC2D3"/><path d="M302.645 226.735c3.401.83 6.252 1.827 7.817 3.226h-13.116l.254-3.043 5.045-.183zm-16.054 0c-3.401.83-6.243 1.827-7.808 3.226h13.116l-.254-3.043-5.054-.183z" fill="#5084DA"/><path d="M309.527 150.323l-6.182 76.945c-.957.243-1.93.418-2.912.525-.57-.041-1.137-.12-1.696-.236-.717-.14-1.338-.289-1.338-.289l-2.317-58.164h-2.929l-.56 58.164a12.415 12.415 0 01-3.148.463 16.715 16.715 0 01-3.419-.463l-7.423-78.913 31.924 1.968z" fill="#2E2C84"/><g opacity=".3"><path d="M297.67 149.588l-10.886-.664c-.132 14.165 2.002 64.809 2.212 78.79.887-.061 1.766-.21 2.623-.446l.533-58.164h2.903l2.344 58.164s.62.149 1.337.289l.639.113c0-15.843-1.426-71.568-1.705-78.082z" fill="#2E2C84" opacity=".5"/></g><path d="M288.742 95.062v.096c.472 2.545 2.886 3.848 5.57 4.59 2.186.604 2.693.875 4.442-.393 3.629-2.623 6.864-6.12 5.814-10.92a.7.7 0 01.088-.525c-1.032-1.854-2.938-2.746-5.054-4.66-7.109-6.436-15.555 2.509-12.355 6.199a11.361 11.361 0 011.495 5.613z" fill="#001F64"/><path d="M312.989 125.91c0-14.628-6.059-23.722-17.654-23.722-11.594 0-17.671 12.242-17.671 26.853l-1.748 42.608s27.027 5.36 37.3.341l-.227-46.08z" fill="#8FC2FF"/><path d="M312.989 125.91c.052-3.68-.425-7.35-1.417-10.894-1.023 15.913-2.422 58.294-26.109 58.119 8.805 1.102 21.414 1.933 27.718-1.145l-.192-46.08z" fill="#8FC2FF" opacity=".3"/><path d="M301.29 93.34c-.429-2.877-2.999-5.762-6.121-4.267a6.33 6.33 0 01-5.727.192 105.17 105.17 0 00-.175 2.212c-.35-.638-.927-.734-1.102.061-.175.796.044 2.431.953 2.729v.428c.044 2.151.927 5.57 4.416 6.392.167.668.134 1.37-.096 2.02.192.673 2.911 1.11 3.803.314a17.978 17.978 0 01-.07-2.238c2.064-.332 3.786-2.37 4.573-4.984 3.104-1.766.901-4.932-.454-2.86z" fill="#FFC2D3"/><path d="M301.29 93.34a6.364 6.364 0 00-1.417-3.14c.088 5.01-2.037 9.619-6.873 10.729.172.063.347.116.525.158.168.668.134 1.37-.096 2.02.192.673 2.912 1.11 3.803.314a17.787 17.787 0 01-.069-2.238c2.063-.332 3.786-2.37 4.573-4.984 3.112-1.766.909-4.932-.446-2.86z" fill="#FFC2D3" opacity=".3"/><path d="M287.912 104.147c-13.588 6.575-27.018 27.735-25.541 32.404 1.478 4.67 5.247 10.134 7.756 13.781l4.94-.875s-5.858-8.744-5.648-14.112c.14-3.297 13.116-14.156 13.116-14.156l5.377-17.042zm16.744.778c2.134 1.522 19.884 12.163 29.65 2.772 7.048-6.785 7.765-8.097 7.765-8.097l2.413 4.285s-11.035 19.446-24.351 17.19c-13.317-2.256-13.693-2.947-13.693-2.947l-1.784-13.203z" fill="#8FC2FF"/><path d="M85.17 188.227a21.405 21.405 0 00-12.136 9.172h36.077a21.407 21.407 0 00-12.137-9.172V99.863H85.17v1.434h-12.6v10.623h12.6v2.536h-12.6v10.632h12.6v63.139z" fill="#000" opacity=".09"/><path fill="#FDA859" d="M95.41 111.938H80.3v-10.641h15.11zm0 13.168H80.3v-10.641h15.11z"/><path fill="#FFC87C" d="M95.41 111.938h-3.857v-10.641h3.856zm0 13.168h-3.857v-10.641h3.856z" opacity=".5"/><path fill="#FDA859" d="M104.695 192.31H92.9V99.853h11.795z"/><rect x="99.693" y="195.493" width="1.801" height="92.457" rx=".82" transform="rotate(180 99.693 195.493)" fill="#FFC87C" opacity=".5"/><path fill-rule="evenodd" clip-rule="evenodd" d="M90.65 189.001a21.292 21.292 0 00-13.14 19.678c.015 11.748 9.535 21.268 21.283 21.282a21.29 21.29 0 10-8.143-40.96zm4.198 29.202a10.31 10.31 0 01-6.364-9.524c.005-5.692 4.617-10.304 10.309-10.309a10.31 10.31 0 017.289 17.598 10.306 10.306 0 01-11.234 2.235z" fill="#FDA859"/><path fill-rule="evenodd" clip-rule="evenodd" d="M98.793 219.993c-6.249 0-11.315-5.065-11.315-11.314.03-6.237 5.078-11.286 11.315-11.315 6.249 0 11.314 5.066 11.314 11.315s-5.065 11.314-11.314 11.314zm0-21.623c-5.694 0-10.309 4.615-10.309 10.309.005 5.691 4.618 10.304 10.309 10.309 5.693 0 10.309-4.616 10.309-10.309 0-5.694-4.616-10.309-10.309-10.309z" fill="#FFC87C" opacity=".5"/><path d="M176.21 119.693c-3.742 3.306-17.199 17.401-19.664 9.732-1.95-6.077-6.051-14.427-8.447-17.234a11.428 11.428 0 00-5.823-3.567v-.971c2.334 0 5.981-.472 5.981-8.883a15.098 15.098 0 00-.674-5.317 2.625 2.625 0 00.158-2.894c-.656-1.075-2.37-2.01-3.498-2.51-2.693-1.197-6.225-1.748-8.814-.078a11.363 11.363 0 00-3.252-2.85 7.87 7.87 0 00-3.533-1.18c-2.483 0-4.651 1.862-5.797 4.065a9.079 9.079 0 00-.988 5.858 6.533 6.533 0 003.498 4.678c.537.28 1.145.399 1.748.341a3.574 3.574 0 001.985-1.198c1.329-1.381 1.548-3.034 2.527-4.529.142-.206.327-.379.542-.507-.29.974-.443 1.983-.454 3a17.873 17.873 0 002.334 8.288 4.87 4.87 0 001.39 1.819c.612.42 2.178.831 2.825.42l-.271 2.063c-1.911.174-3.77.717-5.474 1.6-10.117 2.326-17.75 27.167-31.276 25.515-1.644-.455-3.498-.586-3.55 1.023-.184 3.156 1.748 3.558 3.55 3.296v.07a25.813 25.813 0 0019.769-8.927c-3.637 20.512-2.186 47.382-2.186 47.382.98.14 1.95.262 2.912.385l1.661 18.799h8.613v-17.934c1.749.07 3.474.102 5.176.097l.201 17.837h9.994l1.933-18.712c1.749-.245 3.497-.542 5.246-.874-.358-11.28-.402-26.03-1.154-38.805a4.15 4.15 0 001.854 1.058c1.171.288 6.234 6.121 9.871 1.687 3.638-4.433 11.367-13.78 14.226-18.563-.664-1.556-2.291-2.019-3.139-3.48z" fill="#000" opacity=".09"/><path d="M143.412 105.45l-.568 4.354 4.581.507v-4.59l-4.013-.271z" fill="#F9ACC8"/><path d="M108.122 137.277s-6.059-2.981-6.234 0c-.332 5.657 6.234 2.466 6.234 2.466v-2.466z" fill="#000" opacity=".1"/><path d="M108.979 136.403s-6.059-2.991-6.234 0c-.332 5.657 6.234 2.466 6.234 2.466v-2.466zm30.297-37.598c0 3.961 4.084 8.883 8.045 8.883 2.325 0 6.12-.35 6.12-8.883 0-8.963-3.008-7.162-6.995-7.162a7.17 7.17 0 00-7.17 7.162z" fill="#FFB27D"/><path d="M145.301 102.101a30.965 30.965 0 011.67-10.492h-.525a7.17 7.17 0 00-7.17 7.16c0 3.883 3.935 8.683 7.817 8.867a7.985 7.985 0 01-1.792-5.535z" fill="#FFC2D3" opacity=".3"/><path d="M151.894 93.978c-.63.096-1.312-.21-1.906 0-.954.385-1.015 1.836-1.898 2.37-1.093.673-2.745-.481-3.698.376-.569.498-.499 1.39-.446 2.15a16.093 16.093 0 01-.647 5.946c-.14.446.445 1.242.096 1.548-.586.507-2.274.061-2.903-.385a4.812 4.812 0 01-1.39-1.827 18.26 18.26 0 01-2.335-8.386 9.468 9.468 0 013.585-7.65c2.623-1.863 6.252-1.303 9.023-.062 1.146.516 2.86 1.46 3.498 2.545.638 1.084.551 3.148-.979 3.375z" fill="#2C3A64"/><path d="M151.142 89.029c-.936.874-1.88 2.343-2.58 2.833a10.983 10.983 0 01-3.244 1.163c-5.097 1.565-5.447 9.373-3.226 13.553.441.111.909.045 1.303-.184.349-.306-.237-1.102-.097-1.547.586-1.924.806-3.941.647-5.946-.052-.76-.122-1.653.446-2.151.953-.875 2.623.297 3.699-.376.874-.534.944-1.985 1.897-2.37.595-.236 1.277.07 1.907 0 1.53-.227 1.635-2.282.988-3.349a5.458 5.458 0 00-1.74-1.626z" fill="#FFC87C" opacity=".5"/><path d="M137.309 85.138a7.868 7.868 0 00-3.558-1.163c-2.484 0-4.652 1.88-5.798 4.11a9.255 9.255 0 00-.988 5.92 6.594 6.594 0 003.498 4.72 3.044 3.044 0 001.749.342 3.5 3.5 0 001.976-1.207c1.329-1.399 1.556-3.06 2.535-4.573.787-1.224 2.519-.717 3.673-1.512 2.894-2.029-1.259-5.64-3.087-6.637z" fill="#2C3A64"/><path d="M138.63 90.524c-.534-.27-.945-.77-1.478-1.04-.752-.822-4.626-1.25-5.43 4.144a6.411 6.411 0 01-2.754 4.066c.431.424.931.773 1.477 1.032a3.044 3.044 0 001.749.34 3.494 3.494 0 001.976-1.206c1.329-1.399 1.557-3.06 2.536-4.573.787-1.224 2.518-.717 3.672-1.512.375-.23.678-.56.875-.954a3.112 3.112 0 01-2.623-.297z" fill="#FFC87C" opacity=".5"/><path d="M136.076 226.735c3.401.83 6.252 1.827 7.817 3.226h-13.116l.254-3.043 5.045-.183z" fill="#F9714E"/><path d="M147.88 226.735c3.402.83 6.243 1.827 7.808 3.226h-13.115l.253-3.043 5.054-.183z" fill="#F9714E"/><path d="M181.833 116.756a2.46 2.46 0 00-.272-.123c-.5-.027-.986.168-1.329.533a22.309 22.309 0 00-2.623 2.3 3.147 3.147 0 00-.507.568 2.118 2.118 0 00-.157 2.265c.335.533.91.869 1.539.901a4.07 4.07 0 002.754-1.207 2.178 2.178 0 00-1.093-3.331 9.67 9.67 0 001.574-1.146.972.972 0 00.262-.35.331.331 0 00-.148-.41z" fill="#000" opacity=".1"/><path d="M181.518 118.653a1.924 1.924 0 01-.114 2.335 4.065 4.065 0 01-2.754 1.206 1.957 1.957 0 01-1.574-.918 2.106 2.106 0 01.166-2.273c.953-1.391 3.305-2.16 4.276-.35z" fill="#FFB27D"/><path d="M179.979 117.875a10.49 10.49 0 001.897-1.364.992.992 0 00.28-.359.351.351 0 00-.122-.402l-.28-.122c-.49-.132-.945.209-1.355.515a22.867 22.867 0 00-2.624 2.291 4.827 4.827 0 002.204-.559z" fill="#FFB27D"/><path d="M163.278 129.915a116.72 116.72 0 0013.116-10.615.674.674 0 01.953.07c.813.962 2.124 2.387 1.985 2.99a1.997 1.997 0 01-.543.875c-4.08 4.564-8.192 9.122-12.337 13.675a13.525 13.525 0 01-2.623 2.457 4.567 4.567 0 01-3.498.726c-1.984-.49-3.086-2.527-4.17-4.259-5.308-8.533-4.434-11.611-3.786-14.243.454-1.828 1.023-3.629 1.355-5.491.105-.586-1.303-3.848-.499-3.891 2.396 2.807 5.99 11.367 8.447 17.234a1.074 1.074 0 001.6.472z" fill="#FD7658"/><path d="M124.902 157.195l6.182 70.143c.959.223 1.931.383 2.911.481.57-.034 1.136-.104 1.697-.21.717-.131 1.337-.271 1.337-.271l.062-52.996h5.115l.603 52.996c1.029.262 2.086.403 3.148.42a18.473 18.473 0 003.419-.42l7.423-71.909-31.897 1.766z" fill="#4B48B5"/><path d="M140.806 162.45c0 2.379-.131 4.521.7 6.681a4.178 4.178 0 004.214 2.736c3.061-.061 5.185-1.748 5.203-4.817 0-.403.192-4.591.393-4.6h-10.51zm-14.514.009a26.493 26.493 0 00.516 6.672c.455 1.696 1.486 2.798 2.947 2.763 2.133 0 3.322-2.414 3.602-4.801.044-.393.114-4.581.254-4.59l-7.319-.044z" fill="#568EDB"/><path d="M137.091 174.307a.132.132 0 00.105-.149c-.814-4.765-.254-13.885-.245-13.99a.141.141 0 00-.044-.096.123.123 0 00-.096 0c-.079 0-8.245.385-11.673-.481a.128.128 0 00-.098.009.122.122 0 00-.059.079.13.13 0 00.096.157c3.209.813 10.492.542 11.603.498-.061 1.181-.499 9.426.271 13.894.02.058.08.091.14.079zm1.023 0a.14.14 0 00.122-.14 75.72 75.72 0 01-.183-13.815c5.906-.151 11.79-.785 17.592-1.897a.145.145 0 00.099-.071.141.141 0 00.006-.122.131.131 0 00-.149-.096 107.334 107.334 0 01-17.662 1.897.132.132 0 00-.131.114 76.469 76.469 0 00.166 13.99.13.13 0 00.038.102.13.13 0 00.102.038z" fill="#5E9CE4"/><path d="M135.691 227.583c.717-.131 1.338-.271 1.338-.271l.061-52.996h.429a.305.305 0 00-.429-.14 5.471 5.471 0 00-2.098 1.967 4.06 4.06 0 00-.796 2.309c-.411 16.333.568 28.775 1.495 49.131z" fill="#4E84D9" opacity=".16"/><path fill-rule="evenodd" clip-rule="evenodd" d="M155.295 161.515a.132.132 0 00.114.14h.017c.065 0 .118-.05.123-.114l.209-2.037a.13.13 0 00-.113-.14.12.12 0 00-.095.026.12.12 0 00-.045.088l-.21 2.037zm-.306 4.214a.131.131 0 01-.114-.14l.21-2.037c0-.07.079-.131.14-.113a.13.13 0 01.114.139l-.21 2.038a.113.113 0 01-.123.113h-.017zm-.525 3.935a.132.132 0 00.114.14h.009a.13.13 0 00.131-.114l.21-2.037a.132.132 0 00-.114-.14.116.116 0 00-.098.022.116.116 0 00-.042.092l-.21 2.037zm-.306 4.215a.131.131 0 01-.113-.14l.21-2.038c0-.07.078-.131.139-.113.069.009.119.07.114.14l-.21 2.037a.122.122 0 01-.122.114h-.018zm-.524 3.934a.13.13 0 00.113.14h.009a.13.13 0 00.131-.114l.21-2.037a.121.121 0 00-.026-.095.124.124 0 00-.088-.045.11.11 0 00-.097.023.111.111 0 00-.042.091l-.21 2.037zm-.306 4.206a.12.12 0 01-.088-.045.125.125 0 01-.026-.095l.21-2.037a.13.13 0 01.253 0l-.209 2.037a.124.124 0 01-.123.114l-.017.026zm-.525 3.935a.132.132 0 00.114.14h.008a.133.133 0 00.132-.114l.201-2.037a.131.131 0 00-.114-.14c-.061-.018-.14.043-.14.113l-.201 2.038zm-.306 4.214a.131.131 0 01-.114-.14l.21-2.037a.123.123 0 01.123-.114.13.13 0 01.113.14l-.21 2.038a.122.122 0 01-.131.113h.009zm-.533 3.935a.13.13 0 00.113.14l.053-.018a.122.122 0 00.122-.113l.175-2.02a.131.131 0 00-.114-.14.121.121 0 00-.095.026.128.128 0 00-.045.088l-.209 2.037zm-.298 4.214a.13.13 0 01-.113-.14l.21-2.037a.112.112 0 01.139-.113.13.13 0 01.114.139l-.21 2.038a.13.13 0 01-.131.113h-.009zm-.533 3.935a.131.131 0 00.114.14l.052.017a.131.131 0 00.123-.113l.209-2.037a.12.12 0 00-.026-.095.119.119 0 00-.087-.045c-.061-.018-.14.043-.14.113l-.245 2.02zm-.297 4.206a.126.126 0 01-.088-.045.125.125 0 01-.026-.095l.201-2.029c0-.07.07-.14.14-.113a.123.123 0 01.114.14l-.201 2.028a.142.142 0 01-.132.123l-.008-.009zm-.508 4.029a.123.123 0 00.088.045h.009a.122.122 0 00.131-.113l.21-2.038a.13.13 0 00-.114-.139.112.112 0 00-.098.022.114.114 0 00-.042.091l-.21 2.038a.123.123 0 00.026.094zm-.332 4.12a.13.13 0 01-.113-.14l.209-2.037c0-.07.079-.131.14-.114a.132.132 0 01.114.14l-.21 2.037a.116.116 0 01-.036.084.114.114 0 01-.086.03h-.018zm-.524 3.935a.13.13 0 00.113.14h.009a.132.132 0 00.131-.114l.21-2.037a.131.131 0 00-.114-.14.116.116 0 00-.098.022.113.113 0 00-.041.091l-.21 2.038zm-.306 4.214a.131.131 0 01-.114-.14l.21-2.037a.123.123 0 01.14-.114.13.13 0 01.113.14l-.209 2.038a.123.123 0 01-.123.113h-.017zm-.315 3.087a.132.132 0 01-.114-.14l.105-1.049c0-.07.079-.132.14-.114.069.009.119.07.114.14l-.105 1.049a.133.133 0 01-.123.114h-.017z" fill="#5E9CE4"/><path d="M137.571 109.865c-10.116 2.326-17.749 27.167-31.276 25.515v4.424c6.33 0 14.978-2.028 22.069-11.743 10.257-14.051 9.207-18.196 9.207-18.196z" fill="#F9714E"/><path d="M137.571 109.865c-10.116 2.326-17.749 27.167-31.276 25.515v4.424c6.33 0 14.978-2.028 22.069-11.743 10.257-14.051 9.207-18.196 9.207-18.196z" fill="#FD7658"/><path d="M153.249 112.191c6.208 7.118 5.692 43.212 6.4 65.631-11.201 2.352-23.206 2.247-35.771.437 0 0-1.958-36.12 4.372-56.581 4.241-13.885 18.441-16.998 24.999-9.487z" fill="#F88859"/><path d="M132.448 159.792a79.223 79.223 0 01-3.349-23.468c0-6.698.183-13.99 1.941-20.591a22.009 22.009 0 00-2.824 5.945c-6.296 20.461-4.372 56.581-4.372 56.581a122.747 122.747 0 0018.598 1.338 59.814 59.814 0 01-9.994-19.805z" fill="#FD7658"/><path d="M33.608 100.921c.874-.053 7.135-4.66 9.53-6.217a6.407 6.407 0 001.837-1.548 2.3 2.3 0 00.35-2.265 2.86 2.86 0 00-2.92-1.8c-3.096 0-4.172 1.022-5.684 2.622-4.984 5.116-3.113 9.208-3.113 9.208zm27.91 18.598c2.71 1.215 5.605 2.43 8.552 2.054 1.145-.148 2.387-.664 2.771-1.748a2.572 2.572 0 00-.874-2.624 6.16 6.16 0 00-2.623-1.197c-3.611-.875-8.674-.394-12.241.62a32.301 32.301 0 004.415 2.895zM79.364 79.48c-1.206-.76-2.544-1.748-2.544-3.217s1.504-2.527 2.938-2.527a5.99 5.99 0 013.838 1.749c4.564 4.005 3.996 8.569 3.996 8.569s-6.881-3.725-8.228-4.573zm3.603-12.214a5.84 5.84 0 01-2.78-1.976 1.889 1.889 0 01-.29-1.6c.315-.875.875-1.688 3.105-1.277 7.082 1.277 8.62 6.12 8.62 6.12s-6.784-.454-8.655-1.267zm20.74 10.728a11.169 11.169 0 007.555-3.882 6.837 6.837 0 001.521-2.807 3.06 3.06 0 00-.874-2.964 3.14 3.14 0 00-3.664 0 7.412 7.412 0 00-2.37 3.087c-.717 1.574-2.168 6.566-2.168 6.566z" fill="#4B5923"/><path d="M53.002 181.529l-20.627-18.178c-3.663-3.235-7.406-6.558-9.732-10.851-4.984-9.242-2.107-21.247 4.626-29.3 6.733-8.053 16.613-12.81 26.52-16.272 9.906-3.463 20.242-5.894 29.728-10.493 5.929-2.877 11.892-7.152 13.518-13.535A13.509 13.509 0 0084.75 66.094m23.783 5.308c-1.88 5.77-9.198 9.277-12.538 14.278" stroke="#4B5923" stroke-linecap="round" stroke-linejoin="round"/><path d="M82.232 78.038c1.443 1.522 3.165 2.78 4.424 4.45 2.623 3.55 2.877 9.304-1.049 12.871m-40.397 14.97a39.193 39.193 0 0021.694 8.088m-35.587.428a21.405 21.405 0 017.205-23.328" stroke="#4B5923" stroke-linecap="round" stroke-linejoin="round"/><path d="M271.709 5.718a3.07 3.07 0 01.438-3.034 2.246 2.246 0 012.378-.533c6.007 2.623 5.36 12.058 5.36 12.058s-5.701-.822-8.176-8.49zm-.139 17.628c-3.891 7.047 9.932 6.514 14.916 2.36 0 0-11.568-8.437-14.916-2.36zm17.479-17.094c-.945-1.294-1.277-3.218-.254-4.442a3.437 3.437 0 013.253-.97 7.665 7.665 0 013.655 2.238 11.953 11.953 0 012.413 11.236s-7.529-5.955-9.067-8.062zm54.91 17.461a3.096 3.096 0 01.595-3.209 2.623 2.623 0 012.02-.603 6.168 6.168 0 012.063.612 6.601 6.601 0 013.192 3.183c1.705 3.497.542 7.869.542 7.869s-7.581-5.115-8.412-7.852zm-17.278 12.941a8.857 8.857 0 00-9.172-1.478 4.773 4.773 0 00-1.967 1.47c-1.084 1.52-.708 3.733.428 5.245a11.425 11.425 0 004.547 3.157c3.078 1.399 7.87 1.679 11.131 2.518.009-.026-.009-6.549-4.967-10.912z" fill="#4B5923"/><path d="M276.021 7.231c2.037 6.672 7.79 11.717 14.199 14.445 6.41 2.728 13.475 3.445 20.417 3.89 6.943.447 13.99.683 20.697 2.51 6.549 1.749 13.072 5.491 15.878 11.69 3.419 7.538.394 16.553-4.372 23.294-4.765 6.742-11.34 12.136-15.948 19.018-2.134 3.147-3.917 6.829-3.498 10.606.569 5.036 4.801 8.744 8.744 11.935M292.039 4.774a40.072 40.072 0 019.172 19.927" stroke="#4B5923" stroke-linecap="round" stroke-linejoin="round"/><path d="M276.554 24.483a31.898 31.898 0 008.026 1.416 12.242 12.242 0 007.87-3.41m56.012 1.635a13.678 13.678 0 014.092 9.198c.132 3.437-1.748 7.599-4.057 10.17m-25.846-3.769a137.905 137.905 0 0014.698 12.093c2.501 1.748 7.459 4.022 9.662 3.436" stroke="#4B5923" stroke-linecap="round" stroke-linejoin="round"/><defs><linearGradient id="paint0_linear" x1="169.215" y1="140.915" x2="169.215" y2="157.974" gradientUnits="userSpaceOnUse"><stop stop-color="#724AC8"/><stop offset="1" stop-color="#724AC8"/></linearGradient></defs></svg>