<svg width="418" height="224" fill="none" xmlns="http://www.w3.org/2000/svg"><rect x="90.804" y="15.718" width="247.332" height="163.585" rx="12.92" fill="#000" opacity=".09"/><rect x="103.666" y=".792" width="256" height="170" rx="12.92" fill="#263238"/><rect x="108" y="4" width="247.332" height="163.585" rx="12.92" fill="#fff"/><rect x="122" y="16" width="219" height="21" rx="9" fill="#EEE"/><circle cx="139.5" cy="26.5" r="6.5" fill="#D8D8D8"/><rect x="122" y="47" width="219" height="21" rx="9" fill="#EEE"/><circle cx="139.5" cy="57.5" r="6.5" fill="#D8D8D8"/><rect x="122" y="78" width="219" height="21" rx="9" fill="#EEE"/><circle cx="139.5" cy="88.5" r="6.5" fill="#D8D8D8"/><path d="M177.208 154.693s15.963-31.973 31.873-28.506c15.909 3.468 24.146 11.818 33.805 0 9.658-11.818 5.868-40.284 26.078-39.915 18.029.329 5.097 31.021 24.039 36.219 18.941 5.199 45.435-41.357 45.435-41.357v72.835l-161.23.724z" fill="#865AE4"/><path d="M338.438 153.969v-43.544s-8.143 21.141-18.446 24.468c-10.302 3.327-14.809-38.526-25.112-34.308-10.302 4.219-.966 28.976-21.57 38.313-20.605 9.336-14.596-26.669-29.298-25.113-12.663 1.342-8.72 26.722-23.181 32.517-14.46 5.796-28.325-6.707-36.058 8.391l153.665-.724z" fill="url(#paint0_linear)"/><path d="M347.251 155.418H115.447a.732.732 0 01-.725-.725.732.732 0 01.725-.724h231.804a.732.732 0 01.725.724.732.732 0 01-.725.725z" fill="#F7F7F5"/><ellipse cx="208.471" cy="40.835" rx="18.354" ry="17.951" fill="#FDA859"/><ellipse cx="207.354" cy="38.951" rx="18.354" ry="17.951" fill="#FCC700"/><ellipse cx="207.251" cy="38.773" rx="13.986" ry="13.341" transform="rotate(-2.95 207.251 38.773)" fill="#FDA859"/><path d="M205.934 25.548c7.554-.719 14.28 4.583 15.222 11.9 0-.132 0-.259-.031-.39-.745-7.514-7.58-13.017-15.265-12.268-7.685.75-13.311 7.418-12.562 14.932 0 .131.031.258.049.386-.513-7.374 5.043-13.841 12.587-14.56z" fill="#FDA859"/><path fill-rule="evenodd" clip-rule="evenodd" d="M213.821 42.053c-.188-1.91-1.244-3.067-2.668-3.435a3.615 3.615 0 001.314-3.392c-.184-1.88-1.389-3.11-3.457-3.36l-.232-2.322-2.191.21.215 2.156-1.244.118-.211-2.156-2.19.206.214 2.156-1.998.193-1.389.131.215 2.143 1.389-.136 1.034 10.419-1.507.162.21 2.143 1.538-.145 1.994-.188.249 2.506 2.191-.21-.25-2.507 1.245-.118.249 2.506 2.191-.206-.258-2.59c2.427-.59 3.57-2.107 3.347-4.284zm-9.446-7.75l2.961-.281c1.648-.158 2.629.438 2.783 1.792.153 1.353-.732 2.103-2.379 2.26l-3.365.32-.404-4.052.404-.04zm.885 10.418l3.588-.342.009.014c1.792-.171 2.672-.925 2.528-2.397-.145-1.472-1.179-2.029-2.971-1.858l-3.842.364.438 4.241.25-.022z" fill="#FCC700"/><path d="M142.866 118.112h6.647s-11.805-14.757-12.127-14.757h-5.856l11.336 14.757z" fill="#225487"/><path fill="#5686DB" d="M127.949 131.513h12.972v6.761h-12.972zm6.486 19.075h35.287v6.761h-35.287z"/><path d="M343.502 218.004s-1.214-38.105 7.264-39.916 9.39 11.778 9.39 11.778 6.036-40.304 21.108-33.382c15.071 6.922-3.662 38.822-3.662 38.822s10.51-9.766 14.165.423c3.656 10.188-27.386 24.025-27.386 24.025l-20.879-1.75z" fill="#5E8845"/><path d="M361.236 211.766s15.051-33.054 15.467-45.61c0 .007-.55 28.748-15.467 45.61z" fill="#4C6E37"/><path d="M386.844 196.923s-11.234 7.787-21.926 9.316c0 0-9.296-13.227-11.751-21.738 0 0 4.024 18.592 10.537 23.287 0 0 15.93-1.898 23.14-10.865z" fill="#4C6E37"/><path d="M370.15 192.657s-2.804-11.114-.838-17.781c0 0 .04 11.449 2.535 16.097 0 0 7.767-6.707 8.76-10.182 0 0-3.582 9.807-10.457 11.866z" fill="#4C6E37"/><path d="M72.218 217.353s3.092-29.626-4.092-33.154c-7.183-3.528-6.794 8.277-15.138.61-8.344-7.666-9.7-31.477-21.886-27.319-12.187 4.159 5.929-16.097-12.033-18.572-17.962-2.475-27.547 19.578-8.532 35.381 19.015 15.802-5.171 3.26-3.561 16.164 1.61 12.905 39.378 7.077 37.165 14.891-2.214 7.814-3.441 10 3.877 14.964l24.2-2.965z" fill="#CB99FA"/><path d="M72.218 217.353s3.092-29.626-4.092-33.154c-7.183-3.528-6.794 8.277-15.138.61-8.344-7.666-9.7-31.477-21.886-27.319-12.187 4.159 5.929-16.097-12.033-18.572-17.962-2.475-27.547 19.578-8.532 35.381 19.015 15.802-5.171 3.26-3.561 16.164 1.61 12.905 39.378 7.077 37.165 14.891-2.214 7.814-3.441 10 3.877 14.964l24.2-2.965z" fill="#92A44B"/><path d="M68.039 195.159a.173.173 0 00-.201.161c0 .093-.805 9.209-4.749 11.55a4.214 4.214 0 01-3.904.127c.175-.248.342-.517.51-.798 2.187-3.683 3.837-10.061 2.294-15.427a.18.18 0 00-.221-.127.188.188 0 00-.128.228c1.516 5.251-.107 11.536-2.26 15.158-1.093 1.845-2.334 3.032-3.501 3.354-2.301-7.097-6.942-17.875-14.696-21.906-.034-2.757-1.1-3.924-5.084-6.755 3.099-4.487-3.186-17.063-3.461-17.6a.182.182 0 00-.322.161c.06.135 6.459 12.919 3.488 17.231-.671-.462-1.342-.965-2.187-1.529l-.436-.302c-6.332-4.4-7.834-13.28-7.847-13.367a.18.18 0 00-.072-.121.184.184 0 00-.257.038.18.18 0 00-.034.136c0 .094 1.543 9.122 8.002 13.616l.436.302c5.936 4.118 7.318 5.084 7.378 8.002a14.638 14.638 0 00-1.744-.718c-3.474-1.153-7.378-3.729-11.322-7.344v-.041a.123.123 0 00-.06-.04 69.124 69.124 0 01-7.868-8.719c1.516-3.166-.275-7.13-1.717-10.323a18.03 18.03 0 01-1.435-3.776.177.177 0 00-.076-.119.184.184 0 00-.139-.029.181.181 0 00-.147.208 18.764 18.764 0 001.462 3.89c1.388 3.059 3.099 6.849 1.797 9.84l-.67-.919c-6.178-8.391-9.659-16.621-8.88-20.994a.183.183 0 00-.148-.214.183.183 0 00-.215.147c-.879 4.944 3.44 14.086 9.726 22.336a1.047 1.047 0 01-.839.55c-3.615.288-13.414-13.207-13.549-13.348a.187.187 0 00-.255-.04.18.18 0 00-.04.255c.41.563 10.061 13.803 13.878 13.495h.067a1.34 1.34 0 00.972-.59 70.773 70.773 0 007.714 8.525c-.863.769-2 1.158-3.153 1.079-4.386-.254-9.31-6.036-9.39-6.117a.182.182 0 10-.275.235c.201.248 5.07 5.983 9.618 6.245.31.03.623.03.933 0a4.597 4.597 0 002.535-1.161c3.756 3.448 7.693 6.124 11.402 7.378.636.21 1.255.468 1.852.772-.054.395-.416.831-1.067 1.281-1.475 1.019-4.373 2.012-7.908 2.73a2.897 2.897 0 00-.73-2.113c-1.423-1.69-5.494-3.461-16.83-2.274a.188.188 0 00-.16.201c.013.1.1.172.2.168 11.155-1.174 15.133.51 16.5 2.126.5.527.744 1.244.671 1.965a48.208 48.208 0 01-8.048.812h-.141a30.428 30.428 0 01-10.933-1.63.174.174 0 00-.235.101.182.182 0 00.005.14c.02.044.057.078.103.094a30.53 30.53 0 0010.932 1.657 2.563 2.563 0 01-.985 1.677c-1.027.825-3.294 1.549-8.284.342a.176.176 0 00-.221.134.175.175 0 00.134.215c1.932.546 3.947.746 5.95.59a5.07 5.07 0 002.682-1.006 2.903 2.903 0 001.12-1.959 46.9 46.9 0 005.01-.355 44.954 44.954 0 003.073-.483h.04c3.695-.704 6.747-1.757 8.277-2.817a2.682 2.682 0 001.194-1.409c7.559 4.025 12.073 14.596 14.38 21.598-3.568.671-6.124-2.213-8.25-9.303-2.126-7.09-12.026-4.326-12.127-4.299a.18.18 0 00-.12.228.171.171 0 00.084.107.171.171 0 00.137.013c.1 0 9.658-2.683 11.677 4.058 2.12 7.056 4.695 10.061 8.284 9.619l.429-.074c1.154 3.608 1.683 6.191 1.704 6.271a.18.18 0 00.2.141.181.181 0 00.14-.215c.002-.08-.548-2.683-1.702-6.278a6.123 6.123 0 002.971-2.421c.84.382 1.766.534 2.683.443a4.084 4.084 0 001.63-.564c4.105-2.441 4.896-11.449 4.923-11.831a.175.175 0 00.008-.198.173.173 0 00-.182-.077z" fill="#C0D254"/><path d="M188.165 125.867l-31.625 3.134-2.208-22.28 31.624-3.134 2.209 22.28z" fill="#F2F2F2"/><path d="M186.693 126.015l-29.168 2.891-2.102-21.212 29.168-2.891 2.102 21.212z" fill="#4E76C9"/><path d="M186.349 122.585l-18.136-16.151 3.266-.322 14.522 12.932.348 3.541zm-30.672-12.274l-.262-2.609.865-.081 21.645 19.27-3.267.322-18.981-16.902zm3.977-3.025l1.637-.161 19.592 17.446-.805.905-20.424-18.19z" fill="#fff"/><path d="M189.06 127.789l-43.012 4.263-.197-1.995 43.011-4.263.198 1.995z" fill="#E6E6E6"/><path d="M179.021 126.786l9.832-.975.198 1.996-9.832.974-.198-1.995z" fill="#CACBCC"/><path d="M208.363 191.208c2.441 1.529-.718 6.573-3.159 5.044l-15.179-9.498 3.146-5.01 15.192 9.464z" fill="#F5A486"/><path d="M205.19 196.232a9.38 9.38 0 012.563-1.342c1.187-.315.61-3.722.61-3.722s4.595-.108 5.963-1.945a3.556 3.556 0 013.266-1.51l-8.719 11.792-3.683-3.273z" fill="#343456"/><path d="M208.51 194.588c-.148.24-.366.429-.623.544a21.49 21.49 0 00-2.549 1.341.254.254 0 01-.349-.074.247.247 0 01.081-.348 22.168 22.168 0 012.622-1.342c1-.436.718-2.73.53-3.582a.248.248 0 01.483-.107c.027.114.563 2.395-.195 3.568z" fill="#52527A"/><path d="M199.959 185.949l-6.788-4.205-3.159 5.044 10.832 6.781a10.395 10.395 0 01-.885-7.62z" fill="#C66547"/><path d="M186.008 208.647c1.187 2.629-4.233 5.084-5.42 2.462l-7.378-16.313 5.419-2.455 7.379 16.306z" fill="#F5A486"/><path d="M180.588 211.082a9.495 9.495 0 012.857.322c1.167.395 2.569-2.757 2.569-2.757s3.89 2.448 6.037 1.677a3.541 3.541 0 013.555.543l-13.797 4.997-1.221-4.782z" fill="#343456"/><path d="M184.263 211.551a1.445 1.445 0 01-.825.114 21.237 21.237 0 00-2.857-.308.255.255 0 010-.503c.985.041 1.966.146 2.938.315 1.073.194 2.106-1.878 2.421-2.683a.246.246 0 01.194-.155.251.251 0 01.232.09c.055.07.069.163.037.246-.027.101-.879 2.307-2.14 2.884z" fill="#52527A"/><path d="M181.916 199.626l-3.3-7.285-5.42 2.455 5.279 11.644a10.33 10.33 0 013.441-6.814z" fill="#C66547"/><path d="M174.893 161.709l32.417 21.081-5.695 14.555-25.454-10.249-1.268-13.911v-11.476z" fill="#1C3D75"/><path d="M126.936 140.159s-9.665 10.731-3.817 20.236c5.849 9.504 44.517 11.885 44.517 11.885l6.311 36.85 19.592-5.406-15.198-42.323-33.845-17.621-17.56-3.621z" fill="#3961AA"/><path d="M146.166 93.878l1.831 2.77-1.831.51v-3.28z" fill="#EF9478"/><path d="M143.952 109.513s2.214.429 4.843 6.11c3.595 7.74-2.837 2.817-1.201 14.3l1.006 15.997c-9.209 1.382-14.233-1.502-24.582-2.804 0 0 2.857-11.06 2.844-14.286-.06-10.249-1.932-17.506 3.756-19.317 0 0 7.942-1.791 13.334 0z" fill="#F88859"/><path d="M133.154 109.09V97.513h7.378v11.47c.007.429-7.378.537-7.378.107z" fill="#FFB27D"/><path d="M133.154 104.891v-7.378h7.378v6.332c-1.69 1.295-4.434 2.683-7.378 1.046z" fill="#C28358"/><path d="M146.166 89.398s-.228-8.002-9.853-8.559c-11.221-.67-15.635 10.31-12.858 16.319 2.777 6.01 10.785 9.149 14.951 3.843 1.556-1.972 8.518-6.077 7.76-11.603z" fill="#343456"/><path d="M143.181 85.735s1.389 4.695-.57 6.936c0 0 .362 3.836-1.952 5.285 0 0 0-2.602-2.012-2.012-2.012.59-2.388 3.984-.577 4.923 0 0 .094 2.542 2.194 3.119a14.246 14.246 0 001.857-.443c6.547-1.952 6.003-10.805 1.06-17.808z" fill="#FFB27D"/><ellipse cx="146.233" cy="94.918" rx=".51" ry=".724" fill="#C28358"/><path d="M125.802 92.255s-5.835-3.957-9.39 4.158c-3.555 8.116 10.933 19.646 6.224 25.099 0 0 7.083-3.421 7.083-8.874l1.147 2.368s2.408-5.976-.255-9.39c-2.662-3.414-.12-10.397-4.809-13.361z" fill="#424266"/><path d="M148.601 145.92l-1.006-15.997c-1.577-11.033 4.306-6.928 1.569-13.461-3.93 2.26-10.785 6.707-10.584 10.061.228 3.863 7.184 13.347 5.124 19.739a32.094 32.094 0 004.897-.342z" fill="#FD7658"/><path d="M179.857 126.328l2.616-1.147c.456-.134.952-.107 1.08.289l-3.22 2.226 3.052-1.603a.57.57 0 01.758.329l-3.045 1.925 2.334-.973s.536-.174.738.255c-.517.671-4.695 2.093-6.828 3.354l-2.093 2.119-2.093-2.012s3.3-7.519 4.38-7.613c1.08-.093-.255 2.858-.255 2.858a10.169 10.169 0 013.589-2.106 1.682 1.682 0 011.308.248l-2.321 1.851z" fill="#FFB27D"/><path d="M143.758 109.359s-4.93 1.576-2.596 15.078c.409 3.943 4.695 18.552 10.531 20.705 10.543 3.877 20.511-2.287 25.159-12.912l-3.005-3.534-18.553 2.904c-3.172-10.658-5.547-19.398-11.536-22.241z" fill="#F88859"/><path d="M131.873 160.207c-3.837-2.898-6.547-9.451-8.27-15.105-2.093 4.024-3.83 9.839-.483 15.286 5.842 9.517 44.516 11.885 44.516 11.885l6.312 36.85 6.62-1.824c-5.44-11.403-8.143-42.256-8.143-42.256s-33.147.771-40.552-4.836z" fill="#2A5696"/><path d="M106.512 114.349s16.004 5.265 17.345 14.588c1.342 9.323-1.576 32.068 6.319 38.997 7.894 6.928-10.464 4.695-15.615-3.354s-8.049-50.231-8.049-50.231z" fill="#C6916D"/><path d="M162.525 168.926c-14.978-6.432-34.047 1.536-41.532-10.296-7.485-11.831 3.132-35.213-7.009-45.375-10.142-10.161-21.973-7.23-21.973-7.23s-7.244 47.052 6.278 63.23c13.522 16.178 49.788 2.683 57.253 13.287 6.299 8.961 5.232 23.422 1.691 28.593h-49.185a2.844 2.844 0 00-2.837 2.838v.979a2.844 2.844 0 002.837 2.837h55.523a2.843 2.843 0 002.837-2.837v-.979a2.879 2.879 0 00-.234-1.121c.637-2.153 10.899-37.695-3.649-43.926z" fill="#D39E7A"/><rect x="11.402" y="215.864" width="406.141" height="8.002" rx="4.001" fill="#9CB4F7"/><path d="M65.356 166.317a34.21 34.21 0 0113.12 2.884l2.682-1.596-1.274 2.247a41.804 41.804 0 016.821 4.199l2.127-2.321-.966 3.219c1.1.895 2.135 1.8 3.105 2.717l2.616-1.154-1.71 2.012a57.803 57.803 0 0110.134 13.569c-4.52-41.78-36.655-25.776-36.655-25.776z" fill="#5E8845"/><path d="M82.386 152.97a34.334 34.334 0 019.692 9.323l3.125.04-2.26 1.254a41.165 41.165 0 013.642 7.117l3.025-.866-2.522 2.207a53.704 53.704 0 011.234 3.931l2.831.382-2.515.845a57.69 57.69 0 011.576 16.862c17.949-38.017-17.828-41.095-17.828-41.095z" fill="#4B5923"/><path d="M138.949 164.405a34.217 34.217 0 00-12.744 4.166l-2.83-1.342 1.489 2.113a41.749 41.749 0 00-6.379 4.849l-2.348-2.099 1.308 3.085a58.65 58.65 0 00-2.824 3.005l-2.682-.885 1.898 1.851a57.925 57.925 0 00-8.72 14.501c.275-42.034 33.832-29.244 33.832-29.244z" fill="#92A44B"/><path d="M121.342 151.802a34.215 34.215 0 00-9.203 9.78l-3.118.201 2.314 1.133a41.644 41.644 0 00-3.267 7.318l-3.065-.718 2.629 2.08a49.414 49.414 0 00-1.033 3.991l-2.81.523 2.555.717a57.652 57.652 0 00-.717 16.916c-19.86-37.058 15.715-41.941 15.715-41.941z" fill="#5E8845"/><path d="M110.611 215.864H94.56l-5.024-26.098h26.098l-5.023 26.098z" fill="#FDA859"/><path d="M104.815 189.793H89.536l5.037 26.071h2.999a23.301 23.301 0 01-.443-7.646c.59-7.385 4.769-14.401 7.686-18.425z" fill="url(#paint1_radial)" opacity=".32"/><path fill="#FDA859" d="M87.832 187.888h28.909v3.407H87.832z"/><path d="M367.078 149.066c-13.415-6.379-27.856 12.932-45.818 5.466-.492-7.843-.977-15.686-1.455-23.529 15.473 5.775 30.015-7.559 45.811-6.037.489 7.814.972 16.259 1.462 24.1z" fill="#92A44B"/><path clip-rule="evenodd" d="M364.207 145.873c-14.427-3.427-25.393 12.134-40.129 7.029-.47-7.418-.671-11.134-1.174-18.592 15.031 2.113 25.273-6.117 40.13-7.043.436 7.418.67 11.141 1.173 18.606z" stroke="#fff" stroke-width="1.04"/><path clip-rule="evenodd" d="M350.35 137.898c.242 3.676-2.596 7.774-6.338 9.504-3.743 1.731-6.976 0-7.217-3.675-.242-3.676 2.595-7.801 6.338-9.531 3.743-1.731 6.989.033 7.217 3.702z" stroke="#fff" stroke-width="1.04"/><path d="M340.276 145.692l.583-1.596c.91.1 1.83-.063 2.65-.47 1.106-.51 1.549-1.019 1.516-1.529-.094-1.388-4.629 2.012-4.816-.872-.094-1.382 1.12-2.844 3.139-3.776a5.966 5.966 0 012.837-.671l-.584 1.603a4.03 4.03 0 00-2.186.436c-1.067.49-1.543 1.067-1.509 1.543.094 1.469 4.628-1.952 4.815.905.094 1.342-1.133 2.817-3.232 3.79a5.707 5.707 0 01-3.213.637z" fill="#fff"/><path d="M343.817 145.96l-.671.302a2064.36 2064.36 0 00-.67-9.987l.67-.302c.269 3.998.409 5.997.671 9.987zm1.026-.436l-.67.296c-.262-3.991-.396-5.99-.671-9.988l.671-.295c.275 3.951.409 5.963.67 9.987z" fill="#fff"/><path d="M301.393 191.402c-3.481-11.617-23.026-9.799-28.311-24.743 4.471-4.583 8.943-9.16 13.414-13.73 4.957 12.523 20.961 14.045 28.681 24.422-4.454 4.581-9.324 9.477-13.784 14.051z" fill="#92A44B"/><path clip-rule="evenodd" d="M301.742 187.908c-5.802-10.604-21.209-8.753-26.159-20.457l10.611-10.86c6.929 10.256 17.5 11.966 26.159 20.451l-10.611 10.866z" stroke="#fff" stroke-width=".85"/><path clip-rule="evenodd" d="M299.025 175.184c-2.092 2.153-6.123 2.683-9.215 1.342-3.092-1.342-3.803-4.226-1.711-6.379 2.093-2.153 6.137-2.683 9.223-1.342 3.085 1.342 3.789 4.219 1.703 6.379z" stroke="#fff" stroke-width=".85"/><path d="M288.804 173.34l1.288-.517a3.911 3.911 0 001.73 1.342c.912.389 1.462.382 1.751.087.791-.818-3.756-1.69-2.1-3.401.785-.805 2.334-.872 4.025-.161a4.948 4.948 0 011.951 1.342l-1.287.516a3.297 3.297 0 00-1.456-1.08c-.879-.375-1.489-.355-1.757-.073-.839.865 3.702 1.737 2.079 3.414-.778.798-2.327.845-4.065.107a4.7 4.7 0 01-2.159-1.576z" fill="#fff"/><path d="M290.574 175.634l-.53-.229c2.274-2.34 3.414-3.507 5.682-5.848l.536.221-5.688 5.856zm.852.362l-.536-.228c2.273-2.341 3.414-3.508 5.687-5.856l.53.228-5.681 5.856z" fill="#fff"/><path d="M265.985 205.481c-7.009-6.291-19.223 2.817-28.774-4.95l3.354-14.528c8.343 6.292 19.572.832 28.881 4.588-1.113 4.843-2.341 10.047-3.461 14.89z" fill="#92A44B"/><path clip-rule="evenodd" d="M264.798 203.026c-8.129-4.695-17.593 2.777-25.602-2.978l2.643-11.489c8.719 4.024 16.426.851 25.602 2.971l-2.643 11.496z" stroke="#fff" stroke-width=".66"/><path clip-rule="evenodd" d="M257.856 195.695c-.516 2.267-2.978 4.246-5.56 4.621-2.583.376-4.226-1.267-3.709-3.534.516-2.267 2.978-4.259 5.56-4.635 2.582-.376 4.219 1.281 3.709 3.548z" stroke="#fff" stroke-width=".66"/><path d="M250.337 198.599l.671-.858c.533.225 1.12.293 1.69.194.765-.114 1.127-.342 1.194-.67.195-.866-3.172.395-2.763-1.402.194-.859 1.194-1.523 2.582-1.724a3.834 3.834 0 011.845.114l-.678.906a2.533 2.533 0 00-1.402-.128c-.731.107-1.126.369-1.193.671-.208.905 3.159-.349 2.763 1.415-.195.845-1.201 1.503-2.649 1.717a3.592 3.592 0 01-2.06-.235z" fill="#fff"/><path d="M252.437 199.404l-.443.067c.564-2.468.839-3.702 1.402-6.177l.443-.06c-.564 2.468-.839 3.702-1.402 6.17zm.711-.1l-.443.067c.557-2.475.838-3.709 1.395-6.178l.443-.067c-.557 2.475-.839 3.709-1.395 6.178z" fill="#fff"/><defs><radialGradient id="paint1_radial" cx="0" cy="0" r="1" gradientUnits="userSpaceOnUse" gradientTransform="matrix(10.6915 0 0 18.2431 97.176 202.818)"><stop offset=".57" stop-color="#140F10"/><stop offset=".8" stop-color="#140F10"/><stop offset="1" stop-color="#140F10"/></radialGradient><linearGradient id="paint0_linear" x1="184.773" y1="100.286" x2="184.773" y2="154.693" gradientUnits="userSpaceOnUse"><stop stop-color="#724AC8"/><stop offset="1" stop-color="#724AC8"/></linearGradient></defs></svg>