<svg width="280" height="243" fill="none" xmlns="http://www.w3.org/2000/svg"><path d="M26.45 145.682s4.796-1.599 7.098 9.496c2.303 11.096 2.665 17.198 2.665 17.198s.757 2.393 2.515 1.444c1.76-.948 4.712-4.204 6.928-2.872 2.218 1.332 2.335 4.354.757 8.271-1.577 3.917-4.753 12.641-5.03 13.409-.278.767-.145 2.062 1.161 1.599 1.306-.464 9.545-5.767 11.831-1.706 2.287 4.061-3.89 14.256-4.546 15.381-.655 1.124-.532 1.71-.063 2.169.468.458 3.096-1.599 5.505-3.001 2.408-1.401 5.44-2.638 6.565-.181s-.607 10.893-12.182 22.207l-5.708 4.898-7.157-2.393c-15.019-6.049-19.836-13.19-19.719-15.887.117-2.696 3.379-2.728 6.14-2.334 2.76.395 5.952 1.29 6.235.677.282-.613.149-1.188-.89-1.982-1.04-.795-10.659-7.856-10.067-12.482.591-4.626 10.21-2.862 11.585-2.936 1.375-.075 1.013-1.322.464-1.93-.549-.607-6.779-7.461-9.731-10.498-2.953-3.038-4.024-5.793-2.452-7.936 1.573-2.142 5.49-.181 7.461.027 1.972.208 1.775-2.297 1.775-2.297s-2.01-5.793-4.109-16.905c-2.1-11.111 3.07-11.474 3.07-11.474" fill="#FDECD6"/><path d="M43.988 232.422a3452.938 3452.938 0 00-6.395-31.832 4516.548 4516.548 0 01-6.443-31.806c-.8-4.066-1.455-7.36-1.903-9.651-.224-1.13-.4-2.015-.533-2.622-.064-.293-.106-.533-.144-.682a4.654 4.654 0 01-.053-.235s0 .085.027.24c.026.155.069.389.117.682.112.613.272 1.503.474 2.633.416 2.286 1.04 5.59 1.828 9.667 1.567 8.159 3.837 19.41 6.395 31.827a4587.37 4587.37 0 016.454 31.816" fill="#F3BD9D"/><path d="M41.67 175.664c-.122.134-.23.281-.32.437-.192.294-.458.725-.783 1.258-.65 1.066-1.503 2.569-2.414 4.237l-2.313 4.29-.693 1.3a2.538 2.538 0 00-.24.485c.129-.129.239-.276.325-.437.192-.287.464-.719.778-1.257.64-1.066 1.471-2.585 2.383-4.264l2.344-4.263c.283-.507.533-.938.715-1.295.092-.154.166-.319.218-.491zm-7.477 11.933c.038-.059-2.979-1.956-6.725-4.264-3.747-2.307-6.827-4.082-6.865-4.023-.037.058 2.974 1.961 6.726 4.263 3.752 2.302 6.827 4.109 6.864 4.024zm4.765 18.919a2.227 2.227 0 00-.533-.176l-1.455-.394a139.44 139.44 0 01-4.797-1.391 98.01 98.01 0 01-4.706-1.599l-1.38-.496a2.477 2.477 0 00-.533-.16c.155.104.321.188.496.251.325.149.8.352 1.39.586a78.954 78.954 0 004.701 1.668c1.86.602 3.566 1.023 4.797 1.317.623.144 1.124.25 1.476.314.177.048.36.075.544.08zm9.15-9.326c-.146.091-.28.2-.4.325-.245.224-.591.533-1.018.954-.852.815-2.014 1.95-3.288 3.197s-2.393 2.452-3.24 3.288a65.05 65.05 0 00-.96 1.013 1.919 1.919 0 00-.325.394c.147-.09.281-.2.4-.325.24-.218.592-.533 1.013-.954.852-.81 2.02-1.95 3.293-3.197 1.274-1.247 2.414-2.425 3.235-3.272.41-.421.736-.768.96-1.013.126-.123.237-.26.33-.41zm6.326 16.148c-.192.12-.371.261-.533.421l-1.306 1.215a558.594 558.594 0 00-4.263 4.093 285.798 285.798 0 00-4.194 4.14l-1.253 1.28a3.51 3.51 0 00-.437.49c.192-.122.37-.263.533-.421l1.311-1.221c1.066-1.034 2.596-2.478 4.264-4.087 1.668-1.61 3.112-3.07 4.178-4.141l1.252-1.279a3.71 3.71 0 00.448-.49zM42.699 224.62a3.7 3.7 0 00-.661-.24l-1.828-.544a200.589 200.589 0 01-6-1.956c-2.33-.804-4.419-1.598-5.932-2.131l-1.791-.709a3.903 3.903 0 00-.666-.219c.2.124.41.23.629.315.41.186 1.012.442 1.764.751a105.88 105.88 0 005.915 2.228c2.34.805 4.472 1.45 6.028 1.881a57.33 57.33 0 001.854.491c.225.064.455.108.688.133z" fill="#F3BD9D"/><path fill="#E0E0E0" d="M194.867 17.937h49.899v72.325h-49.899z"/><path fill="#F5F5F5" d="M192.368 17.937h49.899v72.325h-49.899z"/><path fill="#fff" d="M198.571 25.771h37.497v56.656h-37.497z"/><path d="M236.063 82.428v-4.189c0-2.718 0-6.673-.032-11.672 0-9.992-.037-24.136-.064-40.796l.128.123h-37.497l.133-.133v56.656l-.107-.107 27.292.054 7.541.026h2.665-2.622l-7.515.027-27.361.059h-.112v-.107c0-15.578 0-35.286-.026-56.656v-.139h37.758v.128c-.026 16.692-.048 30.868-.058 40.876 0 4.988-.027 8.938-.038 11.645v3.874c0 .187-.085.33-.085.33z" fill="#E0E0E0"/><path d="M242.405 17.937a8.257 8.257 0 01-.89 1.29 73.523 73.523 0 01-2.339 2.968 111.42 111.42 0 01-2.468 2.868 8.616 8.616 0 01-1.098 1.124c.284-.441.603-.858.954-1.247l2.404-2.915 2.398-2.915c.312-.42.66-.812 1.039-1.173z" fill="#E0E0E0"/><path d="M236.26 82.246a46.498 46.498 0 006.539 8.176z" fill="#fff"/><path d="M242.799 90.422a7.079 7.079 0 01-1.14-1.034 35.531 35.531 0 01-2.468-2.782c-.775-.97-1.5-1.979-2.174-3.022a7.311 7.311 0 01-.757-1.338c.336.388.642.8.917 1.232a57.247 57.247 0 002.228 2.957c.9 1.13 1.764 2.132 2.392 2.82.362.364.696.754 1.002 1.167z" fill="#E0E0E0"/><path d="M192.363 90.203l6.534-8.063z" fill="#fff"/><path d="M198.897 82.14a48.114 48.114 0 01-3.161 4.114 49.99 49.99 0 01-3.373 3.95 49.957 49.957 0 013.16-4.12 50.338 50.338 0 013.374-3.944zm-6.534-64.203a45.096 45.096 0 013.197 3.79 45.471 45.471 0 012.958 3.964 45.28 45.28 0 01-3.171-3.794 45.437 45.437 0 01-2.984-3.96zM88.131 6.383v39.853H30.894L28.837 6.66l59.294-.277z" fill="#E0E0E0"/><path d="M28.837 46.145V6.66h57.237v39.486H28.837z" fill="#fff"/><path fill-rule="evenodd" clip-rule="evenodd" d="M28.565 46.417h57.776V6.4H28.565v40.018zm57.21-.533h-56.67V6.932h56.672v38.952z" fill="#E0E0E0"/><path d="M86.026 46.156l-6.395-5.175z" fill="#fff"/><path d="M79.642 40.981a30.638 30.638 0 013.282 2.478 30.056 30.056 0 013.102 2.697 30.035 30.035 0 01-3.283-2.478 30.814 30.814 0 01-3.101-2.697z" fill="#E0E0E0"/><path d="M222.052 138.695a20.109 20.109 0 11-21.072-33.329 20.108 20.108 0 0121.802 4.955c7.625 8.041 7.298 20.736-.73 28.374z" fill="#EBEBEB"/><path d="M218.764 135.225a15.327 15.327 0 11.533-21.642c5.828 6.124 5.589 15.812-.533 21.642z" fill="#F5F5F5"/><path fill-rule="evenodd" clip-rule="evenodd" d="M210.756 132.73c1.465-1.281 1.803-2.876 1.293-4.338 1.265.416 2.614.107 3.55-.813 1.442-1.255 1.761-3.024.778-4.991l1.776-1.546-1.437-1.814-1.651 1.442-.814-1.024 1.653-1.437-1.438-1.813-1.651 1.442-1.304-1.64-.91-1.141-1.653 1.437.905 1.143-7.975 6.963-1.002-1.26-1.655 1.432 1.004 1.264 1.309 1.639-1.923 1.681 1.438 1.813 1.96-1.654.812 1.019-1.923 1.682 1.437 1.813 1.986-1.734c1.861 1.765 3.766 1.889 5.435.435zm.938-12.801l1.937 2.437c1.082 1.359 1.173 2.564.123 3.461-1.05.896-2.156.58-3.236-.774l-2.197-2.764 3.103-2.712.27.352zm-8.082 6.849l2.351 2.947c1.177 1.47 2.307 1.854 3.434.871 1.127-.983.993-2.219-.179-3.691l-2.52-3.172-3.247 2.841.161.204z" fill="#E0E0E0"/><path fill-rule="evenodd" clip-rule="evenodd" d="M210.085 131.919c1.462-1.274 1.8-2.87 1.29-4.331 1.267.415 2.617.106 3.555-.815 1.437-1.253 1.761-3.024.773-4.99l1.781-1.548-1.437-1.813-1.652 1.442-.813-1.024 1.651-1.442-1.438-1.813-1.651 1.442-1.309-1.638-.905-1.143-1.653 1.437.91 1.141-7.97 6.99-1.005-1.264-1.653 1.437 1.005 1.264 1.304 1.64-1.919 1.679 1.438 1.814 1.93-1.707.812 1.018-1.918 1.68 1.437 1.813 1.981-1.731c1.884 1.797 3.789 1.921 5.456.462zm.937-12.79l1.942 2.436c1.077 1.361 1.168 2.566.118 3.462-1.05.897-2.154.585-3.229-.77l-2.202-2.762 3.103-2.712.268.346zm-8.06 6.836l2.332 2.954c1.172 1.472 2.326 1.846 3.453.864 1.127-.983.988-2.218-.184-3.689l-2.515-3.174-3.249 2.836.163.209z" fill="#EBEBEB"/><path d="M219.111 134.89c-.069-.064.373-.576 1.066-1.562a16.106 16.106 0 002.195-4.514c.331-1.104.54-2.24.624-3.389a15.097 15.097 0 00-.256-3.912 13.903 13.903 0 00-.533-2.057 14.831 14.831 0 00-2.089-3.992 16.202 16.202 0 00-1.54-1.79 16.796 16.796 0 00-1.807-1.53 15.312 15.312 0 00-1.961-1.194 14.403 14.403 0 00-2.046-.852 14.011 14.011 0 00-2.063-.533 15.295 15.295 0 00-3.933-.203 15.727 15.727 0 00-3.384.656 16.273 16.273 0 00-4.493 2.238c-.98.687-1.481 1.135-1.551 1.066-.069-.069.347-.608 1.269-1.434a14.25 14.25 0 014.508-2.664 15.418 15.418 0 013.555-.843 15.627 15.627 0 018.65 1.535c.743.366 1.456.79 2.131 1.269a17.672 17.672 0 011.956 1.646 16.793 16.793 0 011.658 1.935 15.792 15.792 0 012.206 4.338c.236.726.414 1.469.533 2.222.237 1.391.285 2.807.144 4.211a15.579 15.579 0 01-.805 3.56 14.338 14.338 0 01-2.622 4.535c-.81.906-1.364 1.306-1.412 1.258z" fill="#E0E0E0"/><path d="M143.263 162.549a21.115 21.115 0 11-26.844-12.993c11.001-3.825 23.019 1.992 26.844 12.993z" fill="#EBEBEB"/><path d="M138.536 164.185a16.09 16.09 0 11-20.459-9.902c8.384-2.911 17.541 1.521 20.459 9.902z" fill="#F5F5F5"/><path fill-rule="evenodd" clip-rule="evenodd" d="M130.312 174.048c.299-1.923-.467-3.363-1.797-4.154 1.237-.495 2.071-1.598 2.197-2.905.298-1.888-.595-3.448-2.613-4.324l.367-2.326-2.267-.465-.338 2.166-1.281-.261.343-2.164-2.267-.464-.338 2.165-2.053-.418-1.431-.288-.342 2.163 1.428.293-1.634 10.46-1.578-.32-.347 2.16 1.582.323 2.056.414-.393 2.524 2.267.465.439-2.527 1.276.259-.392 2.524 2.267.465.407-2.604c2.56.155 4.099-.975 4.442-3.161zm-7.509-10.409l3.05.622c1.703.345 2.547 1.21 2.319 2.572-.229 1.361-1.279 1.829-2.976 1.487l-3.46-.705.634-4.073.433.097zm-1.789 10.442l3.696.746c1.846.37 2.958-.063 3.19-1.54.232-1.478-.666-2.338-2.51-2.712l-3.969-.811-.661 4.264.254.053z" fill="#E0E0E0"/><path fill-rule="evenodd" clip-rule="evenodd" d="M129.277 173.858c.301-1.916-.465-3.356-1.795-4.148 1.237-.496 2.073-1.601 2.199-2.909.295-1.883-.595-3.448-2.615-4.319l.37-2.331-2.267-.464-.338 2.166-1.281-.262.337-2.166-2.267-.465-.337 2.166-2.056-.414-1.428-.293-.343 2.163 1.431.289-1.613 10.479-1.582-.324-.342 2.164 1.582.323 2.053.418-.39 2.519 2.267.465.381-2.548 1.277.259-.39 2.519 2.267.465.404-2.599c2.598.165 4.138-.964 4.476-3.153zm-7.503-10.4l3.054.618c1.699.35 2.544 1.215 2.315 2.576-.228 1.362-1.273 1.833-2.968 1.486l-3.462-.701.634-4.072.427.093zm-1.78 10.417l3.685.764c1.844.374 2.969-.08 3.2-1.558.232-1.477-.668-2.333-2.512-2.707l-3.966-.815-.666 4.261.259.055z" fill="#EBEBEB"/><path d="M138.35 163.711c-.091.037-.389-.608-1.034-1.69a17.243 17.243 0 00-3.368-4.05 16.594 16.594 0 00-2.974-2.068 16.06 16.06 0 00-3.859-1.471 14.696 14.696 0 00-2.206-.367 15.622 15.622 0 00-4.716.266c-.81.176-1.606.41-2.383.698-.772.302-1.522.658-2.243 1.066-.7.399-1.367.854-1.994 1.359a14.65 14.65 0 00-1.705 1.599 15.15 15.15 0 00-1.396 1.748 15.942 15.942 0 00-1.897 3.672 16.68 16.68 0 00-.837 3.517 17.043 17.043 0 00.192 5.266c.24 1.236.447 1.913.357 1.95-.091.037-.432-.597-.821-1.833a14.931 14.931 0 01-.597-5.495 16.05 16.05 0 012.665-7.743c.439-.672.931-1.308 1.471-1.903a15.531 15.531 0 011.812-1.732 16.05 16.05 0 012.131-1.481 17.044 17.044 0 012.415-1.157 17.437 17.437 0 012.574-.751 16.57 16.57 0 015.089-.24c.797.086 1.586.232 2.361.437 1.431.379 2.805.945 4.088 1.684a16.51 16.51 0 013.059 2.318 14.864 14.864 0 013.197 4.466c.544 1.205.688 1.908.619 1.935z" fill="#E0E0E0"/><path d="M63.051 110.396a17.72 17.72 0 11-17.938-17.454c9.772-.13 17.801 7.682 17.938 17.454z" fill="#EBEBEB"/><path d="M58.836 110.449a13.504 13.504 0 11-13.67-13.323 13.484 13.484 0 0113.67 13.323z" fill="#F5F5F5"/><path fill-rule="evenodd" clip-rule="evenodd" d="M52.148 111.385c-.561-1.555-1.665-2.296-2.9-2.313a3.155 3.155 0 00.358-3.098c-.547-1.529-1.787-2.305-3.53-2.09L45.4 102l-1.752.627.63 1.752-.99.355-.626-1.753-1.753.627.631 1.753-1.586.569-1.104.399.627 1.752 1.104-.394 3.045 8.465-1.218.438.622 1.753 1.222-.438 1.587-.574.736 2.041 1.752-.626-.705-2.064.986-.355.736 2.042 1.752-.626-.758-2.108c1.832-.981 2.445-2.48 1.81-4.25zm-9.346-4.508l2.357-.846c1.315-.473 2.244-.193 2.63.916.385 1.108-.154 1.906-1.464 2.379l-2.673.959-1.187-3.295.337-.113zm2.931 8.517l2.853-1.03c1.424-.517 2.02-1.314 1.59-2.51-.43-1.196-1.393-1.45-2.817-.938l-3.067 1.1 1.244 3.448.197-.07z" fill="#E0E0E0"/><path fill-rule="evenodd" clip-rule="evenodd" d="M51.298 111.687c-.557-1.551-1.66-2.291-2.897-2.309a3.163 3.163 0 00.36-3.102c-.548-1.524-1.788-2.304-3.532-2.085l-.674-1.889-1.753.627.631 1.752-.99.355-.631-1.752-1.753.626.631 1.753-1.586.574-1.104.394.627 1.753 1.104-.399 3.067 8.469-1.223.439.627 1.752 1.222-.438 1.586-.57.736 2.038 1.753-.627-.754-2.055.986-.355.736 2.038 1.753-.627-.758-2.103c1.862-.99 2.475-2.489 1.836-4.259zm-9.337-4.504l2.357-.85c1.315-.469 2.243-.188 2.629.92.386 1.109-.15 1.906-1.46 2.375l-2.672.964-1.187-3.295.333-.114zm2.927 8.496l2.852-1.012c1.424-.513 2.02-1.332 1.59-2.528-.429-1.196-1.393-1.446-2.817-.934l-3.067 1.096 1.24 3.448.202-.07z" fill="#EBEBEB"/><path d="M58.83 110.028c-.085 0-.149-.586-.378-1.599a14.307 14.307 0 00-1.599-4.119 13.393 13.393 0 00-4.514-4.647 12.608 12.608 0 00-1.662-.88 12.093 12.093 0 00-1.839-.65 12.725 12.725 0 00-1.988-.383 14.22 14.22 0 00-2.084-.075c-.694.036-1.385.121-2.067.256-.661.129-1.311.307-1.946.533-.614.223-1.21.495-1.78.815a12.45 12.45 0 00-1.598 1.018 13.399 13.399 0 00-2.479 2.419c-.626.8-1.163 1.667-1.598 2.585a14.389 14.389 0 00-1.242 4.264c-.139 1.065-.15 1.646-.235 1.646-.085 0-.186-.586-.165-1.678.04-1.551.37-3.08.97-4.509a13.786 13.786 0 014.184-5.468 13.741 13.741 0 015.676-2.638 15.322 15.322 0 012.232-.282c.75-.026 1.5.003 2.244.085.72.088 1.433.233 2.132.432.678.188 1.34.432 1.977.73a12.92 12.92 0 011.764.97 13.872 13.872 0 012.809 2.424 13.615 13.615 0 011.822 2.665 12.412 12.412 0 011.364 4.408c.134 1.076.06 1.678 0 1.678z" fill="#E0E0E0"/><path d="M146.983 34.048a15.644 15.644 0 001.972-7.626 15.457 15.457 0 00-15.37-15.546 15.195 15.195 0 00-4.108.56 15.599 15.599 0 010 29.977 15.22 15.22 0 0012.257-1.801l7.227 2.792-1.978-8.356z" fill="#EBEBEB"/><circle cx="260.652" cy="68.064" r="1.192" stroke="#92A44B" stroke-width="1.03"/><circle cx="265.34" cy="90.62" r=".968" stroke="#92A44B" stroke-width="1.03"/><circle cx="183.368" cy="14.852" r="1.192" stroke="#92A44B" stroke-width="1.03"/><circle cx="178.304" cy="2.192" r="1.192" stroke="#92A44B" stroke-width="1.03"/><circle cx="277.648" cy="52.044" r="1.72" stroke="#92A44B" stroke-width="1.03"/><path clip-rule="evenodd" d="M264.104 138.796a1.396 1.396 0 11-2.792 0 1.396 1.396 0 012.792 0z" stroke="#92A44B" stroke-width="1.03"/><circle cx="12.776" cy="77.472" r=".672" stroke="#92A44B" stroke-width="1.03"/><path clip-rule="evenodd" d="M17.616 59.304a2 2 0 11-4 0 2 2 0 014 0zM8.232 90.576a1.116 1.116 0 11-2.232 0 1.116 1.116 0 012.232 0z" stroke="#92A44B" stroke-width="1.03"/><path d="M246.919 234.005c0 .074-50.677.138-113.174.138-62.497 0-113.184-.064-113.184-.138 0-.075 50.666-.144 113.184-.144 62.519 0 113.174.064 113.174.144z" fill="#263238"/><path d="M81.56 216.908l.432 13.26 3.368 10.392a1.36 1.36 0 01-.96 1.737c-.426.109-.88.004-1.215-.282-2.131-1.828-9.928-8.586-9.907-9.556 0-1.13-1.39-13.963-1.39-13.963l9.672-1.588z" fill="#E8505B"/><path d="M84.4 242.281l-11.19-10.733.032.533c.026.486.224.947.56 1.3.895.938 3.426 3.486 9.331 8.591.344.299.814.405 1.253.283l.016.026z" fill="#E0E0E0"/><path d="M75.708 227.119a.82.82 0 01.283 1.066.782.782 0 01-1.066.293.863.863 0 01-.299-1.124.82.82 0 011.125-.181" fill="#fff"/><path d="M81.049 236.664c.074.032.335-.682 1.103-1.098a4.193 4.193 0 011.508-.378c0-.032-.16-.123-.474-.149a2.135 2.135 0 00-2.02 1.135c-.144.282-.15.479-.117.49zm1.044 1.721c.366-.237.747-.451 1.14-.639.423-.105.852-.183 1.285-.235a1.487 1.487 0 00-1.386-.037c-.767.272-1.087.879-1.039.911zm-2.931-3.89c.54-.406 1.108-.772 1.7-1.098.632-.238 1.28-.428 1.94-.57a3.732 3.732 0 00-3.64 1.668zm-.469-4.029c.043.075.757-.272 1.705-.357.949-.085 1.722.096 1.743 0a2.62 2.62 0 00-1.77-.309c-.62.02-1.213.255-1.678.666zm-.223-3.89a6.656 6.656 0 011.763-.421 6.474 6.474 0 011.78.346c0-.032-.133-.187-.447-.346a2.892 2.892 0 00-1.338-.288 2.953 2.953 0 00-1.327.341c-.304.176-.453.341-.432.368zm1.7-1.141a1.167 1.167 0 000-.533 3.548 3.548 0 00-.47-1.289 1.6 1.6 0 00-.703-.699.534.534 0 00-.608.155.864.864 0 00-.176.613 1.92 1.92 0 001.78 1.679 2.23 2.23 0 002.132-1.285.778.778 0 000-.645.534.534 0 00-.576-.25 1.885 1.885 0 00-.847.501c-.343.302-.63.663-.847 1.066a1.163 1.163 0 00-.176.469 6.231 6.231 0 011.156-1.391 1.81 1.81 0 01.752-.421.287.287 0 01.314.138c.05.138.04.291-.026.421a1.998 1.998 0 01-1.855 1.098 1.673 1.673 0 01-1.53-1.407.625.625 0 01.107-.432.288.288 0 01.33-.09c.258.126.47.329.608.581a5.17 5.17 0 01.634 1.721z" fill="#263238"/><path d="M107.375 218.859l-.687 9.918s9.854 4.029 9.902 5.862l-19.276-.64.437-15.497 9.624.357z" fill="#E8505B"/><path d="M100.756 227.743a.794.794 0 00-.591.89c.09.393.471.647.869.581a.832.832 0 00.602-.938.784.784 0 00-.965-.501m-3.357 6.235l.106-1.561 18.445 1.199s.842.405.725 1.002l-19.276-.64z" fill="#E0E0E0"/><path d="M107.008 228.691c0 .091-.48.118-.954.405-.474.288-.73.677-.815.635-.086-.043.069-.576.65-.917.581-.341 1.14-.181 1.119-.123zm1.993.901c0 .091-.394.24-.73.629-.336.389-.437.805-.533.794-.096-.011-.133-.533.288-1.013.421-.479.975-.501.975-.41zm1.066 2.457c-.085 0-.203-.453.058-.965.262-.511.704-.698.741-.618.038.08-.24.346-.447.767-.208.421-.256.811-.352.816zm-3.155-5.639c-.043.086-.469-.058-1.002-.037-.533.021-.954.171-1.002.085-.048-.085.362-.405.991-.415.629-.011 1.061.298 1.013.367zm.101-2.003a1.751 1.751 0 01-.986-.038 4.175 4.175 0 01-1.535-.655 1.061 1.061 0 01-.282-.235.405.405 0 01-.027-.501.535.535 0 01.421-.202c.121.003.241.023.357.058.205.06.405.136.597.23.32.157.613.363.869.612.431.432.575.784.533.805-.043.022-.256-.272-.699-.629a3.678 3.678 0 00-.842-.533 3.567 3.567 0 00-.532-.186c-.203-.064-.379-.069-.432 0-.053.069-.027.048 0 .106a1 1 0 00.208.176c.161.11.329.211.501.304.293.16.602.29.922.389.315.08.624.18.927.299z" fill="#263238"/><path d="M106.885 224.54a1.6 1.6 0 01-.224-.943 3.27 3.27 0 01.432-1.631.795.795 0 01.634-.464c.175.01.329.12.394.283.047.114.075.234.086.357.035.215.035.434 0 .65a2.161 2.161 0 01-.443.98c-.394.491-.788.592-.799.533-.011-.058.304-.218.613-.687a2.29 2.29 0 00.336-.895 2.187 2.187 0 000-.56c-.027-.208-.096-.373-.176-.357-.08.016-.261.144-.347.309a2.998 2.998 0 00-.255.533 3.401 3.401 0 00-.219.959c-.069.565.021.922-.032.933zM67.747 120.991l2.846 106.613 15.21-.458 3.623-109.79-21.68 3.635z" fill="#263238"/><path d="M99.355 117.175s11.287 45.193 11.634 52.899c.346 7.706-2.414 55.894-2.414 55.894h-14.89l1.247-54.892-11.288-46.397 2.734-7.264 12.977-.24z" fill="#263238"/><path d="M90.167 122.723a.651.651 0 010 .149v.421c0 .394-.032.933-.058 1.625-.064 1.429-.16 3.465-.272 5.969-.261 5.058-.618 12.013-1.013 19.719-.394 7.706-.81 14.629-1.066 19.686-.149 2.505-.277 4.536-.362 5.969-.048.688-.085 1.231-.112 1.599 0 .171-.027.315-.037.421a.608.608 0 010 .144.588.588 0 010-.144v-.421c0-.394.037-.938.064-1.625.063-1.429.16-3.464.271-5.969.262-5.058.619-12.013 1.008-19.719.389-7.706.81-14.629 1.092-19.686.15-2.505.272-4.536.362-5.964.049-.687.086-1.231.112-1.625 0-.171.027-.309.038-.421a.385.385 0 01-.027-.128z" fill="#455A64"/><path d="M88.494 59.224S94.02 86.638 94.1 94.36c.08 7.722 2.793 22.815 2.793 22.815H72.985l-.532-41.766-1.706-12.455 3.592-5.127 14.155 1.397z" fill="#F5F5F5"/><path d="M88.787 60.028s5.707 1.68 7.215 3.79c1.189 1.668 2.799 33.196 2.799 33.196l2.43 27.777-2.393-.224-3.379-10.398-6.672-54.14z" fill="#E8505B"/><path d="M96.002 63.818l16.116 14.788 19.831-6.427 3.954 8.33-21.163 9.593c-3.021 1.29-4.919.58-7.018-1.103l-11.101-8.89-.619-16.291z" fill="#E8505B"/><path d="M128.261 74.833c.11.214.03.477-.181.592a.432.432 0 01-.586-.181.424.424 0 01.175-.587.443.443 0 01.592.176z" fill="#263238"/><path fill-rule="evenodd" clip-rule="evenodd" d="M127.789 75.63c.05.009.102.009.152 0a.467.467 0 00.237-.038.507.507 0 00.25-.309.521.521 0 00-.341-.65.522.522 0 00-.639.347.554.554 0 00.037.396.512.512 0 00.304.253zm-.073-.953a.504.504 0 01.225-.056v-.006c.178 0 .342.1.426.26a.51.51 0 01.036.377.477.477 0 01-.882.087.494.494 0 01.195-.662z" fill="#263238"/><path d="M129.924 74.439a.442.442 0 01-.181.592.432.432 0 01-.586-.182.425.425 0 01.175-.586.432.432 0 01.592.176z" fill="#263238"/><path fill-rule="evenodd" clip-rule="evenodd" d="M129.449 75.233c.049.01.1.01.15 0a.53.53 0 00.235-.037.516.516 0 00.232-.265.49.49 0 00.03-.334.482.482 0 00-.257-.316.502.502 0 00-.481-.005.531.531 0 00-.211.704.51.51 0 00.302.253zm.148-1.012a.495.495 0 00-.414.722c.059.115.161.2.284.235a.468.468 0 00.614-.29.526.526 0 00-.036-.395.513.513 0 00-.206-.212.48.48 0 00-.101-.035.503.503 0 00-.141-.025zm0 0h.002-.006.004z" fill="#263238"/><path d="M131.501 74.12a.43.43 0 01-.175.59.443.443 0 01-.592-.18.433.433 0 01.181-.587.428.428 0 01.586.176z" fill="#263238"/><path fill-rule="evenodd" clip-rule="evenodd" d="M130.963 73.962a.504.504 0 01.226-.056h-.006a.484.484 0 01.44.265.51.51 0 00-.679-.178.476.476 0 00-.134.1.477.477 0 01.153-.131zm-.153.132a.493.493 0 00-.117.203.524.524 0 00.343.621c.051.01.103.01.153 0a.543.543 0 00.239-.006.531.531 0 00.195-.74.494.494 0 01-.201.653.49.49 0 01-.374.038.458.458 0 01-.281-.236.494.494 0 01.043-.533z" fill="#263238"/><path d="M132.146 72.6l1.535-.565 3.523 7.419-1.498.64-3.56-7.494z" fill="#E0E0E0"/><path d="M96.52 69.664c.053.272.084.548.09.826.059.586.139 1.343.235 2.26.218 1.955.532 4.561.842 7.46.309 2.9.58 5.548.698 7.462.064.959.09 1.737.096 2.275.02.278.01.556-.027.832a4.891 4.891 0 01-.08-.826 90.89 90.89 0 00-.186-2.265 374.352 374.352 0 00-.779-7.461c-.325-2.916-.602-5.543-.762-7.462a54.288 54.288 0 01-.144-2.275 4.177 4.177 0 01.016-.826z" fill="#263238"/><path d="M100.042 73.362a30.98 30.98 0 01-1.012 3.976 31.269 31.269 0 01-1.274 3.896 30.385 30.385 0 011.007-3.976 30.39 30.39 0 011.279-3.896zM111.948 83.6a1.689 1.689 0 01-.357-.703 5.096 5.096 0 01.235-3.73 1.77 1.77 0 01.442-.657 10.06 10.06 0 00-.64 2.527 9.985 9.985 0 00.32 2.563z" fill="#263238"/><path d="M110.104 100.734l2.062.16-.815 8.607-1.993-.23.746-8.537z" fill="#E0E0E0"/><path d="M74.339 58.424l-11.123 7.094a7.216 7.216 0 00-2.664 8.19l8.527 26.802-3.075 24.355 24.376-1.034-.597-10.658-2.068-19.1A37.836 37.836 0 0085.1 83.764l-10.76-25.34z" fill="#E8505B"/><path d="M62.72 75.174l11.123 23.279a6.883 6.883 0 004.626 3.73l30.868 7.312.788-8.985-23.56-8.841-11.853-22.746a6.768 6.768 0 00-9.497-2.665 6.763 6.763 0 00-2.494 8.916z" fill="#E8505B"/><path d="M110.125 100.51a.438.438 0 01-.128-.032l-.362-.122-1.396-.501-5.17-1.903-17.421-6.513H85.6v-.053l-2.052-4.06a305.428 305.428 0 00-5.655-10.505 345.35 345.35 0 00-2.59-4.514l-1.194-2.036c-.191-.33-.383-.645-.586-.938-.19-.294-.4-.575-.629-.842a7.408 7.408 0 00-2.963-2.131 6.69 6.69 0 00-2.734-.49 4.845 4.845 0 00-2.291.612.63.63 0 01.128-.09c.128-.09.266-.167.41-.23a4.879 4.879 0 011.748-.4 6.768 6.768 0 012.793.448 7.578 7.578 0 013.059 2.17c.235.269.452.554.65.852.213.304.41.618.597.949l1.21 2.025a797.016 797.016 0 012.616 4.509 317.32 317.32 0 015.681 10.498c.71 1.391 1.402 2.761 2.047 4.072l-.075-.07 17.39 6.598 5.137 1.978 1.381.533.357.143.09.043zm-5.244 5.601a.436.436 0 11-.872.002.436.436 0 01.872-.002z" fill="#263238"/><path fill-rule="evenodd" clip-rule="evenodd" d="M103.98 106.175a.512.512 0 101.023 0 .512.512 0 00-1.023 0zm.068-.184a.48.48 0 11.889.367.48.48 0 01-.889-.367z" fill="#263238"/><path d="M106.56 106.548a.437.437 0 11-.874 0 .437.437 0 01.874 0z" fill="#263238"/><path fill-rule="evenodd" clip-rule="evenodd" d="M105.649 106.612c0 .283.229.512.511.512a.518.518 0 00.512-.512.511.511 0 00-1.023 0zm.03 0a.481.481 0 11.962 0 .481.481 0 01-.962 0z" fill="#263238"/><circle cx="107.642" cy="107.012" r=".437" fill="#263238"/><path fill-rule="evenodd" clip-rule="evenodd" d="M107.178 107.076a.511.511 0 101.023-.001.511.511 0 00-1.023.001zm.067-.184a.482.482 0 11.89.37.482.482 0 01-.89-.37z" fill="#263238"/><path d="M109.337 109.495a.466.466 0 01-.149 0l-.432-.096-1.663-.399-6.107-1.503c-5.154-1.263-12.258-3.054-20.156-4.882-.986-.234-1.961-.421-2.926-.682a6.53 6.53 0 01-2.638-1.316 7.74 7.74 0 01-1.599-2.345l-1.161-2.43-4.013-8.437-2.665-5.692a118.38 118.38 0 00-.709-1.55l-.18-.41a.751.751 0 01-.054-.14s.032.043.08.129c.048.085.117.234.202.394l.762 1.535c.656 1.353 1.6 3.277 2.75 5.649 1.151 2.372 2.521 5.244 4.045 8.404.379.79.773 1.6 1.167 2.425a7.67 7.67 0 001.562 2.26 6.208 6.208 0 002.531 1.252c.944.256 1.93.443 2.915.677 7.893 1.833 14.997 3.651 20.14 4.962 2.553.671 4.626 1.209 6.086 1.598l1.647.453.426.123.139.021zm-24.931-1.455s-.117.123-.368.31c-.25.186-.607.442-1.066.751a17.304 17.304 0 01-3.837 1.993 8.828 8.828 0 01-4.295.432 5.835 5.835 0 01-1.269-.368 1.28 1.28 0 01-.42-.229c.562.169 1.136.303 1.715.4a9.334 9.334 0 004.179-.496 20.867 20.867 0 003.82-1.897 12.9 12.9 0 011.541-.896zm1.369 3.091a.802.802 0 01.075.198c.06.195.108.395.144.597a6.701 6.701 0 010 2.264 6.98 6.98 0 01-1.386 3.049 6.838 6.838 0 01-7.525 2.132 6.935 6.935 0 01-2.766-1.892 6.693 6.693 0 01-1.193-1.924 5.68 5.68 0 01-.187-.586c-.032-.134-.048-.208-.037-.208a8.095 8.095 0 001.561 2.584 6.868 6.868 0 002.708 1.78 6.66 6.66 0 007.237-2.019 6.88 6.88 0 001.39-2.926 8.115 8.115 0 00-.02-3.049z" fill="#263238"/><path d="M75.538 37.208l.07 19.857a5.905 5.905 0 006.219 5.863 5.915 5.915 0 005.596-5.9v-2.9s5.052-.49 5.398-5.494c.17-2.42.107-7.429 0-11.964a9.337 9.337 0 00-8.81-9.113h-.484c-5.212-.022-8.144 4.423-7.989 9.651z" fill="#B78876"/><path d="M87.433 54.049a11.677 11.677 0 01-6.422-2.228s1.338 3.693 6.358 3.523l.064-1.295z" fill="#AA6550"/><path d="M91.585 39.606a.72.72 0 01-.736.682.682.682 0 01-.698-.687.72.72 0 01.73-.682.687.687 0 01.704.687zm.138-.847c-.09.09-.613-.341-1.38-.384-.768-.042-1.36.31-1.434.213-.074-.096.059-.207.315-.373a1.99 1.99 0 011.156-.287c.4.02.784.17 1.093.426.229.192.298.368.25.405zm-7.621.789a.714.714 0 01-.73.682.682.682 0 01-.698-.688.714.714 0 01.73-.682.682.682 0 01.698.688zm-.037-.96c-.096.086-.613-.346-1.386-.389-.772-.042-1.353.315-1.433.214-.08-.102.064-.208.32-.373a1.93 1.93 0 011.15-.283c.402.02.786.168 1.099.421.223.197.293.368.25.41zm2.435 6.049a5.121 5.121 0 011.263-.154c.198 0 .39-.038.427-.17a1.006 1.006 0 00-.096-.587c-.16-.49-.325-.997-.496-1.535-.687-2.174-1.172-3.96-1.066-3.986.107-.027.715 1.716 1.402 3.89.16.533.32 1.066.47 1.54.11.244.132.52.058.778a.496.496 0 01-.341.267 1.283 1.283 0 01-.336 0c-.428.041-.86.027-1.284-.043zm-2.126-7.647c-.09.207-.853.064-1.759.122-.906.059-1.657.261-1.764.064-.048-.09.09-.282.395-.469.405-.23.86-.36 1.327-.378a2.94 2.94 0 011.359.24c.325.149.48.325.442.42zm7.264-.064c-.144.165-.666-.048-1.3-.09-.634-.044-1.183.047-1.3-.14-.049-.09.047-.26.293-.415a1.897 1.897 0 012.094.186c.213.192.298.373.213.459z" fill="#263238"/><path d="M75.735 40.939c-.085-.043-3.384-1.215-3.47 2.217-.085 3.432 3.374 2.808 3.385 2.712.01-.096.085-4.93.085-4.93z" fill="#B78876"/><path d="M74.632 44.541s-.058.038-.16.086a.586.586 0 01-.447 0 1.476 1.476 0 01-.65-1.343 1.98 1.98 0 01.186-.853.704.704 0 01.464-.448c.143-.035.29.04.346.176.043.096 0 .165.037.17.038.006.075-.058.054-.197a.404.404 0 00-.134-.218.443.443 0 00-.325-.096.842.842 0 00-.64.533 2.014 2.014 0 00-.228.949 1.546 1.546 0 00.836 1.503c.18.052.374.025.533-.075.123-.107.144-.181.128-.187z" fill="#AA6550"/><path d="M73.838 40.715a1.807 1.807 0 011.599.938c.191.5.213 1.066.404 1.561.153.532.646.894 1.2.88.367-.094.658-.376.762-.741.092-.36.115-.735.069-1.103-.107-1.6-.357-3.198-.325-4.834a8.24 8.24 0 011.3-4.594 4.509 4.509 0 014.136-2.025c1.066.15 2.004.757 3.048.965a4.2 4.2 0 003.544-.96c.053-.045.11-.087.17-.122a.922.922 0 00.39-1.066.906.906 0 00-.181-.341c-1.988-2.057-5.74-2.814-8.527-2.276a10.024 10.024 0 00-6.86 4.877c-1.337 2.53-1.193 6.16-.681 8.825M84.71 45.24c.128 0 .128.825.842 1.417.714.592 1.598.501 1.598.618 0 .117-.197.166-.575.17a2.052 2.052 0 01-1.343-.463 1.812 1.812 0 01-.65-1.188c-.048-.352.048-.56.128-.554z" fill="#263238"/><path d="M132.573 73.442s3.757-3.298 4.466-3.544c.709-.245 6.368-.346 6.747-.064.378.283 6.107 3.422 5.158 3.907-.948.485-4.918-1.79-4.918-1.79l-.667.09s3.464 1.849 4.077 2.558c.613.709.027 1.444-.618 1.14-.645-.303-3.619-2.014-3.853-1.95-.235.064 3.166 2.052 3.48 2.425.421.49.149 1.45-.506 1.172-.384-.16-3.518-2.238-3.518-2.238.888.726 1.735 1.5 2.537 2.318.277.533-.256 1.018-.805.682-.373-.229-1.987-1.817-2.488-2.132 0 0-.533-.042-1.37.832-.837.874-4.04 2.062-4.04 2.062l-3.682-5.468z" fill="#B78876"/><path d="M148.928 73.751a3.017 3.017 0 01-1.215-.074 7.07 7.07 0 01-1.273-.384 69.27 69.27 0 01-1.439-.72l-1.066-.532h.074c-.97.05-1.943.024-2.909-.08.96-.153 1.932-.223 2.904-.208h.069l1.066.533 1.391.73a8.35 8.35 0 001.21.426c.73.214 1.194.262 1.188.31z" fill="#AA6550"/><path d="M133.969 74.396c.316.45.886.645 1.412.485.533-.112.997-.394 1.508-.533 1.54-.442 3.251.379 4.765-.138.213-.075.447-.23.426-.448-.021-.218-.256-.309-.453-.373l-5.052-1.599" fill="#B78876"/><path d="M136.575 71.769c.193.011.383.05.565.117.357.096.869.245 1.503.432l2.217.671.639.197c.203.08.496.096.688.41a.444.444 0 01-.08.491.915.915 0 01-.363.24 3.401 3.401 0 01-.767.17 20.481 20.481 0 01-2.851-.154c-.4-.021-.8.016-1.189.112-.357.096-.687.256-1.002.368-.506.24-1.092.24-1.598 0-.341-.198-.395-.443-.384-.437.125.136.273.25.437.335a1.816 1.816 0 001.481-.106c.331-.154.669-.291 1.013-.41.412-.117.84-.167 1.268-.15.933.1 1.871.144 2.809.133.234-.028.464-.08.687-.154.208-.075.352-.224.288-.32s-.288-.197-.533-.261l-.639-.208-2.196-.735a27.9 27.9 0 01-1.476-.533 2.03 2.03 0 01-.517-.208z" fill="#AA6550"/><path d="M111.239 100.942l6.23-.618s8.24 5.643 7.461 6.885c-.778 1.242-2.131 0-2.131 0s1.465 1.807-.906 2.372c0 0-.565 1.241-1.466 1.129h-.565s-.533 1.573-1.273 1.231c-.741-.341-3.06-2.366-3.06-2.366l-6.395-.565 2.105-8.068z" fill="#B78876"/><path d="M115.113 107.364s-1.598.612-1.923 1.257c-.326.645-.533 2.132.501 2.425.606.039 1.214.02 1.817-.058l-.395-1.679c.298-.345.614-.672.949-.981.341-.282-.032-1.385-.949-.964z" fill="#FFBE9D"/><path d="M116.909 108.216s-1.598.613-1.923 1.253a1.405 1.405 0 00.916 1.993 7.378 7.378 0 001.647-.053l-.171-.326c-.319-.628-.458-1.14.107-1.561.032 0 .352-.32.373-.341a.698.698 0 00-.949-.965z" fill="#FFBE9D"/><path d="M117.293 111.35a.938.938 0 01-.128-1.098 1.52 1.52 0 01.938-.682.698.698 0 01.73.117.63.63 0 01.102.48c-.109.44-.333.843-.651 1.167-.149.186-.33.389-.57.384-.24-.006-.416-.229-.533-.432" fill="#FFBE9D"/><path d="M83.623 61.12l1.396-.532 1.215 2.169-.677 2.318-1.428.352-1.423-1.796.917-2.51zm.506 4.307s1.817 9.971 3.325 16.985c0 0 1.242 5.862 1.743 7.184.56 1.508 2.286 3.73 2.286 3.73l1.754.682-1.066-9.854-6.609-19.079-1.433.352z" fill="#E8505B"/><path d="M83.622 61.12l1.397-.532 1.215 2.169-.677 2.318-1.428.352-1.423-1.796.916-2.51zm.507 4.307s1.817 9.971 3.325 16.985c0 0 1.423 5.787 1.743 7.184.187.826 2.286 3.73 2.286 3.73l1.754.682-1.066-9.854-6.609-19.079-1.433.352z" fill="#000" opacity=".4"/><path d="M75.213 55.061l8.41 6.06-1.818 4.999-7.653-7.877 1.06-3.182zm9.806 5.527l2.35-5.239 1.333 4.322-1.85 4.546-1.833-3.629z" fill="#F5F5F5"/><path d="M83.644 61.116c-.016.13-.048.26-.096.383l-.341 1.066c-.298.89-.735 2.132-1.263 3.613l-.07.203-.148-.16-1.956-2.164a319.12 319.12 0 01-3.87-4.354l-1.15-1.343a3.044 3.044 0 01-.395-.533c.173.133.332.283.474.448l1.215 1.28c1.018 1.065 2.41 2.61 3.928 4.3.688.767 1.343 1.503 1.95 2.174l-.218.043c.533-1.46 1.013-2.702 1.354-3.582l.41-1.017c.041-.127.1-.247.176-.357zm5.057-1.423c-.089.42-.221.831-.394 1.225a90.649 90.649 0 01-1.13 2.884l-.197.485-.139.335-.117-.34a23.192 23.192 0 00-1.679-3.444c.28.252.518.547.704.874.51.774.925 1.606 1.236 2.479h-.26c.063-.16.132-.32.196-.485a115.86 115.86 0 011.205-2.857 5.59 5.59 0 01.575-1.156z" fill="#263238"/><path d="M195.56 217.478l3.241 12.865 5.5 9.439a1.361 1.361 0 01-.571 1.902 1.34 1.34 0 01-1.241 0c-2.473-1.332-11.533-6.283-11.725-7.237-.213-1.103-4.322-13.323-4.322-13.323l9.118-3.646z" fill="#E8505B"/><path d="M203.751 241.684l-13.195-8.116.149.533c.128.469.419.877.821 1.151 1.065.73 4.093 2.664 10.941 6.395a1.37 1.37 0 001.284 0v.037zm-11.713-12.966a.82.82 0 01.506.975.789.789 0 01-.965.507.864.864 0 01-.533-1.034.815.815 0 011.066-.416" fill="#fff" opacity=".6"/><path d="M199.291 236.904c.195-.485.481-.928.842-1.306a4.251 4.251 0 011.396-.687c0-.032-.186-.086-.495-.048a2.186 2.186 0 00-1.738 1.54c-.08.309-.048.501-.005.501zm1.374 1.46c.08.043.374-.49.981-.863.392-.19.794-.359 1.205-.507a1.509 1.509 0 00-1.359.262c-.688.437-.901 1.092-.827 1.108zm-3.682-3.187a6.957 6.957 0 013.198-2.398 3.73 3.73 0 00-3.198 2.398zm-1.316-3.826c.059.064.682-.427 1.599-.709.916-.283 1.7-.272 1.705-.357a2.606 2.606 0 00-1.796.074 2.663 2.663 0 00-1.508.992zm-1.045-3.752a6.42 6.42 0 011.636-.784 6.707 6.707 0 011.812-.048c0-.031-.17-.149-.533-.239a2.933 2.933 0 00-1.369 0 2.907 2.907 0 00-1.221.618c-.245.234-.351.421-.325.453zm1.412-1.492c0-.17-.038-.338-.112-.491a3.508 3.508 0 00-.735-1.161 1.565 1.565 0 00-.837-.533.532.532 0 00-.559.282.856.856 0 00-.043.629 1.918 1.918 0 002.094 1.268 2.239 2.239 0 001.802-1.71.785.785 0 00-.139-.629.533.533 0 00-.613-.123 1.9 1.9 0 00-.724.672 3.836 3.836 0 00-.597 1.236c-.06.158-.085.327-.075.496.199-.571.481-1.11.837-1.599a1.77 1.77 0 01.645-.57.285.285 0 01.335.069.53.53 0 01.064.416 1.991 1.991 0 01-1.599 1.465 1.668 1.668 0 01-1.796-1.066.658.658 0 010-.442.295.295 0 01.31-.16c.276.07.525.223.714.437.43.439.779.952 1.028 1.514z" fill="#263238"/><path d="M155.393 219.877l.688 9.918s-9.849 4.029-9.902 5.862l19.276-.629-.432-15.498-9.63.347z" fill="#E8505B"/><path d="M162.012 228.761a.79.79 0 01.576.884.763.763 0 01-.869.587.831.831 0 01-.602-.938.788.788 0 01.97-.501m3.368 6.235l-.101-1.562-18.445 1.2s-.848.405-.73 1.007l19.276-.645z" fill="#E0E0E0"/><path d="M155.766 229.699c0 .09.48.122.949.405.469.282.735.676.821.639.085-.037-.075-.581-.651-.922-.575-.341-1.14-.197-1.119-.122zm-1.993.911c0 .096.394.24.725.629.33.389.442.805.533.799.09-.005.138-.533-.288-1.018s-.97-.495-.97-.41zm-1.071 2.462c.09 0 .202-.458-.054-.965-.255-.506-.708-.698-.746-.618-.037.08.245.347.453.762.208.416.256.81.347.821zm3.16-5.638c.042.08.469-.064 1.002-.043.533.021.954.171.996.091.043-.08-.362-.405-.991-.421-.629-.016-1.06.298-1.007.373zm-.101-1.999c.319.071.651.058.964-.037a4.35 4.35 0 00.997-.347c.185-.091.363-.196.533-.314.109-.061.206-.14.288-.234a.412.412 0 00.026-.501.531.531 0 00-.421-.203 1.209 1.209 0 00-.362.064 3.363 3.363 0 00-1.46.837c-.437.431-.576.788-.533.804.042.016.25-.271.693-.628.258-.214.543-.393.847-.533.172-.078.35-.14.533-.187.202-.059.373-.069.432 0 .058.069 0 .048 0 .107a.93.93 0 01-.214.176 5.346 5.346 0 01-.501.309c-.294.155-.6.285-.916.389-.31.074-.613.174-.906.298z" fill="#263238"/><path d="M155.883 225.558c.037 0 .213-.331.224-.938a3.19 3.19 0 00-.165-1.066 2.923 2.923 0 00-.267-.576.805.805 0 00-.629-.469.453.453 0 00-.394.283 1.259 1.259 0 00-.091.357 2.213 2.213 0 000 .65c.066.36.22.699.448.986.394.485.789.586.794.533.005-.053-.304-.219-.607-.693a2.19 2.19 0 01-.336-.895 1.946 1.946 0 010-.56c0-.202.096-.373.17-.352a.737.737 0 01.352.304c.099.171.185.349.256.533.119.308.193.631.218.959.064.576-.021.933.027.944z" fill="#263238"/><path d="M150.133 112l3.101 115.407 15.205-.453-1.167-99.056 19.377 101.806 13.734-3.581-17.731-113.904-32.519-.219z" fill="#263238"/><path d="M158.468 227.567c-.08 0-.138-23.924-.138-53.432 0-29.509.058-53.432.138-53.432.08 0 .139 23.918.139 53.432 0 29.514-.064 53.432-.139 53.432zm32.52 2.1c-.075 0-3.624-22.917-7.931-51.221-4.306-28.304-7.748-51.263-7.658-51.273.091-.011 3.624 22.916 7.93 51.231 4.306 28.315 7.738 51.252 7.659 51.263z" fill="#455A64"/><path d="M171.925 39.825c.53-1.186.959-2.414 1.284-3.672.181-.96.469-2.393.085-3.288-.383-.896-1.316-1.759-2.488-1.514a5.581 5.581 0 00-3.225-4.364 14.121 14.121 0 00-5.329-1.386 4.506 4.506 0 00-1.999.25 2.564 2.564 0 00-1.204 1.295 4.418 4.418 0 00-3.917-.623c-1.471.394-3.144 1.188-3.789 2.563a4.31 4.31 0 00-.112 3.257c.282.895 1.231 2.302 2.132 1.971" fill="#263238"/><path d="M164.512 64.718a6.58 6.58 0 01-6.438-6.928c.09-1.839.176-3.325.176-3.325s-5.021-.65-5.207-5.65c-.187-4.998.394-16.488.394-16.488a17.374 17.374 0 0117.507 1.785l.751.533-.463 23.614a6.59 6.59 0 01-6.72 6.46z" fill="#FFBE9D"/><path d="M158.255 54.411a11.654 11.654 0 006.47-2.014s-1.541 3.874-6.539 3.55l.069-1.536z" fill="#EB996E"/><path d="M171.21 39.84c.085-.037 3.411-1.102 3.384 2.32-.026 3.42-3.448 2.69-3.453 2.59-.005-.102.069-4.91.069-4.91z" fill="#FFBE9D"/><path d="M172.191 43.46s.064.042.16.09a.58.58 0 00.448 0c.453-.28.718-.784.693-1.316a1.924 1.924 0 00-.166-.853.674.674 0 00-.442-.458.299.299 0 00-.352.16c-.048.096-.026.16-.042.165-.016.005-.075-.053-.048-.197a.392.392 0 01.138-.214.476.476 0 01.331-.085.852.852 0 01.618.533c.145.296.213.625.197.954a1.55 1.55 0 01-.879 1.47.655.655 0 01-.533-.095c-.117-.07-.133-.144-.123-.154z" fill="#EB996E"/><path d="M154.732 40.145a.72.72 0 00.709.703.684.684 0 00.719-.66.714.714 0 00-.709-.704.686.686 0 00-.719.66zm-.176-.8c.091.09.624-.32 1.391-.335.767-.017 1.343.351 1.423.255.08-.096-.053-.208-.304-.383a1.97 1.97 0 00-1.14-.32 1.88 1.88 0 00-1.104.389c-.234.186-.298.357-.266.394zm7.701.795a.72.72 0 00.709.697.678.678 0 00.72-.66.715.715 0 00-.704-.704.692.692 0 00-.725.666zm-.149-.837c.096.09.624-.325 1.391-.341.767-.017 1.343.351 1.423.255.08-.096-.053-.207-.304-.378a1.945 1.945 0 00-1.14-.325c-.4.009-.787.145-1.103.389-.235.186-.31.357-.267.4zm-2.644 5.761a5.17 5.17 0 00-1.252-.192c-.197 0-.384-.048-.421-.181a1.064 1.064 0 01.117-.587c.176-.48.357-.98.533-1.508.752-2.132 1.29-3.906 1.205-3.938-.086-.032-.768 1.69-1.519 3.831l-.533 1.52a1.127 1.127 0 00-.085.772.533.533 0 00.33.277c.11.027.223.04.336.038.429.048.863.037 1.289-.032zm2.276.479c-.128 0-.107.826-.805 1.44-.698.612-1.599.532-1.599.655 0 .122.203.154.581.154a2.057 2.057 0 001.327-.5 1.81 1.81 0 00.624-1.205c.027-.347-.069-.554-.128-.544zm.096-9.246c.08.208.848.09 1.748.176.901.085 1.642.309 1.754.122.053-.09-.08-.288-.379-.48a2.9 2.9 0 00-1.306-.42 2.951 2.951 0 00-1.364.191c-.304.144-.485.31-.453.41zm-7.051.82c.139.171.661 0 1.301-.047.639-.048 1.178.085 1.295-.096.053-.09-.037-.267-.277-.427a1.88 1.88 0 00-2.089.123c-.224.181-.294.362-.23.447z" fill="#263238"/><path d="M171.962 35.04c-.032 1.46.336 3.074.112 4.508-.032.218-.576.81-.624 1.023-.261 1.274-.772 1.828-1.556.533-.304-.496-.533-1.887-.65-2.452l-1.023-4.588a8.03 8.03 0 01-3.779.996 3.884 3.884 0 01-3.293-1.838 4.036 4.036 0 01-6.236.98 1.678 1.678 0 01-2.211.533 1.998 1.998 0 01-.869-2.185c.314-1.225 1.599-1.918 2.809-2.307 4.716-1.52 10.003-.533 14.336 1.844a7.261 7.261 0 011.758 1.257c.501.533 1.194 1.13 1.231 1.855" fill="#263238"/><path d="M168.38 34.645c.263-.001.524.04.773.122.261.113.503.268.714.459.245.213.485.49.778.762.273.275.605.484.97.613.31.088.639.088.949 0 .533-.15.735-.437.714-.459a5.4 5.4 0 01-.757.256 1.649 1.649 0 01-.821-.07 2.424 2.424 0 01-.858-.564c-.277-.261-.532-.533-.799-.757a2.46 2.46 0 00-.821-.447c-.549-.15-.879.085-.842.085zm.571 1.492c0 .043.256 0 .533.24.163.149.31.315.437.495a2.34 2.34 0 002.206.933c.411-.064.624-.213.608-.245-.016-.032-.251.032-.629.037a2.498 2.498 0 01-1.38-.373c-.491-.272-.736-.794-1.125-1.018-.389-.224-.687-.106-.65-.07zm-13.18-9.721s-.165-.042-.442.043c-.39.13-.727.385-.959.725-.613.858-.757 2.377-.283 3.853a5.44 5.44 0 002.452 3.01c.343.2.71.356 1.092.465.138.052.285.077.432.074a15.119 15.119 0 01-1.407-.72 5.523 5.523 0 01-2.276-2.925c-.453-1.391-.346-2.846.171-3.645a1.95 1.95 0 01.831-.73c.235-.113.389-.123.389-.15zm-4.141 2.074c-.057.32-.042.65.043.964a5.976 5.976 0 002.531 3.805c.258.201.556.343.874.416a9.826 9.826 0 01-2.275-2.228c-.997-1.47-1.077-2.974-1.173-2.958z" fill="#455A64"/><path d="M124.073 98.138l-7.312.368a1.737 1.737 0 00-1.647 1.759c.037 1.673.32 3.96 1.599 3.73l.831-3.639 6.07 5.329a4.413 4.413 0 002.185 1.066l1.429-.15-3.155-8.463z" fill="#FFBE9D"/><path d="M159.038 58.973l-3.821 1.263-1.897 31.742v28.149l23.465 2.601.272-40.599-1.514-20.209-3.586-4.285-12.919 1.338z" fill="#E0E0E0"/><path d="M157.86 60.492v-3.075l13.947-1.94-.559 7.083-3.203 5.558-5.239.293-3.784-2.34-1.162-5.579z" fill="#E0E0E0"/><path d="M159.113 60.135a3.607 3.607 0 01-.08-1.407 3.721 3.721 0 01.197-1.396c.119.459.146.937.08 1.407.023.473-.043.947-.197 1.396zm3.485-.255a4.664 4.664 0 01-.048-1.573 4.496 4.496 0 01.235-1.556c.108.526.122 1.067.043 1.599a4.392 4.392 0 01-.23 1.53zm3.374-.353a5.043 5.043 0 010-1.662 5.004 5.004 0 01.261-1.642 5.27 5.27 0 010 1.663 5.2 5.2 0 01-.261 1.641zm3.24-.532a6.39 6.39 0 01.144-3.129c.07.52.07 1.047 0 1.567a5.983 5.983 0 01-.144 1.562zm-1.551 13.413a2.014 2.014 0 01-.186.533c-.133.33-.341.8-.613 1.375a50.493 50.493 0 01-2.34 4.37 53.833 53.833 0 01-2.728 4.147c-.373.533-.682.922-.906 1.199-.107.152-.232.29-.373.41.341-.594.715-1.168 1.119-1.721a111.943 111.943 0 002.664-4.173 77.267 77.267 0 002.404-4.322c.288-.622.608-1.229.959-1.818z" fill="#263238"/><path d="M171.887 57.14l3.784 1.822 7.312 1.796a6.092 6.092 0 014.999 6.774l-3.832 29.844 4.573 28.939-18.12-.533-1.066-10.765V85.172l2.35-28.032z" fill="#455A64"/><path d="M169.537 92.047c.009-.125.027-.25.053-.373a73 73 0 00.208-1.066l.805-3.848 2.766-12.668c.304-1.358.597-2.664.879-3.954l.038.128-1.258-1.316-.069-.075.053-.085 2.105-3.502v.102l-2.324-5.628c-.261-.656-.474-1.183-.629-1.599a3.76 3.76 0 01-.202-.565c.107.168.196.347.266.533l.693 1.551 2.388 5.633.026.053-.032.054c-.644 1.066-1.343 2.265-2.083 3.522v-.16l1.257 1.306.054.053v.07a1452.54 1452.54 0 00-.874 3.954c-1.109 4.93-2.132 9.39-2.846 12.652-.368 1.599-.672 2.894-.89 3.832l-.256 1.034c-.03.125-.073.246-.128.362z" fill="#263238"/><path d="M124.381 96.934l16.031-8.937 7.765-20.95a11.26 11.26 0 016.219-6.47l2.063-.858v55.154l.41 13.067-8.687-2.601 4.434-26.263-1.535-12.923-1.519 6.251a8.472 8.472 0 01-3.959 5.33l-16.66 8.654-4.562-9.454z" fill="#455A64"/><path d="M124.573 97.344l-1.348.4 3.795 9.049 1.769-.687-4.216-8.762z" fill="#E0E0E0"/><path d="M143.333 91.717a11.679 11.679 0 00-1.199-2.03 11.937 11.937 0 00-1.775-1.552 4.488 4.488 0 012.974 3.582zm-17.028 5.334c0 .038-.08.107-.09.261-.011.155.09.336.303.272a.228.228 0 00.107-.389c-.091-.128-.208-.133-.213-.176-.005-.042.149-.117.352.032a.481.481 0 01.181.39.47.47 0 01-.347.41.453.453 0 01-.575-.581c.09-.24.256-.272.282-.219zm1.29-.543c0 .037-.08.106-.085.26-.006.155.09.337.304.273a.234.234 0 00.106-.395c-.09-.122-.208-.133-.218-.17-.011-.038.149-.123.357.032a.47.47 0 01.181.383.49.49 0 01-.869.256.484.484 0 01-.053-.426c.091-.256.277-.256.277-.213zm28.864-3.614a1.429 1.429 0 01-.07-.335c-.037-.256-.09-.581-.149-.986-.122-.89-.288-2.132-.49-3.619-.394-3.09-.927-7.306-1.519-11.959l-.24-1.956v-.064c.405-1.028.8-2.025 1.173-2.979v.101c-.405-.921-.794-1.806-1.157-2.664v-.08c.714-2.564 1.311-4.722 1.738-6.278.213-.736.383-1.322.506-1.759.052-.211.122-.418.208-.618a4.163 4.163 0 01-.134.634c-.106.443-.255 1.04-.442 1.78-.405 1.562-.97 3.73-1.636 6.305v-.08l1.178 2.632v.103l-1.167 3.01v-.068c.08.64.16 1.295.245 1.955.533 4.658 1.066 8.874 1.433 11.965.171 1.508.31 2.74.405 3.634l.096.986c.021.113.028.227.022.341zm-3.859 6.337a1.368 1.368 0 01-.053-.261c-.027-.203-.064-.453-.107-.752-.085-.698-.197-1.636-.341-2.776a666.836 666.836 0 00-2.451-18.285c-.165-1.135-.304-2.073-.405-2.766-.038-.304-.07-.533-.096-.757a.85.85 0 010-.266c.032.082.055.168.069.256.043.202.091.447.149.746.123.65.293 1.598.491 2.755a278.99 278.99 0 011.375 9.13c.479 3.575.847 6.815 1.065 9.166.118 1.172.203 2.131.256 2.781 0 .304.038.533.048.763a.85.85 0 010 .266zm-2.211 19.617c.102.165.226.315.367.448.412.331.953.453 1.466.33a2.473 2.473 0 001.599-1.561 9.651 9.651 0 00.448-2.867 6.553 6.553 0 00-.294-2.862 5.216 5.216 0 00-1.455-1.833 6.803 6.803 0 01-1.108-1.21 1.376 1.376 0 01-.261-.533s.112.181.346.48c.349.412.736.791 1.157 1.129a5.161 5.161 0 011.556 1.882c.341.951.456 1.969.336 2.973a9.489 9.489 0 01-.485 2.947 2.669 2.669 0 01-1.78 1.653 1.743 1.743 0 01-1.599-.437 1.288 1.288 0 01-.261-.373c-.032-.123-.043-.166-.032-.166zm-5.958-20.71s.533-6.112 5.372-6.677c0 0 .09 5.004-5.372 6.677z" fill="#263238"/><path d="M170.374 121.028l14.096 9.22 1.598-1.274.752-20.662-13.425-10.174-1.844.635-1.177 22.255z" fill="#E8505B"/><path d="M173.236 98.432l.554 22.367h-2.963l.991-21.925 1.418-.442z" fill="#E0E0E0"/><path d="M177.675 125.931c.269.645.9 1.066 1.599 1.066a.181.181 0 01.117.101c.269.493.777.808 1.338.832a2.861 2.861 0 001.513-.437c.736-.448 2.047-3.39 2.047-3.39l3.107-6.928-5.223-1.412-6.64 2.067c0 .123-1.556 6.396-1.556 6.396a1.6 1.6 0 001.865-.992c.337-.759.729-1.493 1.172-2.195l.496 2.83-1.892.644a1.257 1.257 0 00.81 1.439l1.247-.021z" fill="#FFBE9D"/><path d="M180.02 77.311l8.703 16.02-7.083 21.025 7.872 4.439 10.013-23.396a6.651 6.651 0 00-.085-5.414L187.183 63.61l-7.163 13.7z" fill="#455A64"/><path d="M181.634 114.361l-.73 1.625 7.429 4.008.778-1.428-7.477-4.205z" fill="#E0E0E0"/><path d="M181.64 114.356v-.107c0-.069.053-.181.09-.309l.379-1.188c.346-1.066.836-2.553 1.444-4.418 1.258-3.774 3.011-9.028 5.015-15.045v.112a289.858 289.858 0 01-3.107-5.415c-1.919-3.427-3.677-6.73-5.186-9.785-.746-1.53-1.439-2.99-2.025-4.39a8.756 8.756 0 01-.725-4.153 9.524 9.524 0 01.773-3.394 6.664 6.664 0 011.54-2.132c.409-.38.877-.69 1.386-.917.171-.082.35-.148.533-.197a6.112 6.112 0 00-1.855 1.194 6.516 6.516 0 00-1.471 2.132 9.503 9.503 0 00-.724 3.341 8.676 8.676 0 00.74 4.05c.597 1.391 1.295 2.846 2.047 4.37 1.513 3.044 3.283 6.337 5.201 9.758 1.066 1.877 2.084 3.694 3.091 5.415l.032.053v.06c-2.046 6.005-3.826 11.249-5.11 15.012l-1.471 4.381c-.182.495-.32.884-.421 1.172l-.118.304a.79.79 0 01-.058.096z" fill="#263238"/><path d="M194.606 93.182a6.59 6.59 0 01-.858-.304 6.134 6.134 0 00-4.226.134c-.27.139-.549.258-.836.357.207-.234.466-.416.756-.533a5.255 5.255 0 012.175-.533 5.204 5.204 0 012.201.405c.295.096.565.258.788.474zm-16.329-19.681l6.252 20.928.884-6.88-7.136-14.048zm10.355 41.111c0 .037-.08.106-.085.261-.006.154.09.335.303.271a.233.233 0 00.107-.394c-.091-.123-.208-.133-.213-.17-.005-.038.144-.118.352.032a.469.469 0 01.181.389.475.475 0 01-.352.41.464.464 0 01-.533-.16.473.473 0 01-.053-.421c.08-.245.293-.245.293-.218zm.602-1.509c0 .038-.08.107-.085.267a.24.24 0 10.41-.123c-.09-.128-.213-.133-.218-.176-.006-.042.149-.117.357.032a.474.474 0 11-.741.219c.091-.24.277-.256.277-.219zm8.554-26.652c-.933.49-1.258 1.866-1.151 2.915.106 1.05.495 2.068.469 3.118-.07.75-.204 1.494-.4 2.222a3.8 3.8 0 00.064 2.223c.266.73.991 1.187 1.764 1.114l.741-1.493a8.222 8.222 0 00-.107-7.493l-1.38-2.606z" fill="#263238"/><path d="M243.418 198.948c.479-1.657 1.508-3.267 3.091-3.949 1.583-.682 3.565-.309 5.255.309 1.689.619 3.352 1.434 5.148 1.546 1.796.112 3.816-.741 4.354-2.457.506-1.599-.464-3.336-1.684-4.509a10.66 10.66 0 00-17.427 4.184" fill="#E8505B"/><path d="M243.418 198.948c.479-1.657 1.508-3.267 3.091-3.949 1.583-.682 3.565-.309 5.255.309 1.689.619 3.352 1.434 5.148 1.546 1.796.112 3.816-.741 4.354-2.457.506-1.599-.464-3.336-1.684-4.509a10.66 10.66 0 00-17.427 4.184" fill="#3F5A2F"/><path d="M229.199 206.159c-2.633-2.5-2.5-6.854-1.189-10.243 1.311-3.39 4.178-5.985 7.381-7.696a23.364 23.364 0 0120.39-.66 9.672 9.672 0 00-7.823 4.588c-1.439 2.398-1.764 5.329-2.952 7.834-2.791 5.926-9.726 8.638-15.797 6.177m-1.278-15.029c-2.916-3.443-3.299-8.964-2.873-13.456.426-4.493 1.471-9.007.762-13.462-.421-2.638-1.444-5.154-1.79-7.808-.347-2.654.143-5.644 2.201-7.354 2.355-1.967 6.075-1.503 8.527.346 2.451 1.849 3.879 4.743 4.919 7.632 2.28 6.352 3.117 13.392 1.241 19.873-1.876 6.48-6.272 12.257-12.732 14.229" fill="#5E8845"/><path d="M226.534 219.365a2.356 2.356 0 010-.394v-1.141c.038-.986.134-2.414.352-4.167.261-2.053.635-4.09 1.119-6.102a28.25 28.25 0 012.788-7.067 29.54 29.54 0 014.551-6.086 29.074 29.074 0 014.77-3.965c.73-.507 1.433-.885 2.041-1.242.607-.357 1.162-.592 1.599-.81l1.065-.437c.118-.059.241-.105.368-.139-.112.07-.23.13-.352.182l-1.028.479c-.437.229-.97.533-1.599.842-.629.309-1.29.757-2.009 1.263a30.032 30.032 0 00-9.209 10.03c-2.665 4.69-3.411 9.62-3.944 13.073a63.491 63.491 0 00-.432 4.152l-.064 1.135c.004.131-.001.263-.016.394z" fill="#263238"/><path d="M201.391 177.556c-5.394 3.257-5.378 6.214-4.477 9.012.901 2.798 4.21 4.738 6.928 3.694 1.551-.592 2.665-1.94 3.635-3.299.97-1.359 1.86-2.804 3.197-3.779 1.338-.975 3.294-1.343 4.647-.378" fill="#E8505B"/><path d="M201.391 177.556c-5.394 3.257-5.378 6.214-4.477 9.012.901 2.798 4.21 4.738 6.928 3.694 1.551-.592 2.665-1.94 3.635-3.299.97-1.359 1.86-2.804 3.197-3.779 1.338-.975 3.294-1.343 4.647-.378" fill="#3F5A2F"/><path d="M197.351 181.122c1.412-1.946 4.892-2.51 7.093-1.54 2.201.969 3.81 2.904 5.255 4.828 1.444 1.924 2.846 3.954 4.844 5.297 1.999 1.343 4.796 1.823 6.779.475a5.831 5.831 0 002.308-3.992 13.339 13.339 0 00-.32-4.701c-.475-2.259-1.253-4.625-3.065-6.059-2.014-1.599-4.796-1.679-7.391-1.599-2.953.096-5.953.315-8.724 1.338-2.772 1.023-5.602 3.24-6.779 5.947" fill="#5E8845"/><path d="M222.052 215.048a.416.416 0 010-.122v-.347c0-.325 0-.772-.048-1.337-.037-1.183-.085-2.862-.144-4.925a280.503 280.503 0 00-.298-7.296c-.149-2.744-.357-5.761-.773-8.9a28.476 28.476 0 00-.927-4.524 23.97 23.97 0 00-3.731-7.232 21.515 21.515 0 00-2.281-2.5 16.616 16.616 0 00-4.034-2.749c-.261-.123-.496-.24-.698-.326l-.533-.202-.325-.133-.107-.048.118.026.33.107.533.186c.208.075.442.187.709.304a16.184 16.184 0 014.114 2.713 20.457 20.457 0 012.318 2.499 22.579 22.579 0 012.132 3.294 23.479 23.479 0 011.684 3.992c.425 1.491.728 3.015.906 4.556.416 3.15.613 6.172.757 8.921.144 2.75.202 5.223.245 7.302.043 2.078.059 3.762.064 4.924v1.689c0 .091-.011.128-.011.128zm1.94 2.436a15.061 15.061 0 01-.591-2.318 24.26 24.26 0 01-.246-6.508 43.31 43.31 0 012.052-9.438c1.109-3.475 2.612-7.184 3.896-11.192a52.557 52.557 0 001.551-5.91c.355-1.864.609-3.746.762-5.638.247-3.209.304-6.43.17-9.646-.09-2.745-.239-4.967-.33-6.502-.043-.757-.08-1.348-.101-1.769v-.459a.612.612 0 010-.16.803.803 0 010 .155c0 .117 0 .272.048.464.037.415.085 1.007.149 1.764.117 1.529.293 3.73.405 6.501a79.967 79.967 0 01-.117 9.668 53.5 53.5 0 01-.757 5.665 50.165 50.165 0 01-1.551 5.969c-1.29 4.002-2.798 7.711-3.912 11.165a43.906 43.906 0 00-2.094 9.39 25.114 25.114 0 00.165 6.475c.133.757.256 1.343.363 1.732.042.187.079.336.106.448a.546.546 0 01.032.144z" fill="#263238"/><path d="M237.363 219.925h-25.325l-.58-4.877h25.905v4.877z" fill="#455A64"/><path d="M214.756 219.365l3.166 14.624h13.76l2.963-14.624h-19.889z" fill="#455A64"/><path d="M237.364 219.919c0 .07-5.569.107-12.434.086-6.864-.022-12.438-.086-12.438-.155s5.569-.107 12.438-.085c6.87.021 12.434.09 12.434.154z" fill="#455A64"/><path d="M233.015 227.141a10.084 10.084 0 00-2.228-1.279 7.8 7.8 0 00-2.712-.533c-1.14 0-2.27.206-3.337.607-1.151.394-2.233.847-3.283 1.098a7.946 7.946 0 01-2.835.085 5.957 5.957 0 01-1.822-.575 3.93 3.93 0 01-.437-.283c-.096-.069-.144-.112-.139-.117.005-.005.213.123.618.314.576.25 1.184.416 1.807.491a7.89 7.89 0 002.761-.134c1.012-.25 2.094-.714 3.256-1.108a9.441 9.441 0 013.416-.602c.953.03 1.892.236 2.771.607a7.014 7.014 0 011.652.965c.136.105.266.217.389.336.091.074.128.117.123.128z" fill="#263238"/><path d="M232.823 228.1a10.827 10.827 0 00-2.132-1.263 7.263 7.263 0 00-2.611-.533 9.472 9.472 0 00-3.23.581c-1.113.373-2.158.804-3.16 1.066a8.111 8.111 0 01-2.728.303 4.595 4.595 0 01-1.786-.479 3.134 3.134 0 01-.426-.267c-.091-.069-.139-.112-.133-.117.005-.005.213.123.602.298a4.793 4.793 0 001.753.395 8.314 8.314 0 002.665-.352c.975-.272 2.014-.709 3.144-1.066a9.435 9.435 0 013.31-.575 7.14 7.14 0 012.664.607 7.268 7.268 0 011.599.954c.171.139.293.251.373.331.08.08.101.117.096.117z" fill="#fff"/><path d="M233.265 226.171a11.52 11.52 0 00-2.286-1.354 8.46 8.46 0 00-2.782-.666 9.06 9.06 0 00-3.443.607 30.378 30.378 0 01-3.395 1.109 8.688 8.688 0 01-2.931 0 6.553 6.553 0 01-1.881-.597 3.261 3.261 0 01-.458-.283c-.096-.074-.144-.117-.139-.122.005-.005.219.133.64.32a7.2 7.2 0 001.865.533c.95.14 1.917.122 2.862-.054a33.461 33.461 0 003.363-1.119 8.976 8.976 0 013.533-.602 8.533 8.533 0 014.525 1.753c.141.11.276.227.405.352.085.069.133.117.122.123z" fill="#fff"/><path d="M237.587 219.941c0 .069-5.697.122-12.721.122s-12.726-.053-12.726-.122c0-.07 5.697-.118 12.726-.118 7.03 0 12.721.054 12.721.118z" fill="#263238"/><path d="M44.052 214.377c.912 1.3 2.665.868 3.507.074.842-.794 1.167-1.94 1.482-3.037.719-2.51 1.45-5.143.91-7.696a4.264 4.264 0 00-.98-2.089 2.235 2.235 0 00-2.1-.709c-.895.235-1.45 1.109-1.849 1.94a18.372 18.372 0 00-1.812 7.871 6.35 6.35 0 00.858 3.64" fill="#E8505B"/><path d="M44.052 214.377c.912 1.3 2.665.868 3.507.074.842-.794 1.167-1.94 1.482-3.037.719-2.51 1.45-5.143.91-7.696a4.264 4.264 0 00-.98-2.089 2.235 2.235 0 00-2.1-.709c-.895.235-1.45 1.109-1.849 1.94a18.372 18.372 0 00-1.812 7.871 6.35 6.35 0 00.858 3.64m3.4 6.593a7.876 7.876 0 014.898-.592 4.08 4.08 0 012.42 1.066c.602.672.72 1.844 0 2.42a2.312 2.312 0 01-1.525.383c-1.294 0-2.728-.239-3.762.533-.592.443-.986 1.183-1.69 1.402a1.68 1.68 0 01-1.838-.815 2.875 2.875 0 01-.202-2.106 3.198 3.198 0 011.7-2.291zm-5.926-4.722a4.716 4.716 0 00.736-4.354 8.348 8.348 0 00-2.58-3.731 13.857 13.857 0 00-4.62-2.728 4.894 4.894 0 00-2.079-.352 2.184 2.184 0 00-1.743 1.066c-.484.927 0 2.052.485 2.968a35.027 35.027 0 003.044 4.6c.91 1.172 1.955 2.329 3.341 2.861 1.386.533 2.825.469 3.56-.495" fill="#5E8845"/><path d="M43.994 234.005c.045-.194.072-.393.08-.592.042-.432.096-.975.16-1.599.078-.794.199-1.584.362-2.366.21-.952.497-1.886.858-2.792.35-.911.827-1.767 1.418-2.543a5.333 5.333 0 011.801-1.502c.478-.237.99-.395 1.519-.469.2-.011.397-.04.591-.086a2.427 2.427 0 00-.602 0 4.62 4.62 0 00-1.599.411 5.33 5.33 0 00-1.902 1.513 10.04 10.04 0 00-1.476 2.58 16.727 16.727 0 00-.853 2.835c-.154.792-.26 1.593-.315 2.398a26.392 26.392 0 00-.08 1.599 2.8 2.8 0 00.038.613z" fill="#263238"/><path d="M44.106 232.763a1.856 1.856 0 000-.277v-.784c0-.682 0-1.668.037-2.883.059-2.43.267-5.793.672-9.481.405-3.688.948-7.013 1.444-9.395.112-.602.23-1.135.341-1.599.112-.464.197-.879.282-1.204l.182-.763a.875.875 0 00.048-.271 1.357 1.357 0 00-.091.255 29.254 29.254 0 00-.554 1.951c-.117.469-.25 1.007-.379 1.599a88.89 88.89 0 00-1.513 9.406c-.405 3.699-.586 7.067-.608 9.508 0 1.215 0 2.206.043 2.883.021.32.037.581.048.783.004.092.02.184.048.272z" fill="#263238"/><path d="M44.122 226.267a6.047 6.047 0 000-.821 24.66 24.66 0 00-.25-2.223 30.055 30.055 0 00-.73-3.234 27.855 27.855 0 00-1.355-3.827 20.33 20.33 0 00-3.975-6.182c-.291-.31-.603-.6-.933-.869-.144-.122-.272-.245-.4-.341l-.362-.245a4.781 4.781 0 00-.693-.442 24.008 24.008 0 012.265 2.014 21.365 21.365 0 013.853 6.166 30.723 30.723 0 011.365 3.79c.351 1.188.586 2.28.767 3.197.181.917.267 1.674.325 2.196.02.276.06.551.123.821z" fill="#263238"/><path d="M122.703 10.881c.09-.01.181-.01.271 0h.8a8.6 8.6 0 011.29.123c.255.042.533.07.82.128l.922.229a14.917 14.917 0 014.434 1.982c6.81 4.53 8.897 13.59 4.754 20.64a15.536 15.536 0 01-7.408 6.444 15.046 15.046 0 01-5.137 1.13 14.698 14.698 0 01-5.372-.666l-.16-.054h.123l-8.98 3.113-.363.128.112-.373 2.334-7.462.038.182a15.38 15.38 0 01-3.603-13.324 15.11 15.11 0 012.318-5.51 15.32 15.32 0 013.555-3.73 13.774 13.774 0 013.651-2.02 11.908 11.908 0 011.598-.534c.455-.128.918-.224 1.386-.287.421-.059.794-.123 1.114-.15l.821-.026h.527a.533.533 0 01.171 0 1.123 1.123 0 01-.171.027l-.495.037-.811.059c-.319.037-.687.106-1.103.175a9.984 9.984 0 00-1.364.315c-.545.138-1.079.317-1.599.533a17.5 17.5 0 00-1.753.826 15.85 15.85 0 00-1.823 1.21 15.39 15.39 0 00-3.464 3.682 14.864 14.864 0 00-2.238 5.441c-.92 4.65.403 9.462 3.57 12.988l.075.08-.032.101c-.742 2.398-1.515 4.885-2.318 7.461l-.251-.24 8.97-3.032h.128l.154.048c1.69.537 3.464.757 5.233.65 1.721-.07 3.417-.44 5.01-1.092a15.195 15.195 0 007.243-6.273c4.048-6.9 2.051-15.757-4.568-20.252a15.206 15.206 0 00-4.348-2.014l-.906-.245c-.288-.064-.56-.096-.81-.144a8.497 8.497 0 00-1.279-.16l-.795-.064a1.772 1.772 0 01-.271-.08z" fill="#E8505B"/><path d="M113.675 27.264l2.361-2.361 4.556 4.05 8.943-8.607 2.196 2.361-11.474 10.803-6.582-6.246z" fill="#E8505B"/></svg>