<svg width="273" height="216" fill="none" xmlns="http://www.w3.org/2000/svg"><path d="M23.606 161.156l-2.758-1.564a15.424 15.424 0 01-2.591 3.133 1.929 1.929 0 01-2.638-.037l-.09-.086a1.924 1.924 0 01.051-2.825 11.224 11.224 0 002.328-2.842c.938-1.653.942-3.148-.218-3.806-1.103-.627-2.327-.091-4.272 1.645-2.806 2.513-5.46 3.81-8.275 2.212-2.555-1.448-3.535-4.378-2.385-7.836L0 147.573l1.613-2.845 2.556 1.449a14.156 14.156 0 011.884-2.433 1.927 1.927 0 012.708-.03 1.927 1.927 0 010 2.775 10.153 10.153 0 00-1.81 2.35c-1.07 1.886-.602 2.956.211 3.418.958.543 2.143-.127 4.472-2.068 3.178-2.763 5.556-3.251 8.177-1.769 2.584 1.464 3.753 4.545 2.44 8.212l2.96 1.684-1.605 2.84z" fill="#FDECD6"/><path d="M156.258 205.425c6.953-9.359 12.54-9.442 12.54-9.442s2.525-16.444.505-23.437c-2.021-6.994-11.168-.862-11.168-.862s12.122-23.766 7.152-26.433c-9.26-4.973-23.855 20.237-23.855 20.237s3.418-11.097-3.133-11.055c-9.878.061-10.733 25.504-10.733 25.504s-1.948-5.012-8.042-2.14c-6.566 3.093-8.343 21.718-8.716 36.115h34.606c4.958-3.036 9.002-6.009 10.844-8.487z" fill="#5E8845"/><path d="M142.65 163.458s.407-12.644-6.144-12.602c-9.877.06-8.933 29.077-8.933 29.077s-4.126-8.209-10.221-5.337c-6.689 3.152-7.484 23.739-7.221 39.312h11.496l43.667-68.66c-9.263-4.974-22.644 18.21-22.644 18.21z" fill="#4B5923"/><path d="M196.441 213.085s31.535 3.632 39.176.956c7.64-2.675 2.579-6.953 2.579-6.953s16.162-2.064 17.715-6.872c1.552-4.809-6.087-4.839-6.087-4.839s16.217-8.947 14.397-12.417c-3.391-6.461-21.587 2.357-21.587 2.357s6.281-5.05 2.5-7.576c-5.704-3.808-16.094 10.487-16.094 10.487s.832-3.64-3.789-4.36c-8.292-1.291-28.81 29.217-28.81 29.217z" fill="#5E8845"/><path d="M225.242 181.183c4.62.72 3.798 7.045 3.798 7.045s10.745-17.049 16.449-13.243c3.781 2.526-1.371 9.635-1.371 9.635s16.712-8.121 20.103-1.66l-64.76 28.105c2.377-3.575 18.036-31.088 25.781-29.882z" fill="#4B5923"/><path d="M196.246 213.545s28.696-19.966 32.83-28.744c4.133-8.779-3.778-8.046-3.778-8.046s11.802-15.545 8.999-20.916c-2.804-5.37-9.248 1.138-9.248 1.138s5.97-21.381 1.474-22.728c-8.372-2.526-16.563 24.542-16.563 24.542s-3.126-14.984-8.462-13.865c-8.046 1.684-.018 23.821-.018 23.821s-2.372-7.212-6.869-3.872c-8.068 6.002 1.635 48.67 1.635 48.67z" fill="#5E8845"/><path d="M186.76 165.22c5.068-2.397 6.085-7.44 6.085-7.44s.033-12.52 8.081-14.199c5.335-1.113 9.069 8.947 9.069 8.947s8.157-20.815 16.53-18.286l-30.364 78.961c-1.06-5.021-15.435-45.127-9.401-47.983z" fill="#4B5923"/><path d="M187.398 213.607h-57.867a3.342 3.342 0 110-6.682h57.867a3.342 3.342 0 110 6.682z" fill="#F48C7F"/><path d="M197.52 207.123h-57.867a3.343 3.343 0 010-6.685h57.867a3.342 3.342 0 013.34 3.342 3.34 3.34 0 01-3.34 3.343z" fill="#F47458"/><path d="M189.422 200.98h-57.867a3.34 3.34 0 110-6.682h57.867a3.342 3.342 0 013.342 3.34 3.342 3.342 0 01-3.342 3.342z" fill="#F48C7F"/><path d="M182.675 194.325h-57.872a3.342 3.342 0 01-3.342-3.341 3.345 3.345 0 013.342-3.341h57.867a3.341 3.341 0 01.005 6.682z" fill="#F47458"/><ellipse cx="195.719" cy="188.274" rx="28.014" ry="27.398" fill="#FDA859"/><ellipse cx="194.014" cy="185.399" rx="28.014" ry="27.398" fill="#FCC700"/><ellipse cx="193.857" cy="185.127" rx="21.346" ry="20.363" transform="rotate(-2.95 193.857 185.127)" fill="#FDA859"/><path d="M195.859 205.3c-11.522 1.097-21.794-6.995-23.225-18.163 0 .201 0 .395.04.595 1.143 11.469 11.576 19.869 23.306 18.725 11.73-1.143 20.31-11.315 19.173-22.791 0-.2-.047-.394-.074-.588.796 11.255-7.684 21.139-19.22 22.222z" fill="#FDA859"/><path d="M191.847 164.942c11.529-1.097 21.794 6.995 23.232 18.163 0-.201 0-.395-.047-.595-1.137-11.469-11.569-19.869-23.299-18.725-11.73 1.143-20.316 11.322-19.173 22.791 0 .2.047.394.074.588-.783-11.255 7.697-21.126 19.213-22.222z" fill="#FDA859"/><path d="M185.313 187.311l-2.349.339 2.001-3.927 2.383-.372 6.082-12.005 7.746 1.788-4.454 8.828 2.328-.37-1.985 3.916-2.355.365-2.495 4.964 11.663 2.693-2.564 5.089-19.445-4.49 3.444-6.818z" fill="#FCC700"/><path d="M90.39 212.432s-44.953-22.17-52.697-33.731c-7.745-11.561 3.633-12.218 3.633-12.218s-20.064-19.513-17.24-27.729c2.823-8.216 13.356-.364 13.356-.364s-13.038-29.035-6.955-31.921c11.33-5.377 27.225 25.522 27.225 25.522s-3.416-13.423 4.378-12.987c11.766.658 11.28 31.022 11.28 31.022s1.33-11.642 8.418-7.861c12.736 6.785 8.601 70.267 8.601 70.267z" fill="#5E8845"/><path d="M84.36 137.471c-5.539-3.072-11.054 5.91-11.054 5.91s.559-23.716-11.208-24.374c-7.802-.436-4.377 12.987-4.377 12.987s-15.904-30.902-27.234-25.525l59.953 105.47c.424-7.366 4.89-68.383-6.08-74.468z" fill="#92A44B"/><path d="M89.226 212.706s-36.772 4.568-46.3.505c-9.527-4.062-2.693-9.091-2.693-9.091s-20.444-4.019-22.022-10.29c-1.577-6.272 8.183-5.655 8.183-5.655s-19.93-12.823-17.308-17.096c4.883-7.958 27.352 4.856 27.352 4.856s-7.576-6.984-2.54-9.883c7.606-4.377 19.64 14.767 19.64 14.767s-.747-4.714 5.22-5.239c10.687-.94 30.468 37.126 30.468 37.126z" fill="#4B5923"/><path d="M58.992 172.153c-5.96.522-5.454 8.668-5.454 8.668s-12.253-22.685-19.866-18.315c-5.05 2.9.924 12.419.924 12.419s-20.634-11.802-25.516-3.844l80.252 41.416c-2.723-4.761-20.352-41.222-30.34-40.344z" fill="#5E8845"/><path d="M12.721 214.595c0 .571.463 1.034 1.034 1.034H271.47a1.033 1.033 0 100-2.067H13.755c-.571 0-1.034.462-1.034 1.033z" fill="#13375B"/><path d="M193.102 34.797l-1.31 3.268-5.491-1.527-2.507 4.54-4.295-.471-.239 2.174 5.746.633 2.374-4.305 5.712 1.59 1.973-4.917-1.963-.985zm19.53 87.539l1.347-3.349a17.516 17.516 0 01-3.918-2.453 2.197 2.197 0 01-.357-2.985l.082-.113a2.193 2.193 0 013.199-.369 12.826 12.826 0 003.559 2.199c2.011.81 3.704.59 4.265-.821.54-1.347-.247-2.64-2.5-4.573-3.261-2.79-5.125-5.59-3.746-9.009 1.251-3.103 4.416-4.653 8.487-3.872l1.347-3.35 3.454 1.392-1.249 3.103a16.228 16.228 0 013.031 1.76 2.19 2.19 0 01.441 3.055 2.191 2.191 0 01-3.13.422 11.691 11.691 0 00-2.921-1.683c-2.291-.923-3.429-.234-3.827.752-.468 1.164.467 2.401 3.009 4.738 3.599 3.17 4.51 5.792 3.231 8.963-1.265 3.139-4.565 4.923-8.903 3.994l-1.45 3.596-3.451-1.397z" fill="#FDECD6"/><path d="M138.474 213.57H70.506a4.903 4.903 0 01-4.903-4.903 4.902 4.902 0 014.903-4.902h67.968a4.902 4.902 0 014.905 4.902 4.905 4.905 0 01-4.905 4.903z" fill="#B67C48"/><path d="M148.69 203.862H84.705a4.905 4.905 0 010-9.807h63.985a4.904 4.904 0 014.903 4.905 4.903 4.903 0 01-4.903 4.902z" fill="#A87442"/><rect x="73.577" y="184.242" width="70.79" height="9.81" rx="4.905" fill="#B67C48"/><rect x="73.311" y="174.463" width="70.912" height="9.807" rx="4.903" fill="#A87442"/><path d="M141.54 175.041H79.483a4.902 4.902 0 01-4.904-4.908 4.905 4.905 0 014.904-4.903h62.057a4.903 4.903 0 014.903 4.903 4.904 4.904 0 01-4.903 4.908z" fill="#B67C48"/><path d="M138.861 165.357H76.804a4.901 4.901 0 01-4.903-4.903 4.903 4.903 0 014.903-4.903h62.057a4.903 4.903 0 110 9.806z" fill="#A87442"/><rect x="77.722" y="136.608" width="69.055" height="9.807" rx="4.903" fill="#A87442"/><rect x="85.473" y="146.036" width="66.543" height="9.807" rx="4.903" fill="#B67C48"/><ellipse cx="62.719" cy="187.274" rx="28.014" ry="27.398" fill="#FDA859"/><ellipse cx="61.014" cy="184.399" rx="28.014" ry="27.398" fill="#FCC700"/><ellipse cx="60.857" cy="184.127" rx="21.346" ry="20.363" transform="rotate(-2.95 60.857 184.127)" fill="#FDA859"/><path d="M62.86 204.3c-11.523 1.097-21.795-6.995-23.226-18.163 0 .201 0 .395.04.595 1.144 11.469 11.576 19.869 23.306 18.725 11.73-1.143 20.31-11.315 19.173-22.791 0-.2-.047-.394-.074-.588.796 11.255-7.684 21.139-19.22 22.222z" fill="#FDA859"/><path d="M58.847 163.942c11.529-1.097 21.794 6.995 23.232 18.163 0-.201 0-.395-.047-.595-1.137-11.469-11.569-19.869-23.299-18.725-11.73 1.143-20.316 11.322-19.173 22.791 0 .2.047.394.074.588-.783-11.255 7.697-21.126 19.213-22.222z" fill="#FDA859"/><path fill-rule="evenodd" clip-rule="evenodd" d="M69.946 182.372l-14.789-11.335-3.406 18.319 11.126 1.79 7.069-8.774zm.656 1.692l-7.076 8.774v-.002L52.4 191.049l13.932 9.102 4.269-16.087z" fill="#FCC700"/><path d="M77.538 108.931a1.515 1.515 0 01-.261 1.916 14.983 14.983 0 01-4.75 2.862c-2.973 1.114-6.273 1.222-9.248-.128-1.851-.842-3.559-2.357-4.759-4.329l-1.758.659a1.155 1.155 0 01-1.486-.674l-.017-.045a1.155 1.155 0 01.673-1.487l1.443-.539c-.23-.479-.394-.777-.495-1.047a11.22 11.22 0 01-.456-1.628l-1.49.557a1.156 1.156 0 01-1.488-.673 1.156 1.156 0 01.673-1.487l1.801-.673c-.282-2.258.016-4.477.86-6.335 1.435-3.16 4.137-5.408 7.24-6.566a13.048 13.048 0 014.507-.894 1.557 1.557 0 011.573 1.484v.026a1.56 1.56 0 01-1.505 1.63 11.21 11.21 0 00-3.506.744c-1.983.744-3.727 2.118-4.729 4.242a6.917 6.917 0 00-.529 4.209L69.97 96.95a1.155 1.155 0 01.813 2.16l-10.588 3.974c.14.513.282 1.025.4 1.347.152.405.305.811.552 1.335l10.607-3.982a1.179 1.179 0 011.515.689 1.178 1.178 0 01-.688 1.515l-10.16 3.813a7.324 7.324 0 002.994 2.564c2.213.968 4.251.923 6.504.076a12.744 12.744 0 003.387-1.902 1.513 1.513 0 012.238.392h-.005zm94.078-33.879l3.234-1.637 3.184 1.736a.505.505 0 00.73-.513l-.559-3.583 2.635-2.49a.504.504 0 00-.262-.854l-3.583-.576-1.554-3.276a.505.505 0 00-.892-.013l-1.655 3.226-3.595.466a.506.506 0 00-.289.842l2.555 2.57-.673 3.563a.505.505 0 00.724.539zM106.701 9.314l-3.343.338-1.14-5.318-4.948-.106-1.504-3.84-1.944.76 2.012 5.137 4.689.101 1.185 5.532 5.03-.51-.037-2.094zm68.683 79.691l3.576 1.179s5.67-1.837 6.229-2.992c.559-1.155.716-3.96 1.515-4.04.8-.081 2.368.186 2.738 2.106.269 1.392-1.77 5.418-1.451 5.847.198.268 2.235 1.01 3.731 1.515a2.784 2.784 0 011.851 2.25 1.535 1.535 0 01-.957 1.65l-1.029.397.328 1.062a1.534 1.534 0 01-.97 1.903l-.796.267.254.647a1.53 1.53 0 01-.99 2.02l-.695.202.029.187a1.533 1.533 0 01-1.117 1.714l-.69.18-9.524-3.143a6.787 6.787 0 01-2.414-1.401l-3.164-1.67a.787.787 0 01-.367-.955l2.933-8.445a.781.781 0 01.98-.48zM60.727 77.48c-.047-.132-1.166-2.046-2.613-4.127-6.724-9.69-16.698-19.025-28.392-18.678v-.07c5.288-.58 10.469.828 15.016 3.338 7.504 4.04 14.816 11.752 18.813 17.678l-2.824 1.859z" fill="#FDECD6"/><path d="M137.638 65.391s.337-.693.323-2.295c-.025-1.981-.423-4.971-.505-5.235-.143-.479 6.263-2.485 6.263-2.485s10.278-.527 11.809-1.674c1.53-1.146 2.816-1.621 2.103-.43-1.292 2.15-4.304 5.306-4.972 5.737-.669.43-8.654 2.438-8.797 2.438-.143 0-.096 5.018-.096 5.018l-6.128-1.074z" fill="#FFB27D"/><path d="M144.306 63.251s-6.655-1.13-6.776-.466c-2.694 14.725-3.145 19.592-3.442 19.745-1.01.52-15.499-12.192-17.893-13.024-1.145-.399-2.391-.337-3.584-.296-2.849.084-1.888.015-3.389.089h-.128l.015 2.678c3.209 2.888 10.554 46.611 11.172 46.581.692-.032 15.208 3.621 14.952 2.399-.042-.199-9.842-8.22-12.627-19.794-.934-3.884-1.394-8.068-1.9-11.73 3.225 1.616 15.825 7.817 17.82 6.997 6.22-2.535 5.78-33.179 5.78-33.179z" fill="#455A64"/><path d="M169.308 140.884s13.505 10.58 13.957 12.459c.648 2.693 13.016-.842 10.034-1.4-.687-.126-2.882-.683-3.063-.781-.966-.515-12.983-14.997-12.983-14.997l-7.945 4.719z" fill="#FFB27D"/><path d="M199.099 151.94l-8.623-.704s-2.465 2.041-7.203 2.137a11.03 11.03 0 00-.397 4.694c.062.436.134 1.754.574 1.725 1.594-.109 5.839-1.165 10.676-2.133 0 0 6.5-1.375 10.254-3.621 3.755-2.246-5.281-2.098-5.281-2.098z" fill="#184655"/><path d="M108.789 114.345s9.891 1.662 20.829-.897c12.658-2.962 26.655-5.699 30.755-3.315 3.301 1.919 23.907 33.066 23.907 33.066l-7.96 5.808-22.697-25.422s-28.958 10.684-35.46 9.499c-14.804-2.684-15.014-14.516-9.374-18.739z" fill="#1D2529"/><path d="M119.601 108.059l9.898 11.761-18.36 5.593-2.35-11.068 10.812-6.286z" fill="#1D2529"/><path d="M139.713 161.781s-.601 16.331-.975 19.102c-.373 2.771 6.934 11.049 6.001 8.164-.216-.664-.768-2.862-.77-3.066 0-1.095 2.709-19.73 2.709-19.73l-6.965-4.47z" fill="#FFB27D"/><path d="M147.494 194.15l-3.479-7.922s-2.966-1.198-5.301-5.322c-1.558.31-3.031.951-4.319 1.881-.353.261-2.769 2.02-2.601 2.436.62 1.5 3.908 4.714 7.506 8.223 0 0 5.097 4.111 8.859 6.349 3.761 2.237-.665-5.645-.665-5.645z" fill="#184655"/><path d="M155.745 129.573c-3.458-4.611-31.373-8.992-31.373-8.992l-7.781-14.96-17.212 10.607s1.721 13.696 3.012 17.354c1.721 4.883 13.287 5.125 20.352 5.051 6.5-.066 18.373 1.259 18.373 1.259l-4.022 35.435s7.892 1.796 10.111 1.505c.258-.032 12.843-41.521 8.54-47.259z" fill="#263238"/><path d="M109.192 69.334l-9.711.532s-.222.08-.29.091c-.791.147-.072 28.453.633 39.014.706 10.561 2.137 15.01 2.137 15.01s13.17-2.339 17.211-3.908c1.684-.652 5.738-5.724 5.738-5.724s-4.149-5.576-6.238-14.634c-1.611-6.985-3.598-19.362-4.734-21.953-2.613-5.938-4.746-8.428-4.746-8.428z" fill="#E0E0E0"/><path d="M99.758 61.303l-.276 8.573s6.287 10.833 9.513 9.322c2.709-1.266.304-9.505.304-9.505s-.468-1.89-1.119-4.06c-.455-1.514-.832-3.158-.803-4.363.067-2.928-7.618.033-7.618.033z" fill="#FFB27D"/><path d="M107.267 41.748s3.199 4.83 3.443 8.893c.244 4.065-.621 6.837-.621 6.837l-10.28-12.29 7.458-3.44z" fill="#184655"/><path d="M111.774 49.81c.145 1.422-.409 2.645-1.236 2.729-.826.084-1.614-1-1.759-2.423-.145-1.423.407-2.645 1.236-2.73.828-.083 1.614 1 1.759 2.424z" fill="#F48C7F"/><path d="M96.484 47.16c-.236-.05-.212 11.785 3.215 14.563 3.428 2.778 9.396 3.03 11.139.224 1.928-3.102.094-15.567-5.005-18.214-5.1-2.646-9.35 3.427-9.35 3.427z" fill="#FFB27D"/><path d="M95.615 39.822c-2.618 2.297-3.886 3.972-5.657 8.053-2.177 5.016 2.144 10.215 5.767 12.279s3.93 4.6 3.93 4.6l.142-1.577c.157-1.224-.215-1.924-.56-2.665-.31-.658-1.3-2.918-1.684-3.514-1.02-1.572-1.22-1.912-.717-3.405.387-1.152-.063-3.688.537-5.583l4.882-1.05s3.051-.735 4.591-2.513c4.418-5.103-4.328-10.795-11.23-4.625z" fill="#2C3A64"/><path d="M97.994 54.887c.6 1.3.475 2.635-.28 2.984-.754.348-1.852-.42-2.453-1.718-.6-1.298-.476-2.633.278-2.983.754-.35 1.854.421 2.455 1.717z" fill="#FFB27D"/><path d="M32.316 59.127l-.784-5.45 4.04-3.74a.758.758 0 00-.385-1.3l-5.428-.932-2.308-5a.758.758 0 00-1.357-.034l-2.563 4.872-5.468.652a.758.758 0 00-.453 1.28l3.844 3.944-1.07 5.401a.758.758 0 001.077.825l4.938-2.436 4.806 2.694a.756.756 0 001.111-.776z" fill="#FDECD6"/><path d="M64.765 22.258c.554 2.277 1.554 5.875 1.554 5.875-.08.99-.372 5.107-.719 10.152l7.408-2.968s-.088-8.22.242-8.724c.28-.426.751.104 3.03-3.149.657-.939.78-2.616.78-2.616s.135-2.066-.328-2.258c-.463-.192-.997.117-1.163.474-.167.356-.127 1.186-.293 1.543-.167.357-1.241.788-1.694.765-.453-.024.057-6.108.057-6.108s.253-1.726.38-2.29c.108-.483.548-1.894.548-1.894s.505-2.05-.121-2.206c-.376-.092-1.332 1.573-1.987 3.339-.704 1.902-1.105 3.92-1.306 3.892-.474-.064-.223-3.4-.223-3.4s.472-1.53.46-2.25c.446-.884.742-2.525-.042-2.66-.147-.025-1.179 2.06-1.179 2.06s-.406 1.466-.643 2.15c-.417 1.21-.481 3.119-.699 3.96-.181.701-.336.413-.42.442-.085.028.043-.943.168-2.271.057-.674-.019-1.44.168-2.203.163-.765.269-1.542.317-2.323.128-1.726-.96-1.549-1.335.029-.143.6-.293 1.257-.443 1.922-.584 2.588-.567 5.08-.842 5.102-.362.027-.123-4.512-.123-4.512s-.557-2.512-1.108-.18a20.303 20.303 0 00-.565 5.008c.045.66-.433 3.022.12 5.299z" fill="#FFB27D"/><path d="M99.469 69.882s-9.614-.453-12.097-1.576c-1.515-.674-13.876-10.65-13.876-10.65l.138-26.688-8.7-.661s-4.51 29.498-2.947 32.727c1.613 3.336 19.72 17.062 23.341 23.018 2.086 3.433 6.436 50.104 7.095 50.525 4.685 2.438 19.152 4.883 18.812 3.394-9.418-40.876-11.766-70.09-11.766-70.09z" fill="#455A64"/><path d="M141.713 58.435s2.677-1.149 3.395-1.388c.717-.239 3.011-.673 3.011-.673s3.563-3.659 4.47-3.753c.908-.094-2.079 3.992-2.079 3.992l-1.242 1.195s2.007-1.722 2.389-1.961c.382-.24 3.396-4.59 4.16-4.302.764.288-1.291 3.347-2.295 4.972-1.003 1.625-5.594 2.63-5.594 2.63l-6.215-.712z" fill="#FFB27D"/><path d="M173.711 70.245c0 .717-16.264.916-19.635 15.333l-2.166-.713c4.828-14.647 20.927-14.066 21.718-14.605.01 0 .015-.015.014-.015h.069zm68.413 92.75l.558-1.923c2.957-.559 5.501-2.571 6.339-5.455.272-.898.47-1.817.591-2.748l-3.961-1.149.705-2.423 3.576 1.039c.143-1.209.347-2.777.783-4.275 1.32-4.546 5.293-6.593 9.561-5.352 1.015.277 1.98.71 2.862 1.283a1.41 1.41 0 01-1.545 2.355 8.561 8.561 0 00-2.105-.909c-2.998-.871-4.832.842-5.626 3.578-.48 1.653-.608 2.951-.734 4.247l5.537 1.61-.706 2.422-5.219-1.515c-.309 1.495-.658 2.979-1.405 4.261a8.362 8.362 0 01-3.861 3.383l-.022.076 10.102 2.937a1.41 1.41 0 01.959 1.746l-.03.101a1.406 1.406 0 01-1.746.96l-14.613-4.249z" fill="#FDECD6"/><ellipse cx="141.083" cy="35.532" rx="22.701" ry="22.202" fill="#FDA859"/><ellipse cx="139.701" cy="33.202" rx="22.701" ry="22.202" fill="#FCC700"/><ellipse cx="139.574" cy="32.982" rx="17.298" ry="16.501" transform="rotate(-2.95 139.574 32.982)" fill="#FDA859"/><path d="M141.197 49.33c-9.338.888-17.661-5.669-18.821-14.719 0 .163 0 .32.032.483.927 9.293 9.381 16.1 18.886 15.173 9.505-.927 16.458-9.169 15.537-18.468 0-.163-.038-.32-.06-.477.645 9.12-6.226 17.13-15.574 18.008z" fill="#FDA859"/><path d="M137.945 16.625c9.343-.889 17.661 5.669 18.826 14.718 0-.162 0-.32-.038-.482-.921-9.294-9.375-16.1-18.88-15.173-9.505.926-16.463 9.174-15.537 18.468 0 .163.038.32.06.477-.634-9.12 6.237-17.12 15.569-18.008z" fill="#FDA859"/><path fill-rule="evenodd" clip-rule="evenodd" d="M147.7 37.039c-.233-2.363-1.539-3.793-3.301-4.249a4.471 4.471 0 001.626-4.194c-.227-2.325-1.718-3.848-4.276-4.157l-.287-2.872-2.709.26.265 2.667-1.539.146-.26-2.666-2.71.255.266 2.666-2.471.238-1.718.163.265 2.65 1.718-.168 1.279 12.886-1.864.201.26 2.65 1.902-.179 2.466-.233.309 3.1 2.71-.26-.309-3.1 1.539-.146.309 3.1 2.709-.255-.32-3.203c3.003-.732 4.417-2.607 4.141-5.3zm-11.684-9.586l3.663-.347c2.038-.195 3.252.542 3.441 2.216.19 1.675-.905 2.601-2.942 2.796l-4.162.396-.499-5.013.499-.048zm1.095 12.886l4.438-.422.011.016c2.216-.212 3.305-1.144 3.127-2.964-.179-1.821-1.458-2.51-3.675-2.298l-4.752.45.542 5.245.309-.027z" fill="#FCC700"/></svg>