<svg width="202" height="153" xmlns="http://www.w3.org/2000/svg"><defs><linearGradient x1="122.599%" y1="49.986%" x2="-36.282%" y2="49.986%" id="a"><stop stop-color="#5A9E70" offset="0%"/><stop stop-color="#FFCA44" offset="100%"/></linearGradient><linearGradient x1="19.374%" y1="135.376%" x2="58.358%" y2="-9.378%" id="b"><stop stop-color="#FFF" offset="0%"/><stop stop-color="#DADADA" offset="12%"/><stop stop-color="#7E7E7E" offset="45%"/><stop stop-color="#3A3A3A" offset="71%"/><stop stop-color="#101010" offset="90%"/><stop offset="100%"/></linearGradient><linearGradient x1="46.6%" y1="78.683%" x2="57.027%" y2="19.029%" id="c"><stop stop-color="#FFF" offset="0%"/><stop stop-color="#DADADA" offset="12%"/><stop stop-color="#7E7E7E" offset="45%"/><stop stop-color="#3A3A3A" offset="71%"/><stop stop-color="#101010" offset="90%"/><stop offset="100%"/></linearGradient><linearGradient x1="-53.54%" y1="49.967%" x2="46.46%" y2="49.967%" id="d"><stop stop-color="#FFF" offset="0%"/><stop stop-color="#DADADA" offset="12%"/><stop stop-color="#7E7E7E" offset="45%"/><stop stop-color="#3A3A3A" offset="71%"/><stop stop-color="#101010" offset="90%"/><stop offset="100%"/></linearGradient><linearGradient x1="50.408%" y1="-18.866%" x2="50.408%" y2="45.595%" id="e"><stop stop-color="#FFF" offset="0%"/><stop stop-color="#DADADA" offset="12%"/><stop stop-color="#7E7E7E" offset="45%"/><stop stop-color="#3A3A3A" offset="71%"/><stop stop-color="#101010" offset="90%"/><stop offset="100%"/></linearGradient><linearGradient x1="22.237%" y1="143.348%" x2="77.659%" y2="-19.475%" id="f"><stop stop-color="#FFF" offset="0%"/><stop stop-color="#DADADA" offset="12%"/><stop stop-color="#7E7E7E" offset="45%"/><stop stop-color="#3A3A3A" offset="71%"/><stop stop-color="#101010" offset="90%"/><stop offset="100%"/></linearGradient><linearGradient x1="5.5%" y1="148%" x2="78.5%" y2="-18%" id="g"><stop stop-color="#FFF" offset="0%"/><stop stop-color="#DADADA" offset="12%"/><stop stop-color="#7E7E7E" offset="45%"/><stop stop-color="#3A3A3A" offset="71%"/><stop stop-color="#101010" offset="90%"/><stop offset="100%"/></linearGradient><linearGradient x1="50.054%" y1="-21.945%" x2="50.054%" y2="88.5%" id="h"><stop stop-color="#FFF" offset="0%"/><stop stop-color="#DADADA" offset="12%"/><stop stop-color="#7E7E7E" offset="45%"/><stop stop-color="#3A3A3A" offset="71%"/><stop stop-color="#101010" offset="90%"/><stop offset="100%"/></linearGradient><linearGradient x1="50%" y1="-13.881%" x2="50%" y2="87.264%" id="i"><stop stop-color="#FFF" offset="0%"/><stop stop-color="#DADADA" offset="12%"/><stop stop-color="#7E7E7E" offset="45%"/><stop stop-color="#3A3A3A" offset="71%"/><stop stop-color="#101010" offset="90%"/><stop offset="100%"/></linearGradient><linearGradient x1="49.963%" y1="-20.528%" x2="49.963%" y2="83.847%" id="j"><stop stop-color="#FFF" offset="0%"/><stop stop-color="#DADADA" offset="12%"/><stop stop-color="#7E7E7E" offset="45%"/><stop stop-color="#3A3A3A" offset="71%"/><stop stop-color="#101010" offset="90%"/><stop offset="100%"/></linearGradient><linearGradient x1="50.027%" y1="-24.838%" x2="50.027%" y2="85.893%" id="k"><stop stop-color="#FFF" offset="0%"/><stop offset="100%"/></linearGradient><linearGradient x1="0%" y1="50%" x2="100%" y2="50%" id="l"><stop stop-color="#FFF" offset="0%"/><stop offset="100%"/></linearGradient><linearGradient x1="50%" y1="163.531%" x2="50%" y2="6.219%" id="m"><stop stop-color="#FFF" offset="0%"/><stop offset="100%"/></linearGradient><linearGradient x1="95.29%" y1="114.351%" x2="58.855%" y2="70.619%" id="n"><stop stop-color="#FFF" offset="0%"/><stop offset="100%"/></linearGradient><linearGradient x1="50%" y1="-88.226%" x2="50%" y2="33.35%" id="o"><stop stop-color="#FFF" offset="0%"/><stop offset="100%"/></linearGradient><linearGradient x1="50.901%" y1="70.63%" x2="43.701%" y2="1.389%" id="p"><stop stop-color="#FFF" offset="0%"/><stop offset="100%"/></linearGradient></defs><g fill="none" fill-rule="evenodd"><path d="M87.967 16.184h59.663c5.142 0 3.252-2.56-2.16-4.351-5.412-1.792-4.306-9.553-11.096-11.397-5.472-1.505-7.166 2.431-12.85 1.89-5.682-.543-8.588-.874-10.952.812-2.642 1.89-1.505 6.775-6.774 7.167-5.27.391-9.2 1.972-11.503 3.929a7.377 7.377 0 01-4.328 1.95zM25.052 151.122s9.786-6.27 14.724-14.144c4.938-7.874 7.174-10.893 14.302-11.856a31.277 31.277 0 0019.715-11.337c4.953-6.308 15.153-17.516 26.933-16.733 11.78.783 22.99 12.435 29.636 17.885 6.647 5.45 13.166 4.012 16.81 9.613 3.642 5.6 4.817 12.202 10.357 14.573 5.54 2.371 18.458 5.721 20.73 11.999H25.053z" fill="#D9F2D5" fill-rule="nonzero" opacity=".734"/><path d="M39.136 112.528c-4.005-3.206-5.781 4.938-8.37 4.938-2.59 0-2.846-2.664-.844-4.14 2.003-1.475 8.062-2.935 10.539-7.738 2.476-4.803.173-11.487-2.898-10.817-3.071.67-5.473 9.078-8.416 9.613-2.943.534-2.8-2.402-.798-4.517s8.145-5.608 9.078-10.945c.934-5.337-5.239-9.763-7.64-7.633s-.535 11.08-4.14 9.477c-3.606-1.603.135-6.857 2.002-11.705 1.867-4.848.271-11.931-6.541-11.931-6.813 0-8.409 7.083-6.542 11.931 1.867 4.848 5.608 10.102 2.003 11.705-3.606 1.604-1.732-7.347-4.14-9.477-2.41-2.13-8.544 2.258-7.61 7.61.933 5.353 7.075 8.808 9.077 10.946 2.003 2.137 2.138 5.073-.798 4.516-2.935-.557-5.337-8.943-8.408-9.613-3.071-.67-5.344 6.022-2.898 10.817s8.506 6.27 10.539 7.739c2.032 1.468 1.73 4.14-.851 4.14-2.582 0-4.358-8.145-8.363-4.938s-1.739 10.945 8.28 15.356c6.564 2.883 9.748 10.283 9.748 10.283s3.184-7.4 9.786-10.283c9.936-4.389 12.247-12.127 8.205-15.334z" fill="#5E8845" fill-rule="nonzero"/><path stroke="#4C6E37" stroke-width=".71" d="M21.115 70.736v80.379M4.284 99.754s0 8.1 16.824 13.708M4.284 116.315s1.693 5.69 16.824 11.833M8.823 85.18c.361 4.45 2.762 10.058 12.285 13.618M37.91 99.754s0 8.1-16.825 13.708M37.91 116.315s-1.695 5.69-16.825 11.833M33.393 85.18c-.354 4.45-2.755 10.058-12.285 13.618"/><path d="M195.302 128.886c-2.936-2.349-4.238 3.613-6.127 3.613-1.89 0-2.085-1.95-.618-3.011 1.468-1.061 5.902-2.153 7.686-5.668 1.784-3.516.128-8.409-2.115-7.92-2.243.49-4.012 6.648-6.158 7.039-2.145.391-2.055-1.761-.587-3.327 1.468-1.566 5.962-4.103 6.647-8.017.685-3.914-3.816-7.136-5.57-5.57-1.754 1.565-.392 8.114-3.011 6.94-2.62-1.174.097-5.013 1.505-8.566 1.408-3.553.196-8.732-4.787-8.732-4.984 0-6.165 5.179-4.795 8.732 1.37 3.553 4.11 7.392 1.505 8.566-2.604 1.174-1.272-5.375-3.01-6.94-1.74-1.566-6.256 1.663-5.571 5.57.685 3.907 5.186 6.451 6.647 8.017 1.46 1.566 1.565 3.718-.588 3.327s-3.906-6.549-6.157-7.038c-2.25-.49-3.907 4.396-2.115 7.919 1.791 3.523 6.225 4.591 7.685 5.668 1.46 1.076 1.272 3.01-.617 3.01-1.89 0-3.192-5.96-6.127-3.612-2.936 2.348-1.265 8.017 6.067 11.238 4.802 2.116 7.136 7.528 7.136 7.528s2.326-5.412 7.128-7.528c7.212-3.221 8.89-8.897 5.947-11.238z" fill="url(#a)" fill-rule="nonzero"/><path stroke="#343947" stroke-width=".52" d="M182.106 98.286v52.828M169.784 119.537s0 5.924 12.322 10.034M169.784 131.656s1.242 4.17 12.322 8.664M173.111 108.847c.256 3.26 2.017 7.362 9.033 9.967M194.421 119.537s0 5.924-12.315 10.034M194.421 131.656s-1.242 4.17-12.315 8.664M191.094 108.847c-.256 3.26-2.017 7.362-8.988 9.967"/><path stroke="#3358CC" stroke-width=".97" stroke-linecap="round" stroke-linejoin="round" d="M74.681 114.93v-7.31M86.838 142.556h24.72a2.431 2.431 0 002.432-2.432v-6.21"/><path fill="#3358CC" fill-rule="nonzero" opacity=".9" d="M185.456 19.85l-7.497-3.666v3.259l7.497 3.666 7.498-3.666v-3.26z"/><path fill="#3358CC" fill-rule="nonzero" opacity=".75" d="M185.456 23.147l-7.497-3.666v3.26l7.497 3.665 7.498-3.666v-3.26z"/><path fill="#3358CC" fill-rule="nonzero" opacity=".6" d="M185.456 26.444l-7.497-3.666v3.26l7.497 3.665 7.498-3.666v-3.26z"/><path fill="#3358CC" fill-rule="nonzero" opacity=".45" d="M185.456 29.74l-7.497-3.665v3.26L185.456 33l7.498-3.666v-3.26z"/><path fill="#3358CC" fill-rule="nonzero" opacity=".3" d="M185.456 33.038l-7.497-3.666v3.26l7.497 3.665 7.498-3.666v-3.26z"/><path fill="#3358CC" fill-rule="nonzero" opacity=".1" d="M185.456 36.335l-7.497-3.666v3.26l7.497 3.665 7.498-3.666v-3.26z"/><path fill="#3358CC" fill-rule="nonzero" d="M185.456 12.51l-7.497 3.674 7.497 3.665 7.498-3.665z"/><path fill="#3358CC" fill-rule="nonzero" opacity=".9" d="M154.518 19.85l-7.497-3.666v3.259l7.497 3.666 7.497-3.666v-3.26z"/><path fill="#3358CC" fill-rule="nonzero" opacity=".75" d="M154.518 23.147l-7.497-3.666v3.26l7.497 3.665 7.497-3.666v-3.26z"/><path fill="#3358CC" fill-rule="nonzero" opacity=".6" d="M154.518 26.444l-7.497-3.666v3.26l7.497 3.665 7.497-3.666v-3.26z"/><path fill="#3358CC" fill-rule="nonzero" opacity=".45" d="M154.518 29.74l-7.497-3.665v3.26L154.518 33l7.497-3.666v-3.26z"/><path fill="#3358CC" fill-rule="nonzero" opacity=".3" d="M154.518 33.038l-7.497-3.666v3.26l7.497 3.665 7.497-3.666v-3.26z"/><path fill="#3358CC" fill-rule="nonzero" opacity=".1" d="M154.518 36.335l-7.497-3.666v3.26l7.497 3.665 7.497-3.666v-3.26z"/><path fill="#3358CC" fill-rule="nonzero" d="M154.518 12.51l-7.497 3.674 7.497 3.665 7.497-3.665z"/><path d="M158.764 40.354v4.073c0 2.973 5.02 5.382 11.223 5.382 6.203 0 11.224-2.409 11.224-5.382v-4.073h-22.447z" fill="#6582DB" fill-rule="nonzero"/><path d="M169.987 41.755c-4.727 0-8.77-1.408-10.418-3.395a3.086 3.086 0 00-.805 1.994c0 2.974 5.02 5.39 11.223 5.39 6.203 0 11.224-2.416 11.224-5.39a3.124 3.124 0 00-.806-1.994c-1.656 1.987-5.69 3.395-10.418 3.395z" fill="#3358CC" fill-rule="nonzero"/><path d="M158.764 24.208v4.072c0 2.974 5.02 5.39 11.223 5.39 6.203 0 11.224-2.416 11.224-5.39v-4.072h-22.447z" fill="#6582DB" fill-rule="nonzero"/><path d="M158.764 32.3v4.065c0 3.01 5.02 5.39 11.223 5.39 6.203 0 11.224-2.417 11.224-5.39V32.3h-22.447z" fill="#6582DB" fill-rule="nonzero"/><path d="M169.987 33.7c-4.727 0-8.77-1.408-10.418-3.395a3.086 3.086 0 00-.805 1.995c0 2.973 5.02 5.382 11.223 5.382 6.203 0 11.224-2.409 11.224-5.382a3.124 3.124 0 00-.806-1.995c-1.656 1.987-5.69 3.395-10.418 3.395z" fill="#3358CC" fill-rule="nonzero"/><ellipse fill="#3358CC" fill-rule="nonzero" cx="169.987" cy="24.238" rx="11.224" ry="5.39"/><path fill="#000" fill-rule="nonzero" opacity=".2" d="M55.177 44.352h90.097v65.76H55.177z"/><path fill="#FFF" fill-rule="nonzero" d="M54.056 43.079h90.097v65.76H54.056z"/><path fill="#6582DB" fill-rule="nonzero" d="M54.056 43.079h90.097v7.799H54.056z"/><path stroke="#3358CC" stroke-width=".97" stroke-linecap="round" stroke-linejoin="round" d="M95.796 87.146l-17.261 8.445M95.532 74.642l-16.357-8.001M101.148 87.266l16.673 8.16M101.163 74.642l16.801-8.22"/><path fill="#6392F3" fill-rule="nonzero" d="M98.348 85.045l-8.702-4.253v4.743l8.702 4.26 8.701-4.26v-4.743z"/><path fill="#83B9F7" fill-rule="nonzero" d="M98.348 76.532l-8.702 4.26 8.702 4.253 8.701-4.253z"/><path fill="#4E76C9" fill-rule="nonzero" opacity=".2" style="mix-blend-mode:multiply" d="M89.646 80.792v4.743l8.702 4.26v-4.75z"/><path fill="#6392F3" fill-rule="nonzero" d="M98.348 78.188l-8.702-4.26v4.75l8.702 4.26 8.701-4.26v-4.75z"/><path fill="#83B9F7" fill-rule="nonzero" d="M98.348 69.667l-8.702 4.26 8.702 4.26 8.701-4.26z"/><path fill="#4E76C9" fill-rule="nonzero" opacity=".2" style="mix-blend-mode:multiply" d="M89.646 73.927v4.75l8.702 4.26v-4.75z"/><path fill="#6392F3" fill-rule="nonzero" d="M124.89 98.768l-8.71-4.26v4.75l8.71 4.26 8.701-4.26v-4.75z"/><path fill="#83B9F7" fill-rule="nonzero" d="M124.89 90.247l-8.71 4.26 8.71 4.261 8.701-4.26z"/><path fill="#4E76C9" fill-rule="nonzero" opacity=".2" style="mix-blend-mode:multiply" d="M116.18 94.507v4.75l8.71 4.26v-4.749z"/><path fill="#6392F3" fill-rule="nonzero" d="M124.89 91.91l-8.71-4.26v4.75l8.71 4.26 8.701-4.26v-4.75z"/><path fill="#83B9F7" fill-rule="nonzero" d="M124.89 83.39l-8.71 4.26 8.71 4.26 8.701-4.26z"/><path fill="#4E76C9" fill-rule="nonzero" opacity=".2" style="mix-blend-mode:multiply" d="M116.18 87.65v4.75l8.71 4.26v-4.75z"/><path fill="#6392F3" fill-rule="nonzero" d="M124.89 71.067l-8.71-4.26v4.75l8.71 4.26 8.701-4.26v-4.75z"/><path fill="#83B9F7" fill-rule="nonzero" d="M124.89 62.546l-8.71 4.26 8.71 4.26 8.701-4.26z"/><path fill="#4E76C9" fill-rule="nonzero" opacity=".2" style="mix-blend-mode:multiply" d="M116.18 66.806v4.75l8.71 4.26v-4.75z"/><path fill="#6392F3" fill-rule="nonzero" d="M124.89 64.21l-8.71-4.261v4.75l8.71 4.26 8.701-4.26v-4.75z"/><path fill="#83B9F7" fill-rule="nonzero" d="M124.89 55.688l-8.71 4.26 8.71 4.261 8.701-4.26z"/><path fill="#4E76C9" fill-rule="nonzero" opacity=".2" style="mix-blend-mode:multiply" d="M116.18 59.949v4.75l8.71 4.26v-4.75z"/><path fill="#6392F3" fill-rule="nonzero" d="M71.806 98.768l-8.702-4.26v4.75l8.702 4.26 8.709-4.26v-4.75z"/><path fill="#83B9F7" fill-rule="nonzero" d="M71.806 90.247l-8.702 4.26 8.702 4.261 8.709-4.26z"/><path fill="#4E76C9" fill-rule="nonzero" opacity=".2" style="mix-blend-mode:multiply" d="M63.104 94.507v4.75l8.702 4.26v-4.749z"/><path fill="#6392F3" fill-rule="nonzero" d="M71.806 91.91l-8.702-4.26v4.75l8.702 4.26 8.709-4.26v-4.75z"/><path fill="#83B9F7" fill-rule="nonzero" d="M71.806 83.39l-8.702 4.26 8.702 4.26 8.709-4.26z"/><path fill="#4E76C9" fill-rule="nonzero" opacity=".2" style="mix-blend-mode:multiply" d="M63.104 87.65v4.75l8.702 4.26v-4.75z"/><path fill="#6392F3" fill-rule="nonzero" d="M71.806 71.067l-8.702-4.26v4.75l8.702 4.26 8.709-4.26v-4.75z"/><path fill="#83B9F7" fill-rule="nonzero" d="M71.806 62.546l-8.702 4.26 8.702 4.26 8.709-4.26z"/><path fill="#4E76C9" fill-rule="nonzero" opacity=".2" style="mix-blend-mode:multiply" d="M63.104 66.806v4.75l8.702 4.26v-4.75z"/><path fill="#6392F3" fill-rule="nonzero" d="M71.806 64.21l-8.702-4.261v4.75l8.702 4.26 8.709-4.26v-4.75z"/><path fill="#83B9F7" fill-rule="nonzero" d="M71.806 55.688l-8.702 4.26 8.702 4.261 8.709-4.26z"/><path fill="#4E76C9" fill-rule="nonzero" opacity=".2" style="mix-blend-mode:multiply" d="M63.104 59.949v4.75l8.702 4.26v-4.75z"/><path d="M125.018 46.979a1.227 1.227 0 11-2.454.015 1.227 1.227 0 012.454-.015h0z" stroke="#FFF" stroke-width=".52"/><circle stroke="#FFF" stroke-width=".52" cx="130.836" cy="46.979" r="1.219"/><circle stroke="#FFF" stroke-width=".52" cx="137.875" cy="46.979" r="1.219"/><path d="M114.26 36.154H55.299c-4.863 0-3.072-2.424 2.047-4.117 5.119-1.694 4.073-9.033 10.486-10.78 5.179-1.408 6.775 2.304 12.15 1.792 5.374-.512 8.122-.836 10.365.752 2.499 1.784 1.407 6.391 6.39 6.775 4.984.384 8.703 1.867 10.878 3.711 2.175 1.845 6.647 1.867 6.647 1.867z" fill="#D9F2D5" fill-rule="nonzero" opacity=".734"/><path d="M35.56 43.087c-2.672.896-3.402 1.626-4.298 4.298-.903-2.672-1.633-3.402-4.298-4.298 2.665-.903 3.395-1.634 4.298-4.306.896 2.672 1.626 3.403 4.299 4.306zM124.83 30.305c-2.665.896-3.395 1.634-4.299 4.298-.903-2.664-1.633-3.402-4.298-4.298 2.665-.903 3.395-1.633 4.298-4.298.934 2.665 1.634 3.395 4.298 4.298z" fill="#FFF" fill-rule="nonzero"/><circle fill="#FFF" fill-rule="nonzero" cx="197.003" cy="94.507" r="4.298"/><path d="M41.808 35.304a2.153 2.153 0 11-4.298 0 2.153 2.153 0 114.298 0zM118.326 21.092a2.153 2.153 0 11-4.299.254 2.153 2.153 0 014.299-.254zM196.567 64.729a2.153 2.153 0 11-4.298-.255 2.153 2.153 0 014.298.255z" fill="#FFF" fill-rule="nonzero"/><path d="M143.701 145.401c.38 1.874.503 3.791.369 5.698l-2.371-.188-.09-1.008-1.13.888s-4.622-.083-7.068-2.258c0 0 6.526-.286 7.919-2.921l2.371-.21zM171.04 145.235a21.378 21.378 0 011.506 5.51l-2.363.287-.286-.971-.934 1.091s-4.516.813-7.377-.835c0 0 6.354-1.551 7.204-4.412l2.25-.67z" fill="#804E00" fill-rule="nonzero"/><path d="M152.975 94.086s-6.67 14.37-12.413 52.068h3.485s5.864-10.945 5.668-21.83l8.8-21.273s.294 13.85 1.506 20.98c1.212 7.128 8.325 22.123 8.325 22.123h3.395s-1.664-17.313-6.158-22.77c0 0 3.237-19.572 1.37-29.358l-13.978.06z" fill="#343947" fill-rule="nonzero"/><path d="M164.597 98.46l-1.069 26.24s3.569 4.87 7.137 21.484" stroke="#636363" stroke-width=".26"/><path d="M147.758 81.342l-1.272 4.63s-7 11.208-7.618 13.263c-.617 2.055-.624 3.764-.195 4.561l1.693.588.753-.625a4.441 4.441 0 010-2.635c.513.323.85.865.91 1.468a.406.406 0 00.55-.331c.098-.49-.165-2.8-.926-3.659 0 0 6.572-7.663 8.115-10.14a18.442 18.442 0 002.371-5.833l-4.38-1.287z" fill="#FF9C87" fill-rule="nonzero"/><path d="M147.758 81.342l-.587 2.138 1.957 5.969c.271-.376.497-.715.67-.986a18.442 18.442 0 002.371-5.834l-4.41-1.287z" fill="url(#b)" fill-rule="nonzero" opacity=".3" style="mix-blend-mode:multiply"/><path d="M152.094 70.48c-1.174.752-5.27 10.96-5.27 10.96a8.28 8.28 0 005.571 2.544s.618-2.642 1.009-5.27a13.775 13.775 0 00-1.31-8.234z" fill="#3358CC" fill-rule="nonzero"/><path d="M152.132 83.946h.18c.324-.474.753-3.29 1.235-6.428.15-2.44-.351-4.878-1.453-7.06-.542.353-1.709 2.732-2.808 5.186.979 2.943 2.432 7.279 2.846 8.302z" fill="url(#c)" fill-rule="nonzero" opacity=".3" style="mix-blend-mode:multiply"/><path d="M149.813 54.89c1.122-1.257 2.936 0 5.766 0s4.238-.165 5.081 1.107c.844 1.272.136 2.702.851 3.515.715.813 1.724.753 1.762 1.927.037 1.174-1.175 1.506-1.303 2.477-.128.97.648 1.987-2.77 2.634-3.417.648-5.186 2.259-6.842 1.272-1.656-.986-1.506-2.258-1.86-3.485-.353-1.227-1.663-1.505-1.693-2.838-.03-1.332.978-2.31 1.038-3.32.06-1.008-.88-2.355-.03-3.289z" fill="#343947" fill-rule="nonzero"/><path d="M160.405 67.694c1.933.442 3.84.99 5.713 1.641a104.58 104.58 0 011.37 11.555c.248 5.27.88 14.303.88 14.303-2.337.252-4.656.659-6.94 1.219-2.198.685-6.887 1.709-9.786-.24.372-3.393.55-6.803.535-10.216-.098-4.697-.587-12.465-.098-15.446.015-.03 2.409-2.033 8.326-2.816z" fill="#3358CC" fill-rule="nonzero"/><path d="M155.715 92.866c0 6.345 5.143 11.488 11.487 11.488h.286c.133-3.016.02-6.037-.339-9.034.753-.097 1.22-.15 1.22-.15s-.595-8.446-.858-13.775h-.31c-6.336.004-11.474 5.135-11.486 11.471z" fill="url(#d)" fill-rule="nonzero" opacity=".3" style="mix-blend-mode:multiply"/><circle fill="#FFF" fill-rule="nonzero" transform="rotate(-76.81 168.291 91.88)" cx="168.291" cy="91.879" r="11.487"/><path d="M172.373 91.956a3.192 3.192 0 00-2.258-5.495h-.233v-1.054h-1.747v1.054h-1.016v-1.054h-1.799v1.054h-1.317v1.73h1.317v7.385h-1.317v1.8h1.317v1.053h1.8v-1.054h1.015v1.054h1.8v-1.054h.233a3.192 3.192 0 002.258-5.487l-.053.068zm-2.258-3.696a1.4 1.4 0 110 2.792h-3.011v-2.86l3.011.068zm0 7.384h-3.011v-2.793h3.011a1.4 1.4 0 110 2.793z" fill="#6582DB" fill-rule="nonzero"/><circle stroke="#FFA600" stroke-width=".5" cx="168.346" cy="91.911" r="9.312"/><path d="M165.124 80.89l3.854 5.623v11.773l-1.43 5.081h.753a11.434 11.434 0 003.267-.481l-.369-3.644 4.042-14.92-2.183-2.897a11.367 11.367 0 00-7.971-.572l.037.037z" fill="url(#e)" fill-rule="nonzero" opacity=".3" style="mix-blend-mode:multiply"/><path d="M169.882 81.575l2.258 3.418-2.258 13.55s-1.754 4.154-1.506 4.937c.249.783 1.318-1.505 1.318-1.505l-.174 2.59a.632.632 0 00.881.617l1.8-.753c.399-.173.67-.552.707-.986a10.268 10.268 0 00-.527-4.464s4.283-10.388 4.35-13.55c.068-3.01-4.275-7.527-4.275-7.527l-2.574 3.673z" fill="#FF9C87" fill-rule="nonzero"/><path d="M166.118 69.373c2.078.166 7.776 9.161 7.776 9.161a6.986 6.986 0 01-4.381 4.2s-2.597-3.703-4.321-6.022c-1.92-2.664-1.174-7.55.926-7.339z" fill="#3358CC" fill-rule="nonzero"/><path d="M160.405 67.694s-1.506-2.574-1.988-3.718c.911-.392 1.077-2.258 0-2.635-1.076-.376-1.144 1.175-1.144 1.175a7.377 7.377 0 01-.421-1.273 12.308 12.308 0 01-4.464-3.327 9.327 9.327 0 00-.271 3.425l-.85.904 1 .173v2.687c0 .858 1.762.316 2.198.708.437.391 1.348 3.297 1.348 3.297s1.167 1.053 4.592-1.416z" fill="#FF9C87" fill-rule="nonzero"/><path stroke="#27439C" stroke-width=".52" d="M164.439 75.139l2.635 4.11M152.2 83.231l-.317-7.821"/><path d="M157.032 61.89s-2.13 3.44-4.163 3.704c.558.09 1.34 0 1.619.219.361.533.638 1.12.82 1.738a1.4 1.4 0 00.753-.075c1.197-.58 1.235-4.96 1.235-4.96s-.136-.249-.264-.625z" fill="url(#f)" fill-rule="nonzero"/><path d="M157.273 62.516l.203-.753c-.11.237-.18.492-.203.753z" fill="url(#g)" fill-rule="nonzero"/><circle fill="#FFE4A1" fill-rule="nonzero" cx="186.6" cy="79.249" r="8.965"/><path d="M189.74 79.25a2.484 2.484 0 00-1.732-4.284h-.18v-.82h-1.4v.82h-.754v-.82h-1.407v.82h-1.077v1.408h1.032v5.796h-1.032v1.408h1.032v.82h1.407v-.82h.753v.82h1.4v-.82h.18a2.492 2.492 0 001.732-4.291l.045-.038zm-1.732-2.876a1.091 1.091 0 110 2.175h-2.371v-2.175h2.371zm0 5.758h-2.371v-2.175h2.371a1.091 1.091 0 110 2.175z" fill="#F9CA47" fill-rule="nonzero"/><circle stroke="#FFA600" stroke-width=".39" transform="rotate(-22.64 186.599 79.249)" cx="186.599" cy="79.249" r="7.264"/><path d="M187.383 49.154H171.29a2.454 2.454 0 00-2.446 2.447v10.425a2.446 2.446 0 002.446 2.447h2.823a4.788 4.788 0 01-3.01 4.162 4.78 4.78 0 006.556-4.162h9.703a2.446 2.446 0 002.446-2.447V51.601a2.454 2.454 0 00-2.424-2.447z" fill="url(#h)" fill-rule="nonzero" opacity=".3" style="mix-blend-mode:multiply"/><path d="M186.533 48.296h-16.094a2.454 2.454 0 00-2.447 2.446v10.434a2.446 2.446 0 002.447 2.439h2.823a4.772 4.772 0 01-3.011 4.162 4.78 4.78 0 006.556-4.162h9.703a2.446 2.446 0 002.446-2.44V50.75a2.454 2.454 0 00-2.423-2.454z" fill="#FFF" fill-rule="nonzero"/><path d="M181.948 54.913v-1.747a2.86 2.86 0 00-5.72 0v1.747h-.603v6.564h6.926v-6.564h-.603zm-4.938-1.747a2.078 2.078 0 014.155 0v1.747h-4.155v-1.747z" fill="url(#i)" fill-rule="nonzero" opacity=".3" style="mix-blend-mode:multiply"/><path d="M181.346 55.936h-5.683v-3.342a2.86 2.86 0 115.72 0l-.037 3.342zm-4.938-.752h4.155v-2.56a2.078 2.078 0 00-4.155 0v2.56z" fill="#636363" fill-rule="nonzero"/><path fill="#F9CA47" fill-rule="nonzero" d="M175.031 54.333h6.918v6.564h-6.918z"/><path d="M179.336 56.742a.85.85 0 10-1.437.61l-.264 1.716h1.701l-.263-1.716a.82.82 0 00.263-.61z" fill="#0030C2" fill-rule="nonzero"/><path stroke="#636363" stroke-width=".26" d="M174.76 60.19h7.459M174.76 55.041h7.459"/><rect fill="#FFF" fill-rule="nonzero" x="61.681" y="116.285" width="26" height="7.949" rx="1.21"/><path d="M85.43 118.769h-8.084a.361.361 0 01-.354-.362c0-.195.158-.353.354-.353h8.084c.196 0 .354.158.354.353a.361.361 0 01-.354.362z" fill="#5EC778" fill-rule="nonzero"/><circle fill="#BABABA" fill-rule="nonzero" cx="63.962" cy="118.438" r="1"/><path d="M66.724 118.438a.391.391 0 01-.391.39.391.391 0 110-.752.384.384 0 01.391.362zM69.103 118.438a.391.391 0 01-.391.39.391.391 0 110-.752.384.384 0 01.391.362zM71.482 118.438a.391.391 0 01-.392.39.391.391 0 110-.752.384.384 0 01.392.362z" fill="#BABABA" fill-rule="nonzero"/><circle fill="#BABABA" fill-rule="nonzero" cx="63.962" cy="120.267" r="1"/><path d="M66.724 120.267a.391.391 0 01-.391.391.391.391 0 010-.753c.205 0 .376.157.391.362zM69.103 120.267a.391.391 0 01-.391.391.391.391 0 010-.753c.205 0 .375.157.391.362zM71.482 120.267a.391.391 0 01-.392.391.391.391 0 110-.753c.205 0 .376.157.392.362zM64.346 122.066a.391.391 0 01-.783 0 .399.399 0 01.391-.392.391.391 0 01.392.392zM66.724 122.066a.391.391 0 01-.782 0 .399.399 0 01.391-.392c.216 0 .391.176.391.392zM69.103 122.066a.391.391 0 01-.783 0 .399.399 0 01.392-.392.391.391 0 01.391.392zM71.482 122.066a.391.391 0 01-.783 0 .399.399 0 01.391-.392c.217 0 .392.176.392.392z" fill="#BABABA" fill-rule="nonzero"/><path d="M61.674 123.315a.91.91 0 00.91.911H86.77a.91.91 0 00.904-.91h-26z" fill="#D1D1D1" fill-rule="nonzero"/><rect fill="#FFF" fill-rule="nonzero" x="61.681" y="127.433" width="26" height="7.949" rx="1.21"/><path d="M85.43 129.91h-8.084a.354.354 0 01-.354-.354.354.354 0 01.354-.362h8.084a.354.354 0 01.354.362.354.354 0 01-.354.353z" fill="#5EC778" fill-rule="nonzero"/><circle fill="#BABABA" fill-rule="nonzero" cx="63.962" cy="129.578" r="1"/><path d="M66.724 129.593a.391.391 0 01-.391.392.391.391 0 010-.753c.205 0 .376.157.391.361zM69.103 129.593a.391.391 0 01-.391.392.391.391 0 110-.753c.205 0 .375.157.391.361zM71.482 129.593a.391.391 0 01-.392.392.391.391 0 110-.753c.205 0 .376.157.392.361z" fill="#BABABA" fill-rule="nonzero"/><circle fill="#BABABA" fill-rule="nonzero" cx="63.962" cy="131.407" r="1"/><path d="M66.724 131.407a.391.391 0 01-.782 0 .399.399 0 01.391-.391c.216 0 .391.175.391.391zM69.103 131.407a.391.391 0 01-.783 0 .399.399 0 01.392-.391.391.391 0 01.391.391zM71.482 131.407a.391.391 0 01-.783 0 .399.399 0 01.391-.391c.217 0 .392.175.392.391z" fill="#BABABA" fill-rule="nonzero"/><circle fill="#BABABA" fill-rule="nonzero" cx="63.962" cy="133.229" r="1"/><path d="M66.724 133.237a.391.391 0 01-.391.391.399.399 0 01-.391-.391.391.391 0 01.782 0zM69.103 133.237a.391.391 0 01-.391.391.399.399 0 01-.392-.391.391.391 0 01.783 0zM71.482 133.237a.391.391 0 01-.392.391.399.399 0 01-.391-.391.391.391 0 01.783 0z" fill="#BABABA" fill-rule="nonzero"/><path d="M61.674 134.456a.91.91 0 00.91.91H86.77a.91.91 0 00.904-.91h-26z" fill="#D1D1D1" fill-rule="nonzero"/><rect fill="#FFF" fill-rule="nonzero" x="61.681" y="138.574" width="26" height="7.949" rx="1.21"/><path d="M85.43 141.058h-8.084a.361.361 0 010-.723h8.084a.361.361 0 010 .723z" fill="#5EC778" fill-rule="nonzero"/><circle fill="#BABABA" fill-rule="nonzero" cx="63.962" cy="140.727" r="1"/><path d="M66.724 140.727a.391.391 0 01-.782 0 .399.399 0 01.391-.392c.216 0 .391.175.391.392zM69.103 140.727a.391.391 0 01-.783 0 .399.399 0 01.392-.392.391.391 0 01.391.392zM71.482 140.727a.391.391 0 01-.783 0 .399.399 0 01.391-.392c.217 0 .392.175.392.392z" fill="#BABABA" fill-rule="nonzero"/><circle fill="#BABABA" fill-rule="nonzero" cx="63.962" cy="142.548" r="1"/><path d="M66.724 142.556a.391.391 0 01-.391.391.399.399 0 01-.391-.391.391.391 0 11.782 0zM69.103 142.556a.391.391 0 01-.391.391.399.399 0 01-.392-.391.391.391 0 11.783 0zM71.482 142.556a.391.391 0 01-.392.391.399.399 0 01-.391-.391.391.391 0 11.783 0z" fill="#BABABA" fill-rule="nonzero"/><circle fill="#BABABA" fill-rule="nonzero" cx="63.962" cy="144.377" r="1"/><path d="M66.724 144.377a.391.391 0 01-.391.392.391.391 0 110-.753c.205 0 .376.157.391.361zM69.103 144.377a.391.391 0 01-.391.392.391.391 0 110-.753c.205 0 .375.157.391.361zM71.482 144.377a.391.391 0 01-.392.392.391.391 0 010-.753c.205 0 .376.157.392.361z" fill="#BABABA" fill-rule="nonzero"/><path d="M61.674 145.597a.91.91 0 00.91.91H86.77a.91.91 0 00.904-.91h-26z" fill="#D1D1D1" fill-rule="nonzero"/><path stroke="#3358CC" stroke-width=".97" stroke-linecap="round" stroke-linejoin="round" d="M74.681 125.114v1.438M74.681 136.263v1.43"/><path fill="#000" fill-rule="nonzero" opacity=".2" d="M94.102 105.016h41.447v30.502H94.102z"/><path fill="#FFF" fill-rule="nonzero" d="M93.251 104.233h41.447v30.502H93.251z"/><path fill="#6582DB" fill-rule="nonzero" d="M93.251 104.233h41.447v4.411H93.251z"/><path d="M98.167 126.424a17.78 17.78 0 002.258-4.825c.971-3.124 1.95-4.562 4.622-3.583 2.672.979 4.042.52 6.128-2.537 2.085-3.056 3.763-5.48 6.187-5.088 2.424.391 3.2 6.022 5.676 6.714 2.476.693 2.341-1.234 4.366.264 2.025 1.498 1.505 8.144 3.01 9.033l-32.247.022z" fill="#FF9D4E" fill-rule="nonzero"/><path stroke="#BABABA" stroke-width=".52" stroke-linecap="round" stroke-linejoin="round" d="M98.174 128.931h16.975M98.174 130.835h11.698M98.174 132.74h11.503"/><path d="M124.95 106.439a.58.58 0 01-.58.587.587.587 0 110-1.167.58.58 0 01.58.58zM128.736 106.439a.58.58 0 01-.58.587.587.587 0 110-1.167.58.58 0 01.58.58z" stroke="#FFF" stroke-width=".26"/><circle stroke="#FFF" stroke-width=".26" cx="131.943" cy="106.439" r="1"/><path stroke="#276F85" stroke-width=".52" d="M96.345 126.424h36.102"/><path d="M74.305 28.544h-23.6a3.583 3.583 0 00-3.582 3.583V47.43a3.583 3.583 0 003.583 3.583h4.148c-.166 2.778-3.689 4.073-6.15 5.059 1.084 1.242 3.447 1.55 4.366 1.55a7.023 7.023 0 007.008-6.609h14.234a3.59 3.59 0 003.59-3.583V32.127a3.59 3.59 0 00-3.597-3.583z" fill="url(#j)" fill-rule="nonzero" opacity=".3" style="mix-blend-mode:multiply"/><path d="M72.536 27.505h-23.6a3.583 3.583 0 00-3.582 3.59v15.297a3.583 3.583 0 003.583 3.583h4.148a7.008 7.008 0 01-4.389 6.097 6.993 6.993 0 009.613-6.097h14.227a3.59 3.59 0 003.59-3.583V31.096a3.59 3.59 0 00-3.59-3.591z" fill="#FFF" fill-rule="nonzero"/><path d="M61.636 30.5a8.499 8.499 0 01-6.94 4.668c0 11.02 6.94 11.607 6.94 11.607s6.933-.587 6.933-11.607a8.484 8.484 0 01-6.933-4.667z" fill="url(#k)" fill-rule="nonzero" opacity=".2" style="mix-blend-mode:multiply"/><path d="M60.702 29.854a8.499 8.499 0 01-6.94 4.667c0 11.027 6.94 11.607 6.94 11.607s6.933-.58 6.933-11.607a8.484 8.484 0 01-6.933-4.667z" fill="#FFA600" fill-rule="nonzero"/><path d="M60.702 29.854v16.274s-6.94-.58-6.94-11.607a8.499 8.499 0 006.94-4.667z" fill="url(#l)" fill-rule="nonzero" opacity=".2" style="mix-blend-mode:multiply"/><path d="M45.745 92.708s2.83 17.788 3.613 26.196c.783 8.408 1.664 24.736 1.664 24.736s1.761 2.928 7.43.489c0 0-1.468 3.613-4.404 4.787-2.936 1.175-5.472 3.124-6.06 2.153-.587-.97-.195-3.718-.587-6.458-.391-2.74-5.766-20.528-3.906-24.63l-4.397-14.973s-1.37 14.777-2.055 20.25c-.685 5.472-2.544 19.067-1.272 21.31 1.272 2.243 6.94 3.764 7.039 4.765.097 1.001-11.337 1.046-11.435 0 .064-1.764.227-3.524.49-5.27 0 0-3.012-23.455.045-28.74 0 0-1.084-12.412-1.506-15.536-.369-2.703-1.663-6.775.979-9.357l14.362.278z" fill="#277085" fill-rule="nonzero"/><path d="M45.745 92.708l-14.37-.263a5.111 5.111 0 00-1.347 2.258c2.401 1.641 9.183 5.54 16.515 3.17-.467-3.064-.798-5.165-.798-5.165z" fill="url(#m)" fill-rule="nonzero" opacity=".4" style="mix-blend-mode:multiply"/><path d="M64.541 81.184s2.763-2.22 2.914-2.108c.15.113-.964 1.302-.753 1.453a5.36 5.36 0 002.778-.572c.82-.49.692.798.353 1.618-.338.82-2.499 2.258-5.216 1.227l-1.175-.052-.105-1.506 1.204-.06z" fill="#FF9C87" fill-rule="nonzero"/><path d="M37.63 64.586h3.222s-.647 1.181.234 1.769c.88.587 3.545.978 4.366 1.663.82.685 8.205 11.05 8.205 11.05l10.719 1.965v2.115s-12.48 2.447-17.66-5.502l-1.22 8.032 1.71 8.506s-9.237 4.938-17.592-1.611l4.004-7.919c-.11-3.852-.42-7.696-.925-11.517-.685-3.892-.926-5.518.632-5.789 1.558-.27 4.306-2.762 4.306-2.762z" fill="#FF005D" fill-rule="nonzero"/><path d="M52.332 81.282c1.174-1.762-7.67-11.344-7.67-11.344.243 2 .243 4.022 0 6.022-.159.888.67 2.07 1.836 3.124l.218-1.446a18.887 18.887 0 004.2 3.764c.73.166 1.145.286 1.416-.12z" fill="url(#n)" fill-rule="nonzero" opacity=".4" style="mix-blend-mode:multiply"/><path fill="url(#o)" fill-rule="nonzero" opacity=".4" style="mix-blend-mode:multiply" d="M45.18 88.011h-10.9l2.545-14.897h10.9z"/><path d="M37.63 64.586a2.725 2.725 0 01-2.672 2.62c-1.505.097-4.69 0-4.787-1.31-.098-1.31 1.596-1.167 1.656-4.065.06-2.899-.098-7.528 4.63-8.28 4.727-.754 7 .812 7.233 3.65.294 3.553 1.506 4.449 1.272 5.51-.557 2.507-4.125.663-4.471 1.875h-2.86z" fill="#263238" fill-rule="nonzero"/><path d="M40.988 55.605c.52.565.917 1.231 1.167 1.957.231.503.72.838 1.272.874-.18.423-.514.762-.934.948 0 0 .512 2.349.143 3.011-.368.662-1.851.437-2.002.873-.097.425-.145.86-.143 1.295h-2.86c.054-1.1.014-2.204-.12-3.297a12.895 12.895 0 003.477-5.66z" fill="#FF9C87" fill-rule="nonzero"/><path fill="#FFF" fill-rule="nonzero" d="M46.408 86.935h-10.9l2.537-14.897h10.9z"/><path d="M35.771 146.575c-.451-.79-.504-3.01-.361-5.78-1.367.178-2.75.178-4.118 0 .294 3.146.573 5.306.573 5.306a46.746 46.746 0 00-.49 5.27c.098 1.046 11.532 1 11.435 0-.098-1.002-5.767-2.545-7.039-4.796zM58.452 144.136c-5.669 2.44-7.43-.489-7.43-.489s-.098-1.814-.256-4.516c-1.428.521-2.93.816-4.449.873.55 2.213.986 3.922 1.084 4.622.392 2.74 0 5.48.587 6.458.588.979 3.132-.978 6.06-2.152 2.928-1.175 4.404-4.796 4.404-4.796z" fill="#FF9C87" fill-rule="nonzero"/><path d="M50.074 146.44l-2.484.527c.06 1.829 0 3.417.398 4.11.588.97 3.132-.979 6.06-2.153 2.928-1.174 4.404-4.788 4.404-4.788-5.669 2.44-7.43-.489-7.43-.489-1.927.783-.948 2.793-.948 2.793zM42.81 151.34c-.098-1.008-5.767-2.514-7.039-4.765a.316.316 0 010-.075 2.808 2.808 0 00-1.776 2.258l-2.258-.835h-.038a24.713 24.713 0 00-.256 3.47c.03.994 11.464.948 11.367-.053z" fill="#343947" fill-rule="nonzero"/><path d="M41.522 80.988l1.19-.346s2.521-1.716 3.146-1.558c.625.158-1.272.956-1.19 1.196.084.241 2.575.076 3.08-.248.504-.324-.181 1.31-.685 1.822a5.051 5.051 0 01-4.42.752l-1.64.407.52-2.025z" fill="#FF9C87" fill-rule="nonzero"/><path d="M34.356 67.469c1.98.692 2.296 3.809 1.152 5.924s-4.818 8.574-4.818 8.574l11.209-1.37.323 2.408s-12.706 6.196-15.446 3.011c-2.74-3.184 2.123-11.29 2.838-13.293.715-2.002 1.806-6.293 4.742-5.254z" fill="#FF005D" fill-rule="nonzero"/><path stroke="#73002A" stroke-width=".52" d="M32.67 78.444l2.838-4.871"/><path d="M46.746 141.72l4.073-1.61a843.277 843.277 0 00-.58-9.463l-10.538-29.575-.58 3.944 4.396 14.972c-1.536 3.342 1.746 15.755 3.23 21.732z" fill="url(#p)" fill-rule="nonzero" opacity=".4" style="mix-blend-mode:multiply"/></g></svg>