<svg width="198" height="148" xmlns="http://www.w3.org/2000/svg"><g transform="translate(.753 .753)" fill="none" fill-rule="evenodd"><path d="M182.226 146.155H40.719c-4.305-3.925-9.133-7.533-11.577-12.805-2.444-5.273-2.437-12.15 1.582-16.364 4.854-5.095 12.963-4.402 19.787-6.082 7.867-1.94 15.023-8.259 16.028-16.3 1.303-10.379-7.393-19.866-6.85-30.313.425-8.236 7.419-15.636 15.614-16.533 5.543-.606 11.298 1.424 16.646-.128 4.964-1.442 8.545-5.649 12.857-8.5 5.062-3.34 11.528-4.794 17.362-3.133 5.834 1.66 10.77 6.707 11.554 12.722.836 6.402-2.636 13.663 1.047 18.95 2.75 3.944 8.237 4.704 13.038 4.55 4.802-.155 9.924-.799 14.142 1.506 3.924 2.136 6.26 6.553 6.696 11.001.437 4.448-.802 8.91-2.636 12.986-1.6 3.562-3.66 6.93-4.866 10.642-1.205 3.714-1.45 7.98.509 11.359 2.063 3.551 6.067 5.4 9.332 7.909 5.77 4.372 10.809 11.283 11.242 18.533z" fill="#BCDFEB" fill-rule="nonzero"/><path d="M59.467 139.707c-16.898-4.854-31.634-18.01-39.34-35.111-3.18-7.061-5.221-14.899-4.741-22.747.48-7.849 3.701-15.69 9.477-20.397 5.777-4.708 14.191-5.729 20.3-1.548 5.903 4.037 8.714 11.784 13.81 16.947 6.111 6.169 15.81 7.97 23.178 3.74 7.369-4.23 11.512-14.51 8.826-23.105-2.49-7.958-9.523-12.903-15.634-18.024-6.112-5.122-12.189-12.32-11.315-20.673.753-7.178 6.56-12.57 12.654-15.369 11.705-5.367 26.794-2.983 34.735 7.777 8.573 11.577 6.923 28.468 3.059 42.738s-9.557 28.723-7.634 43.449c1.599 12.24 8.556 23.244 17.785 30.422 9.23 7.178 20.554 10.734 31.869 11.49 11.315.758 23.406-1.532 31.765-9.851 8.36-8.32 11.173-23.844 3.798-33.187-3.822-4.836-9.53-7.291-15.02-9.513-5.49-2.222-11.214-4.55-15.191-9.235-3.978-4.685-5.525-12.51-1.778-17.425 4.333-5.687 15.882-6.312 19.956-12.218 2.911-4.214-.49-12.33-3.798-16.314" stroke="#CDF4FF" stroke-width="2.54" stroke-dasharray="7.62"/><path d="M53.219 117.905A87.75 87.75 0 0132.29 98.623c-2.455-3.149-4.715-6.497-6.206-10.202-1.491-3.706-2.18-7.804-1.45-11.728.527-2.817 2.056-5.747 4.775-6.647 2.124-.704 4.52.026 6.293 1.397 1.774 1.37 3.013 3.303 4.11 5.25 4.236 7.532 6.838 15.818 9.972 23.873a95.282 95.282 0 005.14 11.317 55.361 55.361 0 003.254 5.25c1.078 1.507 3.032 3.167 3.71 4.817-1.548 1.228-7.223-3.096-8.67-4.045z" fill="#92A44B" fill-rule="nonzero"/><path d="M30.795 74.317a82.831 82.831 0 0025.79 42.91" stroke="#C0D254" stroke-width="2.02"/><path d="M159.234 117.988a69.91 69.91 0 0018.525-13.11c2.26-2.237 4.403-4.655 5.962-7.434 1.559-2.78 2.53-5.95 2.354-9.133-.125-2.282-1.036-4.756-3.096-5.75-1.608-.776-3.582-.441-5.122.459s-2.723 2.301-3.789 3.732c-4.142 5.518-7.039 11.822-10.345 17.867a76.425 76.425 0 01-5.235 8.424 43.182 43.182 0 01-3.115 3.819c-1.009 1.096-2.722 2.196-3.427 3.43 1.111 1.135 6.049-1.701 7.288-2.304z" fill="#429C9B" fill-rule="nonzero"/><path d="M181.457 85.803a66.08 66.08 0 01-24.814 31.3" stroke="#57BABD" stroke-width="1.61"/><path d="M56.66 107.1c4.283-21.116-.282-43.886-12.37-61.718" stroke="#4B5923" stroke-width="2.54"/><path d="M45.57 47.468a15.332 15.332 0 01-10.342-17.117c3.66.983 7.099 3.258 9.039 6.508 1.94 3.25 2.146 6.915 1.303 10.61zM49.407 54.304a11.84 11.84 0 016.369-14.067c.979 2.76 1.035 5.943-.181 8.606-1.217 2.662-3.461 4.391-6.188 5.46z" fill="#4B5923" fill-rule="nonzero"/><path d="M49.652 54.036a11.833 11.833 0 00-15.44-.105c2.097 2.041 4.963 3.427 7.908 3.438 2.945.012 5.42-1.292 7.532-3.333zM53.757 65.15a11.833 11.833 0 018.722-12.74c.482 2.888-.019 6.025-1.68 8.443-1.66 2.418-4.172 3.728-7.042 4.297z" fill="#4B5923" fill-rule="nonzero"/><path d="M54.043 64.958a11.83 11.83 0 00-15.185-2.798c1.71 2.376 4.29 4.24 7.156 4.76 2.866.52 5.581-.35 8.03-1.962zM56.638 76a11.83 11.83 0 019.792-11.935c.23 2.919-.542 6.026-2.407 8.286-1.864 2.26-4.477 3.325-7.385 3.649z" fill="#4B5923" fill-rule="nonzero"/><path d="M56.94 75.82a11.833 11.833 0 00-14.884-4.11c1.506 2.516 3.905 4.599 6.73 5.367 2.824.768 5.589.15 8.153-1.258z" fill="#4B5923" fill-rule="nonzero"/><path d="M58.303 87.931a11.833 11.833 0 0111.531-10.27c-.226 2.919-1.468 5.852-3.66 7.792-2.192 1.94-4.945 2.617-7.871 2.478z" fill="#61A9B8" fill-rule="nonzero"/><path d="M58.63 87.807a11.825 11.825 0 00-14.066-6.369c1.088 2.72 3.145 5.149 5.815 6.346 2.67 1.198 5.498 1.017 8.251.023z" fill="#4B5923" fill-rule="nonzero"/><path d="M156.371 114.38c-4.636-21.04-.451-43.882 11.336-61.918" stroke="#4B5923" stroke-width="2.54"/><path d="M166.46 54.571a15.32 15.32 0 0010.056-17.286c-3.645 1.043-7.046 3.39-8.94 6.658-1.895 3.27-2.019 6.949-1.115 10.628z" fill="#61A9B8" fill-rule="nonzero"/><path d="M162.736 61.47a11.825 11.825 0 00-6.598-13.957c-.934 2.776-.934 5.958.324 8.602s3.532 4.324 6.274 5.356z" fill="#4B5923" fill-rule="nonzero"/><path d="M162.488 61.222a11.83 11.83 0 0115.44-.377c-2.06 2.08-4.895 3.51-7.83 3.57-2.933.06-5.464-1.205-7.61-3.193z" fill="#61A9B8" fill-rule="nonzero"/><path d="M158.57 72.388a11.83 11.83 0 00-8.932-12.593c-.433 2.896.116 6.025 1.819 8.413 1.702 2.388 4.233 3.65 7.114 4.18z" fill="#4B5923" fill-rule="nonzero"/><path d="M158.28 72.185a11.837 11.837 0 0115.14-3.05c-1.672 2.406-4.221 4.312-7.091 4.895-2.87.584-5.585-.26-8.048-1.845z" fill="#4B5923" fill-rule="nonzero"/><path d="M155.874 83.287a11.833 11.833 0 00-9.995-11.772c-.18 2.922.644 5.999 2.546 8.225 1.902 2.226 4.534 3.269 7.45 3.547z" fill="#61A9B8" fill-rule="nonzero"/><path d="M155.57 83.107a11.83 11.83 0 0114.811-4.354c-1.453 2.538-3.826 4.662-6.64 5.476-2.813.813-5.566.245-8.172-1.122zM154.41 95.252a11.833 11.833 0 00-11.702-10.074c.279 2.915 1.567 5.826 3.793 7.728 2.225 1.902 4.982 2.523 7.908 2.346z" fill="#61A9B8" fill-rule="nonzero"/><path d="M154.078 95.124a11.833 11.833 0 0113.957-6.605c-1.04 2.737-3.058 5.2-5.71 6.443-2.65 1.243-5.479 1.111-8.247.162z" fill="#61A9B8" fill-rule="nonzero"/><path d="M53.331 128.552c1.172-2.128 2.723-4.101 3.744-6.29a57.493 57.493 0 00-9.415-9.287 85.965 85.965 0 00-6.986-5.005l-6.644 5.273c.377-3.073.61-5.747.93-8.662a87.912 87.912 0 00-15.44-6.557c-1.228 1.981-2.26 4.083-3.932 5.781a51.366 51.366 0 00-.501-7.05A82.1 82.1 0 00.072 94.333a50.213 50.213 0 00.339 6.113c1.321-.4 2.346-1.507 3.766-1.725-.927 2.237-1.76 4.692-2.859 6.963A52.955 52.955 0 007.4 121.042c2.328-1.37 4.52-3.257 7.318-4.421-.49 4.29-.497 8.779-.866 13.121a49.336 49.336 0 004.737 4.52 50.255 50.255 0 009.638 6.292c.697-2.658 1.42-5.306 3.144-7.532 2.034 3.864 4.237 7.306 6.083 11.125a51.667 51.667 0 0023.726 1.13c1.303-.248 2.391-2.327 2.798-3.589.407-1.262.324-2.636.143-3.94a30.038 30.038 0 00-4.263-11.5c-2.301.534-4.625 1.174-6.527 2.304z" fill="#5E8845" fill-rule="nonzero"/><path d="M55.535 141.27a218.116 218.116 0 01-48.933-39.261" stroke="#4C6E37" stroke-width="2.54"/><path d="M160.213 132.811c-1.096-1.46-2.463-2.76-3.457-4.282a43.107 43.107 0 016.025-7.908 63.85 63.85 0 014.67-4.47l5.51 3.223c-.618-2.26-1.07-4.214-1.62-6.35a66.023 66.023 0 0110.783-6.53c1.13 1.345 2.132 2.798 3.544 3.883a38.768 38.768 0 01-.377-5.299 61.47 61.47 0 0110.922-3.412c.22 1.516.347 3.044.376 4.576-1.024-.155-1.905-.874-2.967-.882.922 1.563 1.808 3.307 2.866 4.896a39.759 39.759 0 01-2.885 12.078c-1.883-.772-3.706-1.94-5.92-2.508.824 3.14 1.31 6.481 2.048 9.671a37.284 37.284 0 01-3.043 3.872 37.89 37.89 0 01-6.504 5.717c-.802-1.906-1.623-3.8-3.144-5.273-1.1 3.096-2.373 5.894-3.34 8.933a38.873 38.873 0 01-17.55 3.371c-.995-.045-2.027-1.48-2.464-2.373a6.73 6.73 0 01-.527-2.915 22.596 22.596 0 011.947-9.016c1.774.132 3.57.362 5.107.998z" fill="#5E8845" fill-rule="nonzero"/><path d="M159.93 142.51a164.005 164.005 0 0032.23-34.442" stroke="#DDF8FF" stroke-width="1.91"/><rect fill="#263238" fill-rule="nonzero" x="49.614" y="70.701" width="113.069" height="75.453" rx="10.81"/><circle fill="#5D6062" fill-rule="nonzero" transform="rotate(-76.66 157.936 108.44)" cx="157.936" cy="108.44" r="3.438"/><path d="M52.025 121.185a1.088 1.088 0 01-1.089-1.092v-23.35a1.088 1.088 0 012.177 0v23.35a1.088 1.088 0 01-1.088 1.092z" fill="#5D6062" fill-rule="nonzero"/><path fill="#DCE8F4" fill-rule="nonzero" d="M54.661 73.484h98.506v69.883H54.661z"/><path fill="#A6AFB8" fill-rule="nonzero" d="M54.661 73.484h98.506v4.696H54.661z"/><path fill="#FC6047" fill-rule="nonzero" d="M56.277 76.026h1.247v1.586h-1.247zM57.896 74.923h1.247v2.689h-1.247zM59.61 74.158h1.247v3.453H59.61z"/><path d="M145.34 74.445v.226a.331.331 0 01-.33.331h-.377a.328.328 0 00-.332.331v1.002a.328.328 0 00.332.328h.376c.182.002.33.15.332.331v.23c0 .181.146.328.327.328h5.133a.328.328 0 00.328-.328v-2.78a.328.328 0 00-.328-.33h-5.133a.328.328 0 00-.327.33z" fill="#DCE8F4" fill-rule="nonzero"/><rect fill="#6E9333" fill-rule="nonzero" x="149.777" y="74.283" width="1.16" height="3.096" rx=".32"/><rect fill="#6E9333" fill-rule="nonzero" x="148.357" y="74.283" width="1.16" height="3.096" rx=".32"/><rect fill="#6E9333" fill-rule="nonzero" x="146.937" y="74.283" width="1.16" height="3.096" rx=".32"/><path d="M142.765 75.834a1.322 1.322 0 11-2.644 0 1.322 1.322 0 012.644 0z" fill="#DCE8F4" fill-rule="nonzero"/><path fill="#C3CED9" fill-rule="nonzero" d="M60.89 83.457h86.047v54.525H60.89z"/><path fill="#A7B1BA" fill-rule="nonzero" d="M60.89 83.457h86.047v4.7H60.89z"/><path fill="#E0EDFA" fill-rule="nonzero" d="M88.864 90.594h56.333v2.237H88.864zM88.864 94.853h31.089v2.237H88.864zM88.864 99.109h16.729v2.237H88.864zM88.864 106.49h56.333v2.237H88.864zM88.864 110.75h31.089v2.237H88.864zM88.864 115.005h16.729v2.237H88.864zM88.864 122.014h56.333v2.237H88.864zM88.864 126.273h31.089v2.237H88.864zM88.864 130.529h16.729v2.237H88.864zM64.264 90.594h21.847v12.3H64.264z"/><path fill="#CEDAE6" fill-rule="nonzero" d="M64.264 102.894l10.922-6.15 10.925 6.15zM86.111 90.594l-10.925 6.15-10.922-6.15z"/><path fill="#E0EDFA" fill-rule="nonzero" d="M64.264 106.419h21.847v12.3H64.264z"/><path fill="#CEDAE6" fill-rule="nonzero" d="M64.264 118.719l10.922-6.15 10.925 6.15z"/><path fill="#CEDAE6" fill-rule="nonzero" d="M86.111 106.419l-10.925 6.15-10.922-6.15z"/><path fill="#E0EDFA" fill-rule="nonzero" d="M64.264 122.244h21.847v12.3H64.264z"/><path fill="#CEDAE6" fill-rule="nonzero" d="M64.264 134.544l10.922-6.15 10.925 6.15zM86.111 122.244l-10.925 6.15-10.922-6.15z"/><g opacity=".44" fill="#FFF" fill-rule="nonzero"><path d="M89.862 73.484l-35.201 35.202V77.925l4.444-4.44zM111.224 73.484L54.66 130.047v-15.735l40.828-40.828z"/></g><g opacity=".44" fill="#FFF" fill-rule="nonzero"><path d="M153.167 81.088v30.761l-31.523 31.519H90.891zM153.167 117.472v15.739l-10.161 10.157H127.27z"/></g><path d="M71.28 71.571l29.203-22.63a5.122 5.122 0 016.274 0l29.199 22.63v37.925H71.28V71.57z" fill="#EE8F23" fill-rule="nonzero"/><path fill="#FAFAFA" fill-rule="nonzero" d="M78.764 51.468h49.716v54.676H78.764z"/><path fill="#DFDEEE" fill-rule="nonzero" d="M81.754 54.759h43.732v1.668H81.754zM81.754 58.111h37.164v1.668H81.754zM81.754 61.459h31.134v1.668H81.754zM81.754 67.892h31.134v1.668H81.754zM81.754 71.108h23.094v1.668H81.754zM103.62 77.849h23.094v1.668H103.62zM107.932 81.129h18.785v1.668h-18.785z"/><path fill="#FDA859" fill-rule="nonzero" d="M103.62 90.545L71.28 71.594v37.902zM103.62 90.545l32.34-18.951v37.902z"/><path d="M100.483 86.865l-29.202 22.63h64.675l-29.203-22.63a5.122 5.122 0 00-6.27 0z" fill="#FFC38B" fill-rule="nonzero"/><circle fill="#E8505B" fill-rule="nonzero" transform="rotate(-74.47 135.97 71.603)" cx="135.969" cy="71.603" r="5.058"/><path fill="#FFF" fill-rule="nonzero" d="M134.826 69.029v4.877h-1.382v-3.811h-.904v-1.066zM138.897 71.225c.33.28.512.697.49 1.13a1.57 1.57 0 01-.234.832c-.172.268-.42.479-.712.606a2.742 2.742 0 01-1.179.226 4.23 4.23 0 01-1.02-.124 2.866 2.866 0 01-.87-.358l.493-1.036c.2.132.418.232.648.298.23.07.468.106.708.105.197.01.393-.037.565-.135a.43.43 0 00.215-.377.407.407 0 00-.211-.376 1.552 1.552 0 00-.754-.125h-1.306l.24-2.85h3.111v1.065h-1.965l-.065.712h.328a2.312 2.312 0 011.518.407z"/><path d="M52.59 26.642a4.425 4.425 0 012.286.712 4.312 4.312 0 011.555 1.807c.25.492.396 1.03.426 1.582.023.443-.08.883-.298 1.27a2.026 2.026 0 01-.915.82c-.296.151-.626.221-.957.204a1.39 1.39 0 01-.817-.377 1.778 1.778 0 01-1.13 1.54 2.098 2.098 0 01-1.175.196 2.361 2.361 0 01-1.164-.467 2.806 2.806 0 01-.87-1.096 2.855 2.855 0 01-.305-1.363 2.26 2.26 0 01.377-1.19c.222-.343.535-.617.904-.791a1.85 1.85 0 011.563-.083l-.219-.463 1.533-.727 1.364 2.866c.059.16.172.292.32.377a.407.407 0 00.376 0c.394-.189.36-.769-.101-1.74a3.356 3.356 0 00-1.172-1.39 3.186 3.186 0 00-1.698-.527 4.2 4.2 0 00-1.943.448 3.932 3.932 0 00-1.556 1.258 3.33 3.33 0 00-.633 1.736c-.041.65.089 1.3.377 1.883a3.834 3.834 0 001.224 1.506 3.224 3.224 0 001.729.614 3.95 3.95 0 001.943-.41 4.708 4.708 0 001.672-1.307l.829.844c-.254.306-.545.579-.867.813-.352.269-.73.5-1.13.693a5.487 5.487 0 01-2.67.58 4.52 4.52 0 01-2.346-.787 4.817 4.817 0 01-1.623-1.951 4.741 4.741 0 01-.475-2.478 4.493 4.493 0 01.885-2.32 5.555 5.555 0 012.155-1.714 5.46 5.46 0 012.546-.568zm.482 5.502a1.273 1.273 0 00-.12-.923 1.243 1.243 0 00-.637-.666 1.04 1.04 0 00-1.341.636 1.506 1.506 0 00.753 1.586c.26.11.555.1.806-.03a.968.968 0 00.539-.603zM138.404 28.642l-.486 1.566 1.393.256-.263 1.439-1.57-.29-.52 1.62-1.507-.28.52-1.619-1.371-.252-.516 1.62-1.507-.28.52-1.619-1.405-.26.264-1.434 1.582.29.486-1.567-1.405-.26.263-1.435 1.582.29.52-1.62 1.506.28-.52 1.619 1.371.252.516-1.62 1.507.28-.52 1.619 1.405.256-.264 1.439-1.581-.29zm-1.507-.28l-1.37-.251-.487 1.566 1.371.253.486-1.567z" fill="#BCDFEB" fill-rule="nonzero"/><path d="M65.786 125.554H47.038c-5.69 0-10.304-4.613-10.304-10.304a10.3 10.3 0 0110.304-10.3h8.448a10.296 10.296 0 0110.3 10.3v10.304zM158.3 138.26h-18.752v-10.303c0-5.69 4.614-10.304 10.304-10.304h8.448c5.69 0 10.304 4.613 10.304 10.304 0 5.69-4.614 10.304-10.304 10.304z" fill="#FDA859" fill-rule="nonzero"/><path d="M161.795 125.012c0-2.915-4.636-5.42-7.717-2.904-3.08-2.516-7.717 0-7.717 2.904 0 0-.994 5.713 7.717 9.86 8.71-4.147 7.717-9.86 7.717-9.86z" stroke="#FAFAFA" stroke-width="3.81" stroke-linejoin="round"/><path d="M133.398 2.207a3.399 3.399 0 00-.376-.116 3.766 3.766 0 00-1.066-1.778 3.766 3.766 0 00-1.066 1.8 3.766 3.766 0 00-1.781 1.07c.395.421.882.746 1.423.949.117.045.238.083.354.117.034.116.072.237.117.376.204.542.53 1.029.953 1.424.441-.401.78-.902.987-1.461.041-.12.083-.238.113-.354a3.766 3.766 0 001.77-1.07 3.717 3.717 0 00-1.428-.957zM5.216 81.905a3.967 3.967 0 00-.358-.116 3.529 3.529 0 00-.117-.354 3.736 3.736 0 00-.949-1.424 3.766 3.766 0 00-1.065 1.781 3.789 3.789 0 00-1.785 1.07c.4.412.887.729 1.427.926.117.045.237.083.354.117.034.12.071.237.117.377.204.541.53 1.028.952 1.423.423-.395.75-.882.953-1.423.045-.117.083-.238.117-.354.12-.034.237-.072.354-.117a3.766 3.766 0 001.427-.953 3.728 3.728 0 00-1.427-.953zM143.22 58.823a3.399 3.399 0 00-.376-.117 3.766 3.766 0 00-1.066-1.778 3.766 3.766 0 00-1.066 1.782 3.766 3.766 0 00-1.781 1.07c.395.42.882.746 1.423.949.117.045.238.082.354.116a3.766 3.766 0 001.07 1.781c.427-.396.755-.888.957-1.434.04-.12.082-.237.112-.354a9.92 9.92 0 00.377-.117 3.766 3.766 0 001.424-.953 3.717 3.717 0 00-1.428-.945z" fill="#BCDFEB" fill-rule="nonzero"/><path d="M192.79 9.596a1.665 1.665 0 00-.181-.056 1.883 1.883 0 00-.535-.893 1.883 1.883 0 00-.475.716 2.44 2.44 0 00-.06.177c-.019.06-.117.038-.177.06a1.883 1.883 0 00-.715.475 1.883 1.883 0 00.892.535 1.883 1.883 0 00.531.87c.214-.197.377-.44.478-.712.023-.06.042-.12.06-.181a1.883 1.883 0 00.893-.535 1.92 1.92 0 00-.712-.456z" fill="#DBF6FF" fill-rule="nonzero"/><path d="M34.927 63.949a1.695 1.695 0 00-.181-.06 1.92 1.92 0 00-.535-.893c-.21.2-.373.444-.474.715-.023.06-.042.12-.06.181a1.883 1.883 0 00-.893.535 1.924 1.924 0 00.892.53 1.936 1.936 0 00.535.896 1.85 1.85 0 00.478-.714 3.27 3.27 0 00.06-.177c.02-.06.117-.038.178-.06.271-.102.516-.265.715-.475a1.883 1.883 0 00-.715-.478zM8.741 139.229a1.604 1.604 0 00-.177-.057c0-.06-.038-.12-.06-.177a1.85 1.85 0 00-.475-.715 1.883 1.883 0 00-.534.892 1.695 1.695 0 00-.181.06c-.27.102-.514.264-.712.475.197.212.44.376.712.478l.177.057c0 .06.037.12.06.18.101.272.265.516.478.712a1.883 1.883 0 00.535-.892 1.823 1.823 0 00.893-.535 1.883 1.883 0 00-.716-.478zM110.075 26.167a1.665 1.665 0 00-.18-.056 3.388 3.388 0 00-.061-.181 1.883 1.883 0 00-.475-.712c-.21.198-.374.442-.478.712-.022.06-.04.12-.056.18a1.695 1.695 0 00-.181.061c-.27.101-.514.264-.712.475.198.21.441.373.712.474.06.023.12.045.177.06.056.015.038.12.06.181.101.272.265.516.478.712a1.883 1.883 0 00.535-.893 1.883 1.883 0 00.893-.535 1.883 1.883 0 00-.712-.478zM40.91 1.921l-.18-.06c0-.057-.037-.117-.06-.177a1.883 1.883 0 00-.475-.712 1.883 1.883 0 00-.474.716 1.13 1.13 0 00-.06.18 1.883 1.883 0 00-.893.535c.198.211.441.373.712.475l.18.06a1.883 1.883 0 00.535.893 1.883 1.883 0 00.535-.893 1.883 1.883 0 00.893-.535 1.838 1.838 0 00-.712-.482zM188.71 66.13l-.18-.061c0-.057-.034-.117-.056-.177a1.92 1.92 0 00-.479-.716c-.21.2-.373.444-.474.716-.023.06-.042.12-.06.18a1.883 1.883 0 00-.893.535c.199.212.444.374.715.475l.177.06a1.936 1.936 0 00.535.893 1.85 1.85 0 00.479-.716c.022-.056.041-.117.06-.177l.177-.056c.27-.105.515-.268.715-.479a1.883 1.883 0 00-.715-.478z" fill="#BCDFEB" fill-rule="nonzero"/><path d="M118.037 41.186l-.181-.056a1.883 1.883 0 00-.535-.893 1.913 1.913 0 00-.535.893c-.019.06-.117.038-.177.06a1.883 1.883 0 00-.715.475 1.936 1.936 0 00.892.534 1.883 1.883 0 00.535.893c.213-.196.377-.44.478-.712.024-.059.044-.12.06-.18a1.883 1.883 0 00.893-.535 1.92 1.92 0 00-.715-.479z" fill="#DBF6FF" fill-rule="nonzero"/><path d="M91.113 12.93a2.568 2.568 0 00-.317-.102 2.516 2.516 0 00-.101-.313 3.292 3.292 0 00-.836-1.254c-.37.349-.655.778-.833 1.254-.041.106-.075.211-.105.313a3.292 3.292 0 00-1.548.942c.349.37.778.654 1.254.832.102.04.206.074.313.101a3.333 3.333 0 00.938 1.57 3.303 3.303 0 00.941-1.566 3.333 3.333 0 001.567-.938 3.303 3.303 0 00-1.273-.84zM27.176 43.337a3.46 3.46 0 00-.316-.106 2.467 2.467 0 00-.102-.308 3.276 3.276 0 00-.832-1.255 3.292 3.292 0 00-.836 1.255 3.39 3.39 0 00-.106.312c-.101.03-.207.064-.312.106a3.276 3.276 0 00-1.255.832c.348.372.778.658 1.255.836.101.04.206.075.312.102a3.265 3.265 0 00.942 1.567 3.295 3.295 0 00.937-1.564 3.303 3.303 0 001.567-.942 3.246 3.246 0 00-1.254-.835z" fill="#BCDFEB" fill-rule="nonzero"/><path d="M51.52 121.882h-5.446a.753.753 0 01-.46-.124.708.708 0 01-.323-.61v-7.57c-.015-.149.003-.3.053-.44a.723.723 0 01.674-.456h.591c.117 0 .113 0 .117-.117 0-.301 0-.606.037-.908.041-.421.147-.834.313-1.224a4.73 4.73 0 012.173-2.41 4.459 4.459 0 012.482-.55 4.677 4.677 0 013.883 2.422 4.55 4.55 0 01.553 1.57c.054.374.073.753.057 1.13 0 .083.026.102.105.102h.663a.727.727 0 01.753.568.81.81 0 01.02.192v7.683a.716.716 0 01-.54.73.998.998 0 01-.26.024H51.52v-.012zm-.041-9.197h2.971c.075 0 .102-.022.098-.101-.004-.08 0-.211 0-.32a3.1 3.1 0 00-.493-1.699 3.054 3.054 0 00-3.284-1.333 2.979 2.979 0 00-1.669 1.054 2.85 2.85 0 00-.644 1.42c-.037.279-.041.561-.053.844 0 .135 0 .135.132.135h2.942zm1.291 6.625a.324.324 0 00-.018-.057c-.189-.47-.377-.937-.573-1.408-.053-.14-.068-.11.057-.192a1.303 1.303 0 10-2.015-1.149c-.034.48.206.936.621 1.179.06.038.075.068.05.132-.17.407-.336.813-.498 1.216l-.117.294 2.493-.015z" fill="#FFF" fill-rule="nonzero"/></g></svg>