<?xml version="1.0" encoding="UTF-8"?>
<svg width="95px" height="95px" viewBox="0 0 95 95" version="1.1" xmlns="http://www.w3.org/2000/svg" xmlns:xlink="http://www.w3.org/1999/xlink">
    <title>eth</title>
    <defs>
        <circle id="path-1" cx="42" cy="42" r="42"></circle>
        <filter x="-10.1%" y="-7.7%" width="120.2%" height="120.2%" filterUnits="objectBoundingBox" id="filter-2">
            <feOffset dx="0" dy="2" in="SourceAlpha" result="shadowOffsetOuter1"></feOffset>
            <feGaussianBlur stdDeviation="2.5" in="shadowOffsetOuter1" result="shadowBlurOuter1"></feGaussianBlur>
            <feColorMatrix values="0 0 0 0 0   0 0 0 0 0   0 0 0 0 0  0 0 0 0.2 0" type="matrix" in="shadowBlurOuter1"></feColorMatrix>
        </filter>
        <linearGradient x1="50%" y1="0%" x2="50%" y2="100%" id="linearGradient-3">
            <stop stop-color="#FFFFFF" stop-opacity="0.5" offset="0%"></stop>
            <stop stop-color="#000000" stop-opacity="0.5" offset="100%"></stop>
        </linearGradient>
        <path d="M20.9944,50.3104 L42,38.1248 L20.9944,67.186 L0,38.122 L20.9944,50.3048 L20.9944,50.3104 Z M20.9944,0 L41.986,34.216 L20.9944,46.4044 L0,34.216 L20.9944,0 Z" id="path-4"></path>
        <filter x="-13.1%" y="-5.2%" width="126.2%" height="116.4%" filterUnits="objectBoundingBox" id="filter-5">
            <feOffset dx="0" dy="2" in="SourceAlpha" result="shadowOffsetOuter1"></feOffset>
            <feGaussianBlur stdDeviation="1.5" in="shadowOffsetOuter1" result="shadowBlurOuter1"></feGaussianBlur>
            <feColorMatrix values="0 0 0 0 0   0 0 0 0 0   0 0 0 0 0  0 0 0 0.13 0" type="matrix" in="shadowBlurOuter1"></feColorMatrix>
        </filter>
    </defs>
    <g id="eth" stroke="none" stroke-width="1" fill="none" fill-rule="evenodd">
        <g id="ethereum-icon" transform="translate(5.500000, 5.500000)">
            <g id="b-link" fill="#000000" fill-rule="nonzero">
                <circle id="b" cx="42" cy="42" r="42"></circle>
            </g>
            <g id="b-link" fill-rule="nonzero">
                <g id="b">
                    <use fill="black" fill-opacity="1" filter="url(#filter-2)" xlink:href="#path-1"></use>
                    <use fill="#728FFF" xlink:href="#path-1"></use>
                </g>
            </g>
            <g id="b-link" style="mix-blend-mode: soft-light;" fill="url(#linearGradient-3)" fill-rule="nonzero">
                <circle id="b" cx="42" cy="42" r="42"></circle>
            </g>
            <circle id="Oval" stroke-opacity="0.04" stroke="#000000" stroke-width="3" cx="42" cy="42" r="40.6"></circle>
            <g id="Group" transform="translate(22.400000, 8.400000)">
                <g id="e-link" fill="#000000" fill-rule="nonzero">
                    <path d="M20.9944,50.3104 L42,38.1248 L20.9944,67.186 L0,38.122 L20.9944,50.3048 L20.9944,50.3104 Z M20.9944,0 L41.986,34.216 L20.9944,46.4044 L0,34.216 L20.9944,0 Z" id="e"></path>
                </g>
                <g id="e">
                    <use fill="black" fill-opacity="1" filter="url(#filter-5)" xlink:href="#path-4"></use>
                    <use fill="#FFFFFF" fill-rule="evenodd" xlink:href="#path-4"></use>
                </g>
            </g>
            <g id="Group" transform="translate(22.400000, 8.400000)" fill-rule="nonzero">
                <polygon id="Path" fill="#C5CFF7" points="20.9944 0 20.9944 24.836 41.986 34.216"></polygon>
                <polygon id="Path" fill="#FFFFFF" points="20.9944 0 0 34.216 20.9944 24.836"></polygon>
                <polygon id="Path" fill="#BDC7F5" points="20.9944 50.3104 20.9944 67.186 42 38.1248"></polygon>
                <polygon id="Path" fill="#FFFFFF" points="20.9944 67.186 20.9944 50.3076 0 38.1248"></polygon>
                <polygon id="Path" fill="#8197EE" points="20.9944 46.4044 41.986 34.216 20.9944 24.8416"></polygon>
                <polygon id="Path" fill="#C0CCF7" points="0 34.216 20.9944 46.4044 20.9944 24.8416"></polygon>
            </g>
        </g>
    </g>
</svg>