<svg width="249" height="208" xmlns="http://www.w3.org/2000/svg"><g fill="none" fill-rule="nonzero"><path d="M14.129 140.546l8.138 2.47-6.513.324a120.609 120.609 0 005.07 7.571l12.276 1.82-10.015 1.317a64.563 64.563 0 006.473 7.654c5.598-.15 11.579-.066 11.579-.066l-8.248 3.395a43.455 43.455 0 0010.956 7.7c.62.284.005.028.62.284l7.964-.675-3.882 2.392c16.428 6.32 22.575 1.143 22.575 1.143.04-.326.057-.655.054-.983 0-.684-.041-1.366-.122-2.045-.357-3.353-1.81-9.495-6.927-17.98l-1.843 5.693-.52-8.021a49.973 49.973 0 00-1.594-1.837c-1.787-2.002-1.356-1.947-3.712-3.62l-2.462 7.96-.898-10.42a54.823 54.823 0 00-4.42-2.721l-.583 8.021-3.034-9.809a54.629 54.629 0 00-7.095-3.206l-.525 8.353-3.621-9.785a58.447 58.447 0 00-8.652-2.67l.452 7.178-3.689-8.23c-6.953-1.66-14.106-2.807-14.106-2.807a120.622 120.622 0 006.304 11.6z" fill="#5E8845"/><path d="M14.569 87.286a15.524 15.524 0 014.667 10.323c.322.598.682 1.286 1.091 2.057a20.744 20.744 0 015.24-9.674 15.541 15.541 0 01-4.908 10.298c.675 1.276 1.45 2.733 2.339 4.353.409.748.839 1.528 1.29 2.34.21.384.438.777.661 1.17a27.045 27.045 0 019.163-13.093 20.346 20.346 0 01-9 13.377c.204.346.402.692.604 1.032.973 1.742 2.081 3.539 3.238 5.447.52.853 1.067 1.725 1.599 2.61 1.343-6.362 4.862-12.101 9.526-16.612a24.668 24.668 0 01-9.029 17.4c1.3 2.049 2.674 4.152 4.119 6.277l.099.045-.061.01a91.978 91.978 0 001.676 2.404 27.886 27.886 0 0111.616-18.262c-1.47 7.387-5.555 13.988-10.995 19.137a229.35 229.35 0 007.48 9.913c.197.239.39.5.582.712-.08-9.043 3.927-18.34 10.55-24.336-.469 9.191-4.312 17.839-10.058 24.932.91 1.12 1.787 2.19 2.64 3.155.581.683 1.15 1.357 1.692 1.98.543.62 1.077 1.198 1.58 1.759l.042.043c.973-8.557 5.787-16.903 12.693-21.838-1.426 8.603-5.946 16.385-12.086 22.506 3.65 4.007 5.935 6.246 5.93 6.543-.005.194-1.746-1.121-4.677-3.924-5.79 4.192-12.925 6.15-20.047 6.183a25.98 25.98 0 0119.553-6.665c-.46-.448-.951-.936-1.468-1.449l-.044.042-.014-.077-.084-.088-1.628-1.677c-.567-.6-1.149-1.255-1.75-1.917-.217-.235-.44-.492-.664-.731-8.033 4.098-17.3 5.202-26.193 3.935a33.263 33.263 0 0125.313-4.958c-.72-.853-1.492-1.747-2.275-2.668a159.09 159.09 0 01-3.066-3.826c-8.744 2.618-18.162 1.99-26.763-.974a33.235 33.235 0 0125.978-.054 207.245 207.245 0 01-4.658-6.335 189.751 189.751 0 01-2.069-3.05c-7.044 2.38-14.736 2.273-21.88.276a27.948 27.948 0 0121.043-1.535 232.137 232.137 0 01-4.413-7.016 24.607 24.607 0 01-18.503-5.493 31.856 31.856 0 0117.72 4.157c-1.065-1.845-2.09-3.588-2.991-5.28-.483-.9-.966-1.765-1.409-2.598l-.532-1.044c-4.166 1.199-8.656.19-11.908-2.677a16.259 16.259 0 0111.466 1.815c-.094-.177-.182-.355-.268-.522a170.407 170.407 0 01-2.152-4.391.078.078 0 00-.006-.033l-.277-.6A15.457 15.457 0 019.75 95.075a20.02 20.02 0 019.682 4.06c-.203-.437-.376-.839-.544-1.213a20.61 20.61 0 01-4.318-10.636z" fill="#92A44B"/><path d="M239.39 160.05l-6.999.434 5.169 1.484c-1.85 1.822-3.315 3.236-5.51 5.113l-10.171-.864 7.77 2.954a53.472 53.472 0 01-6.628 4.918c-4.475-1.21-9.301-2.246-9.301-2.246l5.972 4.294a35.725 35.725 0 01-10.258 4.091l-.55.111-6.282-2.066 2.658 2.667c-14.386 1.947-18.344-3.36-18.344-3.36.035-.27.082-.536.144-.8.134-.548.297-1.088.49-1.618.924-2.64 3.264-7.276 8.982-13.106l.379 4.91 1.942-6.334c.527-.388 1.063-.786 1.631-1.174 1.813-1.262 1.461-1.299 3.666-2.191l.463 6.846 2.704-8.182a46.89 46.89 0 014.059-1.345l-1.054 6.546 4.294-7.29a45.965 45.965 0 016.31-1.226l-1.169 6.805 4.766-7.16a48.48 48.48 0 017.448-.5l-1.73 5.672 4.545-5.922c5.894 0 11.853.43 11.853.43a98.466 98.466 0 01-7.249 8.109z" fill="#5E8845"/><path d="M223.968 131.578l-4.48 3.629 4.161-1.47a83.001 83.001 0 01-1.252 6.051l-7.24 4.28 6.616-1.724a44.38 44.38 0 01-2.095 6.472c-3.573 1.322-7.299 2.931-7.299 2.931l6.047.028a29.332 29.332 0 01-4.919 7.628c-.314.337 0 .023-.314.337l-5.169 1.595 3.051.522c-8.709 8.164-13.868 6.495-13.868 6.495a6.01 6.01 0 01-.282-.605c-.18-.428-.334-.867-.462-1.313-.63-2.219-1.28-6.43-.232-13.064l2.594 3.106-1.715-5.182c.166-.508.337-1.03.536-1.562.61-1.71.356-1.567 1.387-3.236l3.578 4.368-2.094-6.772a39.374 39.374 0 012.08-2.839l2.413 4.891-.596-6.934a37.907 37.907 0 013.638-3.828l2.46 5.118-.223-7.073a39.798 39.798 0 014.794-3.86l1.549 4.623.217-6.135c3.939-2.815 8.141-5.362 8.141-5.362a81.306 81.306 0 01-1.022 8.885z" fill="#92A44B"/><g transform="translate(44 32)"><path d="M196.846 36.189a4531.398 4531.398 0 01-13.798 21.77l-6.93 10.866-6.942 10.856-6.957 10.85-6.97 10.838-6.976 10.835-6.992 10.826-1.492 2.311.522-2.702a8282.174 8282.174 0 015.984-30.583l3.018-15.287 3.03-15.28 3.058-15.278 3.078-15.279a8439.449 8439.449 0 016.256-30.53 4679.627 4679.627 0 01-5.684 30.637l-2.893 15.31-2.92 15.307-2.943 15.301-2.957 15.3c-1.99 10.201-3.983 20.395-5.977 30.58l-.965-.39 7.01-10.812 7.026-10.803 7.026-10.8 7.049-10.789 7.06-10.776 7.072-10.774a7184.421 7184.421 0 0114.207-21.504z" opacity=".5" fill="#FFF"/><path d="M180.89 41.433c.206 1.462.374 2.925.538 4.388.085.733.153 1.465.23 2.203.077.738.149 1.466.218 2.202.137 1.468.264 2.937.381 4.405.118 1.468.228 2.936.33 4.404l-.666-.487 2.506-.62a367.109 367.109 0 017.542-1.762l2.522-.55 2.528-.527c1.689-.338 3.38-.677 5.08-.963-1.639.536-3.292 1.022-4.945 1.514l-2.48.709a423.4 423.4 0 01-2.489.688 376.613 376.613 0 01-7.495 1.946l-2.506.617-.627.154-.04-.64a372.418 372.418 0 01-.446-8.81c-.03-.734-.054-1.468-.073-2.202-.02-.736-.048-1.471-.06-2.202-.034-1.521-.058-2.991-.047-4.467zM167.023 58.444c.196 1.86.344 3.723.496 5.587.151 1.863.275 3.726.388 5.59.113 1.863.22 3.73.325 5.594.106 1.863.184 3.731.265 5.596l-.62-.512 2.83-.413 2.833-.396 2.836-.377 1.418-.19 1.42-.176c.947-.116 1.892-.239 2.84-.35l2.843-.328c1.897-.202 3.793-.413 5.699-.567-1.87.398-3.746.746-5.622 1.101l-2.816.504c-.94.168-1.88.322-2.821.483l-1.41.241-1.411.227-2.826.455-2.826.436-2.829.421-.596.09-.023-.602a506.793 506.793 0 01-.203-5.6c-.055-1.866-.113-3.732-.138-5.6-.025-1.868-.062-3.736-.077-5.605-.015-1.87-.015-3.739.025-5.61zM154.29 2.534c.71 1.216 1.368 2.454 2.025 3.693.657 1.239 1.29 2.49 1.91 3.74.62 1.25 1.24 2.515 1.832 3.783.592 1.267 1.187 2.536 1.768 3.811l-.77-.23 1.403-.853 1.408-.843c.942-.55 1.885-1.11 2.836-1.651.95-.541 1.904-1.08 2.868-1.603a99.207 99.207 0 012.91-1.532 92.794 92.794 0 01-2.658 1.937 134.21 134.21 0 01-2.704 1.867c-.913.612-1.82 1.215-2.734 1.815l-1.378.892-1.378.881-.51.325-.26-.55a273.177 273.177 0 01-1.757-3.818c-.575-1.277-1.14-2.56-1.693-3.846a174.426 174.426 0 01-1.615-3.883 95.274 95.274 0 01-1.503-3.935zM141.183 28.375a212.07 212.07 0 013.794 4.748c.62.802 1.24 1.599 1.858 2.404l1.838 2.417 1.818 2.43a334.6 334.6 0 011.807 2.44 451.648 451.648 0 013.57 4.911l-.848-.028 1.561-1.848 1.572-1.84 1.576-1.833 1.59-1.823a165.58 165.58 0 011.602-1.815c.537-.601 1.067-1.208 1.611-1.804a195.521 195.521 0 013.28-3.565 195.78 195.78 0 01-2.91 3.872c-.487.643-.987 1.276-1.481 1.913-.495.637-.99 1.273-1.495 1.902l-1.497 1.894-1.516 1.883-1.522 1.88-1.535 1.87-.436.533-.413-.562a612.586 612.586 0 01-3.556-4.92c-.59-.827-1.175-1.653-1.755-2.478l-1.744-2.478-1.725-2.5c-.573-.834-1.136-1.675-1.705-2.513a205.827 205.827 0 01-3.34-5.09zM186.614 100.737a863.903 863.903 0 00-10.433 9.465c-3.451 3.182-6.9 6.369-10.346 9.56-3.43 3.205-6.855 6.416-10.276 9.635l-5.123 4.832-5.105 4.851.876.483c.65-3.26 1.27-6.524 1.904-9.787l.472-2.448.463-2.449.924-4.899.91-4.903.451-2.451.444-2.453c.593-3.27 1.17-6.545 1.73-9.823-.744 3.24-1.47 6.485-2.177 9.733l-.533 2.435-.524 2.438-1.045 4.875-1.029 4.879-.512 2.439-.504 2.442c-.67 3.255-1.353 6.508-2.005 9.773l-.322 1.611 1.198-1.128 5.126-4.829 5.108-4.848c3.41-3.227 6.805-6.47 10.185-9.729a2994.13 2994.13 0 0010.116-9.8c3.36-3.286 6.703-6.588 10.027-9.904z" opacity=".5" fill="#FFF"/><ellipse fill="#F98A93" cx="84.174" cy="93.179" rx="83.247" ry="76.862"/><path d="M84.174 16.317c4.255 1.272 8.39 2.929 12.437 4.768a118.623 118.623 0 0111.794 6.217c3.816 2.3 7.48 4.841 10.973 7.607a89.72 89.72 0 015.07 4.35c.405.382.827.755 1.218 1.145l1.196 1.167 1.17 1.195.291.298.286.306.568.612.57.614.55.627c.367.413.746.825 1.102 1.262l1.074 1.283 1.038 1.311a75.525 75.525 0 013.857 5.47 74.473 74.473 0 013.322 5.813 72.907 72.907 0 012.731 6.117c.382 1.05.79 2.091 1.12 3.166l.26.796c.043.138.09.266.129.4l.115.401.465 1.61c.15.539.275 1.084.413 1.625l.202.813c.064.276.119.55.178.826l.346 1.64.288 1.651c.047.276.098.55.138.826l.113.826.225 1.66.167 1.667.083.826.054.835.107 1.673.048 1.674.024.836c.012.276 0 .558 0 .837l-.013 1.675v.413l-.018.413-.036.837c-.027.55-.04 1.115-.08 1.671l-.128 1.67c-.023.275-.04.55-.067.834l-.09.826-.191 1.683-.238 1.652-.12.826-.145.826-.295 1.652-.348 1.638-.175.826-.201.812-.405 1.625-.459 1.61c-.078.276-.149.539-.234.805l-.255.798-.256.797c-.087.266-.167.533-.265.794l-.563 1.578-.138.393-.154.39-.309.778c-3.296 8.307-8.164 15.953-14.114 22.59a90.552 90.552 0 01-9.624 9.26 104.372 104.372 0 01-10.79 7.846 115.864 115.864 0 01-11.661 6.469c-4.006 1.927-8.11 3.659-12.346 4.997a63.345 63.345 0 003.127-1.143 79.76 79.76 0 003.075-1.272 115.614 115.614 0 0017.549-9.444c3.71-2.419 7.264-5.07 10.64-7.938a94.678 94.678 0 004.904-4.466 95.18 95.18 0 004.564-4.808 81.583 81.583 0 004.167-5.15l.492-.666c.165-.222.33-.442.486-.669l.95-1.357c.31-.456.61-.92.915-1.377.306-.457.597-.927.887-1.397.594-.93 1.134-1.892 1.69-2.845.523-.972 1.063-1.927 1.545-2.925.51-.979.957-1.988 1.426-2.986.428-1.015.884-2.019 1.27-3.053a72.74 72.74 0 003.689-12.682l.288-1.627.137-.815.116-.826.234-1.637.178-1.643.09-.826c.026-.275.042-.55.064-.826l.124-1.652c.039-.55.05-1.1.076-1.652l.035-.825.016-.413v-.413l.014-1.652c0-.275.012-.55 0-.826l-.022-.826-.046-1.652-.103-1.651-.051-.826-.08-.826-.162-1.652-.22-1.636-.111-.82c-.041-.275-.092-.55-.138-.814l-.275-1.629-.34-1.617c-.057-.268-.11-.54-.171-.808l-.2-.801c-.138-.534-.258-1.071-.404-1.602l-.453-1.585-.113-.398c-.038-.137-.084-.261-.125-.392l-.256-.786c-.326-1.053-.72-2.082-1.092-3.119a72.234 72.234 0 00-2.664-6.048 69.179 69.179 0 00-3.25-5.76c-1.168-1.87-2.45-3.67-3.785-5.427l-1.018-1.306-1.05-1.28c-.347-.43-.717-.84-1.077-1.258l-.544-.626-.558-.612c-5.95-6.54-12.942-12.106-20.46-16.786a117.907 117.907 0 00-17.734-9.075c-1.027-.42-2.06-.826-3.098-1.215a67.683 67.683 0 00-3.152-1.09zM84.174 16.317c-1.05.334-2.084.711-3.113 1.1-1.03.39-2.046.809-3.065 1.222A114.934 114.934 0 0060.483 27.8a103.798 103.798 0 00-10.64 7.75 95.727 95.727 0 00-4.895 4.396 77.102 77.102 0 00-4.552 4.742 82.875 82.875 0 00-4.147 5.092 75.39 75.39 0 00-3.68 5.435c-1.15 1.855-2.181 3.795-3.155 5.755l-.701 1.48c-.23.498-.44 1.003-.66 1.503l-.324.753-.302.762-.3.763c-.1.253-.205.506-.292.765l-.551 1.544c-.095.256-.178.517-.259.777l-.25.782-.249.78c-.085.259-.15.524-.227.787l-.442 1.578-.393 1.592c-.064.266-.137.53-.191.796l-.165.804c-.11.535-.226 1.068-.327 1.605l-.275 1.616c-.043.275-.098.538-.138.81l-.108.811c-.07.543-.15 1.084-.21 1.626l-.159 1.632c-.025.276-.055.55-.074.817l-.051.817-.1 1.637-.042 1.64-.022.818c-.008.276 0 .55 0 .826l.015 1.64v.414l.017.413.034.826c.025.55.037 1.093.073 1.638l.12 1.636.062.818.087.816.173 1.631.226 1.624.113.813c.039.275.091.54.138.808l.275 1.616c.102.538.22 1.07.33 1.607l.166.803c.055.267.127.531.189.798l.386 1.593c.137.528.29 1.054.435 1.581l.219.79.244.784c.165.52.324 1.044.493 1.563.365 1.031.703 2.065 1.102 3.086l.292.767.147.383.159.378.634 1.514c.216.501.451.995.676 1.495l.342.745.362.736.364.735c.12.245.24.493.37.733l.77 1.449c.258.482.537.952.806 1.429l.413.713.426.7.427.702.214.35.221.345.893 1.377c.617.903 1.227 1.813 1.879 2.692a77.633 77.633 0 004.07 5.158 93.566 93.566 0 004.461 4.829 93.8 93.8 0 004.812 4.487 99.626 99.626 0 005.097 4.162c1.742 1.331 3.57 2.587 5.389 3.806a112.676 112.676 0 0011.358 6.69 103.095 103.095 0 005.958 2.837c1.01.445 2.024.872 3.041 1.281 1.022.413 2.05.803 3.094 1.154-4.194-1.352-8.251-3.104-12.208-5.045-3.959-1.947-7.8-4.125-11.504-6.523a102.133 102.133 0 01-10.614-7.905 97.6 97.6 0 01-4.889-4.464 79.313 79.313 0 01-4.545-4.83c-5.82-6.657-10.55-14.299-13.743-22.565-.413-1.026-.764-2.078-1.134-3.121-.173-.526-.334-1.056-.501-1.583l-.25-.793-.223-.8c-.147-.533-.3-1.065-.443-1.6l-.394-1.614c-.063-.268-.138-.537-.192-.807l-.17-.813c-.112-.542-.233-1.082-.337-1.626l-.286-1.636c-.045-.276-.1-.544-.138-.818l-.116-.826-.23-1.652-.179-1.651-.09-.826-.064-.826-.124-1.652c-.038-.55-.05-1.101-.077-1.652l-.036-.825-.016-.413v-.413l-.013-1.66c0-.276-.01-.551 0-.826l.022-.826.047-1.66.103-1.652.053-.826c.02-.275.052-.55.078-.826l.163-1.651c.062-.551.138-1.102.216-1.652l.11-.826c.035-.275.09-.55.138-.826l.276-1.638c.103-.55.223-1.086.333-1.628l.17-.814c.06-.275.137-.538.195-.808l.397-1.63.452-1.599c.078-.266.137-.534.231-.797l.255-.791.253-.792c.084-.264.17-.527.266-.787l.564-1.565c3.118-8.302 7.915-15.934 13.854-22.485a80.1 80.1 0 014.632-4.743 87.773 87.773 0 014.975-4.379 103.189 103.189 0 0110.79-7.664A115.388 115.388 0 0171.87 21.13c4-1.854 8.089-3.529 12.304-4.813z" fill="#D26C7C"/><path d="M83.699 16.317c.69.524 1.35 1.086 1.978 1.683.157.149.317.296.473.446l.461.458c.313.302.605.621.907.934a55.998 55.998 0 013.358 3.972 71.412 71.412 0 015.659 8.731 85.357 85.357 0 014.426 9.426l.488 1.207.447 1.224.447 1.224.222.612.203.618.812 2.478c.253.826.489 1.666.735 2.5.12.413.248.826.36 1.25l.325 1.262.325 1.262.163.63.081.316.072.318.564 2.543.138.636.072.318.06.32.241 1.28.481 2.56.402 2.572.202 1.287c.037.214.064.43.09.645l.08.647.324 2.583a167.18 167.18 0 011.044 20.785c-.082 6.939-.487 13.88-1.377 20.768l-.356 2.58c-.06.43-.117.86-.18 1.29l-.215 1.284-.43 2.567c-.033.214-.073.428-.117.641l-.125.639-.252 1.277c-.316 1.707-.722 3.396-1.102 5.093-.05.212-.094.424-.15.635l-.164.629-.33 1.26c-.221.84-.43 1.683-.688 2.513l-.736 2.498-.809 2.478c-.259.826-.569 1.64-.86 2.458l-.444 1.224c-.149.413-.318.808-.477 1.212a90.847 90.847 0 01-4.33 9.47 74.75 74.75 0 01-5.51 8.822 56.85 56.85 0 01-3.266 4.048 42.84 42.84 0 01-1.79 1.882 23.55 23.55 0 01-1.93 1.734c.66-.561 1.29-1.159 1.884-1.789.602-.62 1.175-1.27 1.737-1.927a58.084 58.084 0 003.168-4.102 74.401 74.401 0 005.305-8.892 90.81 90.81 0 004.16-9.478c.15-.404.312-.804.454-1.212l.425-1.222c.276-.815.58-1.625.827-2.451l.777-2.47.704-2.491c.245-.826.443-1.667.654-2.504l.314-1.255.157-.628c.053-.21.095-.421.138-.632l.551-2.527c.198-.84.34-1.692.507-2.538l.242-1.27.122-.637c.04-.212.08-.424.111-.637l.413-2.556.206-1.279c.06-.426.113-.855.17-1.283l.337-2.567a182.36 182.36 0 001.314-20.665l-.014-5.18-.161-5.175-.157-2.585-.077-1.292c-.03-.43-.044-.862-.09-1.292l-.231-2.574c-.082-.858-.138-1.72-.254-2.575l-.306-2.57-.075-.643a14.07 14.07 0 00-.086-.641l-.191-1.28-.385-2.56-.46-2.547-.231-1.273-.06-.318-.067-.317-.138-.631-.54-2.539-.067-.316-.077-.314-.155-.628-.31-1.256-.308-1.257c-.106-.413-.23-.826-.344-1.247-.236-.826-.46-1.663-.704-2.49l-.78-2.468-.194-.617-.215-.61-.43-1.22-.428-1.222-.467-1.207a85.958 85.958 0 00-4.254-9.431 71.164 71.164 0 00-5.455-8.799 56.463 56.463 0 00-3.264-4.027c-.29-.32-.574-.646-.876-.956l-.448-.469c-.151-.154-.305-.306-.458-.458a23.747 23.747 0 00-1.922-1.733z" fill="#D26C7C"/><path d="M83.699 16.317a23.518 23.518 0 00-1.929 1.735c-.152.153-.308.305-.458.459l-.448.47c-.303.309-.585.635-.878.954a56.827 56.827 0 00-3.262 4.028 71.164 71.164 0 00-5.455 8.798 85.958 85.958 0 00-4.254 9.432l-.467 1.207-.428 1.221-.43 1.221-.215.61-.195.616-.779 2.468c-.243.826-.468 1.662-.704 2.49-.114.413-.238.826-.344 1.248l-.31 1.256-.308 1.257-.155.628-.078.314-.066.316-.543 2.531-.138.632-.069.317-.058.318-.231 1.273-.46 2.546-.389 2.566-.191 1.28c-.036.212-.06.427-.085.642l-.076.643-.306 2.57c-.114.854-.172 1.716-.255 2.575l-.233 2.578c-.044.43-.058.862-.088 1.291l-.078 1.293-.157 2.58-.162 5.175-.013 5.18c.045 6.907.483 13.806 1.314 20.664l.336 2.567c.058.428.11.857.17 1.283l.206 1.279.413 2.556c.032.213.07.425.112.637l.121.636.243 1.27c.166.847.308 1.7.506 2.539l.558 2.527c.047.21.089.423.138.632l.159.628.314 1.255c.21.837.413 1.677.654 2.504l.704 2.491.777 2.47c.248.826.55 1.636.826 2.451l.426 1.222c.138.413.304.808.456 1.212a90.81 90.81 0 004.159 9.478 74.401 74.401 0 005.305 8.892 57.677 57.677 0 003.168 4.102 41.763 41.763 0 001.737 1.927c.594.63 1.223 1.228 1.883 1.79a23.798 23.798 0 01-1.935-1.735 39.125 39.125 0 01-1.79-1.882 57.312 57.312 0 01-3.267-4.048 75.112 75.112 0 01-5.51-8.822 90.836 90.836 0 01-4.329-9.47c-.158-.404-.327-.804-.476-1.212l-.444-1.224c-.293-.818-.602-1.63-.86-2.458l-.81-2.478-.735-2.498c-.256-.826-.464-1.673-.689-2.512l-.33-1.261-.164-.63c-.055-.21-.1-.422-.15-.634-.385-1.693-.793-3.382-1.103-5.093l-.252-1.277-.126-.639a16.917 16.917 0 01-.117-.641l-.429-2.567-.215-1.285c-.064-.43-.12-.86-.18-1.29l-.356-2.579c-.883-6.882-1.288-13.83-1.377-20.768a167.445 167.445 0 011.043-20.785l.323-2.583.082-.647c.026-.215.053-.431.09-.645l.202-1.287.402-2.572.48-2.56.242-1.28.06-.32.07-.318.138-.636.565-2.543.072-.318.081-.316.163-.63.323-1.262.325-1.261c.112-.42.242-.834.361-1.251.246-.834.481-1.67.736-2.5l.811-2.478.203-.618.223-.612.445-1.224.448-1.224.487-1.207a85.619 85.619 0 014.43-9.426 71.25 71.25 0 015.665-8.728 54.79 54.79 0 013.359-3.973c.3-.312.593-.631.905-.933l.461-.458c.156-.15.316-.297.473-.446a23.976 23.976 0 011.986-1.686z" fill="#D26C7C"/><path d="M140.25 36.372c-1.14-.325-2.28-.657-3.422-.975a163.974 163.974 0 00-3.434-.925c-2.296-.592-4.6-1.152-6.914-1.651a189.875 189.875 0 00-13.972-2.566 187.398 187.398 0 00-14.116-1.506 188.367 188.367 0 00-14.189-.435c-4.734.041-9.458.235-14.179.611-.59.037-1.18.098-1.769.149l-1.767.164c-.59.048-1.178.115-1.766.18l-1.765.193c-2.351.275-4.7.578-7.042.925-1.174.158-2.342.363-3.51.55-1.168.187-2.333.4-3.5.606-.583.105-1.167.204-1.748.314l-1.744.342-1.744.343-1.739.37c-1.158.244-2.32.48-3.474.753l-1.732.393-.866.198-.864.213c-1.15.288-2.303.562-3.444.86l-3.443.894 3.405-1.034c.567-.176 1.142-.325 1.712-.488l1.71-.48.857-.239.86-.224 1.727-.45c1.146-.309 2.301-.581 3.456-.862l1.733-.413 1.74-.383 1.74-.381c.58-.123 1.165-.235 1.746-.354l1.748-.348c.582-.121 1.168-.213 1.753-.322 1.17-.205 2.341-.43 3.512-.607a188.213 188.213 0 0114.15-1.774c4.735-.42 9.493-.628 14.25-.668 4.757-.04 9.515.138 14.258.491 4.742.354 9.463.913 14.164 1.677 4.7.764 9.355 1.708 13.967 2.85 2.304.573 4.594 1.204 6.874 1.866.571.158 1.137.34 1.705.51l1.703.522c1.122.362 2.246.74 3.373 1.11zM140.25 150.367c-1.127.37-2.25.749-3.38 1.112l-1.703.522c-.568.17-1.134.352-1.705.51a187.56 187.56 0 01-6.874 1.868 170.45 170.45 0 01-28.131 4.52c-4.742.368-9.505.514-14.258.492a176.628 176.628 0 01-14.25-.667 181.51 181.51 0 01-14.15-1.775c-1.175-.177-2.341-.402-3.512-.607-.584-.108-1.171-.2-1.753-.322l-1.748-.348c-.581-.118-1.165-.231-1.746-.354l-1.74-.381-1.74-.381-1.733-.413c-1.154-.276-2.31-.55-3.456-.862l-1.724-.45-.86-.224-.857-.24-1.716-.479c-.57-.164-1.144-.312-1.712-.489l-3.405-1.032 3.444.893c1.147.3 2.3.573 3.444.86l.863.214.867.198 1.733.397c1.153.275 2.315.509 3.474.754l1.738.37 1.744.342 1.744.342c.582.11 1.166.21 1.749.314 1.166.207 2.33.426 3.5.606s2.342.39 3.51.55c2.342.347 4.69.649 7.042.925l1.765.193c.588.065 1.176.138 1.766.18l1.767.161c.59.051 1.178.112 1.769.15 4.718.376 9.448.59 14.18.613 4.732.023 9.465-.11 14.19-.435a192.62 192.62 0 0014.115-1.506 185.417 185.417 0 0013.972-2.566 190.327 190.327 0 006.914-1.651c1.15-.293 2.288-.618 3.434-.925 1.147-.307 2.289-.654 3.43-.979zM160.962 63.443l-4.782-.599-4.776-.616-9.572-1.056-9.587-.914-9.599-.757-9.605-.598-9.618-.425-9.622-.263-9.625-.087-9.625.075-9.623.253-9.618.413-9.608.588-9.599.757-9.586.92-9.571 1.071-4.776.627-4.787.61 4.762-.756 4.762-.735 9.553-1.289 9.576-1.075 9.6-.876 9.62-.689 9.63-.485 9.643-.276 9.642-.096 9.643.109c3.213.099 6.427.183 9.643.296l9.63.494c3.206.222 6.411.451 9.617.688 3.202.293 6.403.573 9.602.878l9.58 1.074 9.554 1.276 4.764.724 4.758.739zM160.962 123.372l-4.761.742-4.764.725-9.554 1.275-9.58 1.073c-3.199.306-6.4.585-9.601.878-3.205.24-6.41.47-9.617.689l-9.63.494c-3.213.111-6.427.195-9.643.294l-9.643.11-9.643-.097-9.643-.275-9.63-.486-9.62-.68-9.597-.887-9.58-1.079-9.553-1.288-4.762-.735-4.758-.753 4.778.608 4.776.626 9.572 1.073 9.586.92 9.599.756 9.608.588 9.618.413 9.622.252 9.625.074 9.625-.085 9.622-.264 9.619-.426 9.608-.593 9.599-.757 9.586-.914 9.574-1.06 4.776-.617 4.786-.594zM167.36 93.179l-5.203.071-5.203.055-10.406.11c-6.937.054-13.874.1-20.81.137-6.938.044-13.875.054-20.812.08l-20.814.024L63.3 93.63c-6.937-.026-13.874-.034-20.812-.08l-10.406-.06-10.406-.079-10.405-.108-5.203-.055-5.203-.073 5.203-.073 5.203-.055 10.405-.109 10.406-.079 10.406-.06c6.938-.045 13.875-.054 20.812-.081l20.812-.025 20.812.026c6.938.026 13.875.037 20.812.081 6.938.044 13.874.083 20.811.138l10.406.109 5.203.053 5.204.079z" fill="#D26C7C"/><path d="M147.422 50.866a60.055 60.055 0 00-.8-2.692c-.288-.89-.603-1.77-.944-2.642a37.047 37.047 0 00-2.393-5.057 25.278 25.278 0 00-3.26-4.51 18.145 18.145 0 00-2.022-1.897 15.574 15.574 0 00-2.29-1.54 13.884 13.884 0 00-5.208-1.669 15.588 15.588 0 00-5.457.391 21.445 21.445 0 00-5.12 2.02 29.244 29.244 0 00-4.574 3.113 38.923 38.923 0 00-4.012 3.833 46.577 46.577 0 00-3.486 4.33 56.077 56.077 0 00-5.493 9.666c-3.044 6.78-4.85 14.095-5.474 21.497l-.38 4.497-.707-4.456c-.55-3.48-1.215-6.94-1.992-10.377a123.296 123.296 0 00-2.765-10.186 89.356 89.356 0 00-3.758-9.845c-1.458-3.192-3.122-6.3-5.136-9.167a35.243 35.243 0 00-3.307-4.065 23.096 23.096 0 00-3.975-3.364c-1.45-.944-3.047-1.682-4.739-2.008a9.95 9.95 0 00-2.564-.167 9.688 9.688 0 00-2.516.523c-1.63.572-3.09 1.583-4.331 2.804a20.084 20.084 0 00-3.169 4.172 32.139 32.139 0 00-2.255 4.773 46.892 46.892 0 00-1.6 5.047c.788-3.441 1.881-6.846 3.6-9.965a19.975 19.975 0 013.134-4.318c1.248-1.28 2.742-2.367 4.446-3.004a9.943 9.943 0 012.652-.601 10.599 10.599 0 012.72.137c1.791.317 3.481 1.064 5.005 2.022a23.107 23.107 0 014.156 3.415 35.837 35.837 0 013.429 4.119c2.084 2.901 3.821 6.029 5.316 9.256a90.391 90.391 0 013.87 9.932 121.13 121.13 0 012.83 10.263 156.47 156.47 0 012.03 10.444l-1.085.04a67.124 67.124 0 011.87-11.156 65.056 65.056 0 013.733-10.683 56.852 56.852 0 015.66-9.803c2.218-3.06 4.777-5.897 7.74-8.273a30.19 30.19 0 014.745-3.145 21.966 21.966 0 015.333-2.026c1.869-.44 3.8-.547 5.705-.314 1.904.245 3.74.866 5.403 1.827a15.938 15.938 0 012.333 1.639c.727.61 1.407 1.275 2.032 1.989a25.039 25.039 0 013.208 4.65 37.362 37.362 0 012.28 5.15c.314.884.603 1.776.865 2.676.263.9.502 1.802.717 2.705zM18.454 116.452a81.855 81.855 0 01-.924-4.648 70.955 70.955 0 01-.623-4.704 61.674 61.674 0 01-.227-9.497 49.63 49.63 0 011.4-9.415c.78-3.084 1.903-6.1 3.485-8.89.789-1.4 1.709-2.722 2.748-3.949a17.595 17.595 0 013.603-3.244c1.357-.902 2.893-1.588 4.546-1.854a9.085 9.085 0 012.498-.065 8.822 8.822 0 012.42.642c1.547.65 2.872 1.72 3.946 2.956a17.617 17.617 0 012.602 4.115 28.115 28.115 0 011.63 4.542c.413 1.546.735 3.116.965 4.7h-1.079a44.25 44.25 0 011.102-5.457 37.654 37.654 0 011.85-5.26 31.376 31.376 0 012.683-4.905 27.194 27.194 0 011.687-2.244c.606-.718 1.253-1.4 1.94-2.041a18.17 18.17 0 014.656-3.187 13.596 13.596 0 015.518-1.32c1.918-.03 3.816.387 5.545 1.217a15.39 15.39 0 014.53 3.357 22.908 22.908 0 013.299 4.518 34.071 34.071 0 012.317 5.054c1.266 3.481 2.073 7.1 2.607 10.737.512 3.642.794 7.313.843 10.99.03 1.836.017 3.671-.04 5.507-.059 1.834-.16 3.667-.29 5.496.072-1.835.11-3.67.115-5.506.005-1.835-.03-3.666-.106-5.493a89.588 89.588 0 00-1.08-10.916c-.592-3.602-1.453-7.166-2.755-10.562a33.256 33.256 0 00-2.324-4.908 22.097 22.097 0 00-3.225-4.302 14.788 14.788 0 00-4.293-3.117 11.407 11.407 0 00-5.12-1.086c-1.77.058-3.506.489-5.098 1.263a17.594 17.594 0 00-4.372 3.029 22.873 22.873 0 00-1.843 1.951c-.575.69-1.114 1.41-1.615 2.156a30.234 30.234 0 00-2.577 4.752 36.595 36.595 0 00-1.79 5.113 43.566 43.566 0 00-1.088 5.317l-.526 3.717-.551-3.717a40.138 40.138 0 00-.93-4.576 27.03 27.03 0 00-1.555-4.372 16.747 16.747 0 00-2.431-3.878c-.985-1.15-2.18-2.122-3.549-2.71a7.821 7.821 0 00-2.14-.586 8.098 8.098 0 00-2.227.041c-1.482.227-2.902.843-4.18 1.675a17.062 17.062 0 00-3.443 3.04 24.457 24.457 0 00-2.703 3.785 31.924 31.924 0 00-2.047 4.202 40.423 40.423 0 00-1.49 4.449 50.068 50.068 0 00-1.557 9.284 59.804 59.804 0 00-.175 4.715c0 1.573.063 3.149.178 4.72a73.81 73.81 0 00.49 4.704c.215 1.563.468 3.115.77 4.665zM159.149 104.747c.614-6.437.425-12.94-.776-19.24a60.528 60.528 0 00-1.102-4.68 50.354 50.354 0 00-1.515-4.553c-1.154-2.976-2.597-5.852-4.46-8.424a23.152 23.152 0 00-3.106-3.567c-.293-.26-.58-.529-.892-.767-.155-.12-.302-.25-.462-.362l-.476-.34a12.647 12.647 0 00-2.024-1.143c-.087-.038-.174-.084-.263-.118l-.276-.102-.275-.102-.138-.05-.138-.04-.55-.16-.561-.114a8.214 8.214 0 00-2.272-.079 8.1 8.1 0 00-2.193.61l-.522.242-.5.29c-.168.094-.33.2-.486.314l-.239.167-.12.083-.112.092a14.957 14.957 0 00-3.141 3.496 26.834 26.834 0 00-2.251 4.223 45.263 45.263 0 00-1.645 4.534l-.346 1.16c-.109.387-.208.778-.314 1.168l-.158.585-.138.589-.285 1.178c.263-1.595.55-3.19.95-4.762.391-1.578.871-3.132 1.438-4.656.582-1.53 1.3-3.003 2.145-4.404.22-.347.45-.689.69-1.031l.375-.495c.126-.163.247-.331.387-.485l.414-.471.103-.117.11-.11.22-.222.22-.222a2.59 2.59 0 01.23-.214l.475-.413.12-.102.126-.094.255-.187c.167-.13.34-.25.52-.36l.544-.33.57-.284a8.92 8.92 0 012.453-.726 9.172 9.172 0 012.561.046l.63.118.616.168.154.043.149.052.3.107.299.108c.1.037.194.084.292.125 1.56.665 2.931 1.663 4.163 2.773.16.138.302.285.452.429.15.143.3.287.443.436l.425.454.212.226c.07.077.137.157.202.234.276.314.543.625.792.952l.383.486.364.501a33.924 33.924 0 012.557 4.208 41.184 41.184 0 011.98 4.482 49.96 49.96 0 011.475 4.669 53.076 53.076 0 011.01 4.783 59.357 59.357 0 01-.068 19.395z" fill="#FFF"/><path d="M99.274 77.622a2.431 2.431 0 004.148 1.718 2.427 2.427 0 00-1.72-4.145 2.428 2.428 0 00-2.428 2.427z" fill="#FFF"/><path d="M99.274 77.622c.003.318.068.633.192.926a2.33 2.33 0 003.796.701 2.325 2.325 0 000-3.255 2.33 2.33 0 00-3.257-.068 2.36 2.36 0 00-.539.771c-.124.293-.19.607-.192.925zm0 0a2.535 2.535 0 014.27-1.842 2.54 2.54 0 010 3.683 2.536 2.536 0 01-4.27-1.841z" fill="#A166CC"/><path d="M97.185 86.763h9.036v-3.602a2.676 2.676 0 00-2.677-2.675h-3.682a2.676 2.676 0 00-2.677 2.675v3.602z" fill="#FFF"/><path d="M97.185 86.763l4.564-.11c.75-.017 1.497-.032 2.241-.043.746-.012 1.488-.023 2.23-.029l-.181.182-.018-2.41v-1.205a2.497 2.497 0 00-1.95-2.404c-.09-.02-.183-.03-.275-.046-.092-.015-.183-.01-.275-.013h-.604l-1.207-.01-1.205-.01h-.603c-.098 0-.19 0-.285.009a2.562 2.562 0 00-2.03 1.375c-.384.688-.276 1.504-.32 2.294l-.082 2.42zm0 0l-.07-2.392-.033-1.224a2.8 2.8 0 012.183-2.76c.105-.022.211-.037.316-.053.104-.017.215-.017.318-.02h.603l1.206-.01 1.206-.01h.604c.103 0 .213.008.32.013.108.006.216.03.32.051a2.868 2.868 0 012.27 2.796v1.206l-.017 2.41v.183h-.18c-.765 0-1.528-.016-2.289-.029a418.27 418.27 0 01-2.276-.043l-4.48-.118z" fill="#A166CC"/><path d="M46.265 37.296a2.428 2.428 0 002.43 2.425 2.428 2.428 0 10-2.43-2.425z" fill="#FFF"/><path d="M46.265 37.296a2.36 2.36 0 00.731 1.696 2.343 2.343 0 003.907-2.168 2.341 2.341 0 00-4.445-.455 2.43 2.43 0 00-.193.927zm0 0a2.515 2.515 0 01.69-1.738 2.529 2.529 0 014.165.733 2.54 2.54 0 01-.584 2.845 2.532 2.532 0 01-4.27-1.84z" fill="#A166CC"/><path d="M44.177 46.444h9.035v-3.61a2.677 2.677 0 00-2.678-2.675h-3.68a2.678 2.678 0 00-2.677 2.675v3.61z" fill="#FFF"/><path d="M44.177 46.444l4.562-.11c.753-.019 1.5-.033 2.243-.043.745-.014 1.488-.025 2.23-.03l-.181.183-.018-2.41v-1.205a2.492 2.492 0 00-1.948-2.405c-.091-.019-.185-.03-.276-.045-.09-.015-.183-.011-.275-.014h-.604l-1.206-.011-1.207-.01h-.602c-.1 0-.19 0-.285.009a2.554 2.554 0 00-2.03 1.375c-.384.688-.27 1.504-.32 2.294l-.083 2.422zm0 0l-.07-2.393-.033-1.223a2.8 2.8 0 012.178-2.753c.103-.024.209-.038.315-.055.106-.018.215-.016.318-.018l.602-.007 1.207-.01 1.207-.01h.599c.103 0 .214.009.321.014.107.006.213.028.32.05a2.868 2.868 0 012.268 2.795v1.208l-.016 2.402v.183h-.18c-.765 0-1.528-.016-2.289-.028-.76-.012-1.515-.026-2.275-.044l-4.472-.111z" fill="#A166CC"/><path d="M145.054 44.878a2.43 2.43 0 004.147 1.715 2.425 2.425 0 00-1.721-4.141 2.428 2.428 0 00-2.426 2.426z" fill="#FFF"/><path d="M145.054 44.878a2.34 2.34 0 00.731 1.696c.916.861 2.35.84 3.24-.048.89-.889.911-2.322.05-3.237a2.32 2.32 0 00-3.828.664c-.125.293-.19.608-.193.925zm0 0a2.531 2.531 0 014.856-1.005 2.53 2.53 0 01-4.165 2.743 2.515 2.515 0 01-.691-1.738z" fill="#A166CC"/><path d="M142.965 54.021h9.036v-3.604a2.673 2.673 0 00-2.678-2.674h-3.681a2.676 2.676 0 00-2.677 2.674v3.604z" fill="#FFF"/><path d="M142.965 54.021l4.564-.111a375.141 375.141 0 014.472-.07l-.182.181-.018-2.412v-1.204A2.495 2.495 0 00149.853 48c-.09-.019-.183-.03-.275-.045-.093-.015-.184-.011-.276-.012h-.603l-1.207-.01-1.205-.01-.604-.007c-.099 0-.19.007-.285.01-.095.003-.187.022-.275.04a2.562 2.562 0 00-1.755 1.334c-.383.688-.276 1.506-.32 2.294l-.083 2.427zm0 0l-.07-2.394-.033-1.223a2.797 2.797 0 012.178-2.753c.103-.024.21-.037.315-.055.106-.018.215-.016.319-.02h.603l1.205-.01 1.207-.01h.603c.104 0 .214.01.321.013.108.005.214.03.32.051a2.868 2.868 0 012.269 2.796v1.206l-.017 2.411v.183h-.18c-.765 0-1.528-.016-2.288-.028-.76-.013-1.516-.025-2.276-.043l-4.476-.124z" fill="#A166CC"/><ellipse fill="#FFF" transform="rotate(-89.19 46.279 90.615)" cx="46.279" cy="90.615" rx="2.427" ry="2.429"/><path d="M43.856 90.628c.003.319.068.633.192.927a2.33 2.33 0 003.797.701 2.325 2.325 0 000-3.255 2.33 2.33 0 00-3.257-.069c-.23.219-.413.481-.54.771a2.443 2.443 0 00-.192.925zm0 0a2.531 2.531 0 014.856-1.005 2.53 2.53 0 01-4.166 2.742 2.518 2.518 0 01-.69-1.737z" fill="#A166CC"/><path d="M41.768 99.765h9.035v-3.603a2.673 2.673 0 00-2.678-2.675H44.44a2.678 2.678 0 00-2.677 2.675l.006 3.603z" fill="#FFF"/><path d="M41.768 99.765l4.562-.111a380.063 380.063 0 014.473-.072l-.182.183-.018-2.411v-1.205a2.492 2.492 0 00-1.948-2.404c-.09-.02-.184-.03-.275-.046-.091-.015-.183-.01-.276-.014h-.603l-1.207-.01-1.206-.009h-.602c-.1 0-.19 0-.286.01a2.562 2.562 0 00-2.03 1.374c-.383.688-.276 1.505-.32 2.294l-.082 2.421zm0 0l-.07-2.392-.034-1.224a2.797 2.797 0 012.178-2.753c.104-.023.21-.037.316-.055.106-.018.215-.016.318-.019h.602l1.207-.01 1.206-.01h.604c.103 0 .213.009.32.013.108.004.214.029.32.051a2.868 2.868 0 012.27 2.796v1.205l-.017 2.412v.183h-.185c-.764 0-1.528-.016-2.288-.029-.76-.012-1.515-.025-2.276-.042l-4.471-.126z" fill="#A166CC"/><path d="M14.34 111.568c-.001.983.59 1.868 1.498 2.245a2.431 2.431 0 002.65-.526 2.427 2.427 0 00-1.719-4.145 2.429 2.429 0 00-2.43 2.426z" fill="#FFF"/><path d="M14.34 111.568a2.326 2.326 0 004.604.472 2.327 2.327 0 00-4.411-1.39 2.45 2.45 0 00-.194.918zm0 0a2.536 2.536 0 014.27-1.842c.248.238.447.523.584.838a2.53 2.53 0 11-4.856 1.004h.001z" fill="#A166CC"/><path d="M12.25 120.711h9.036v-3.604a2.676 2.676 0 00-2.676-2.674h-3.682a2.678 2.678 0 00-2.677 2.674v3.604z" fill="#FFF"/><path d="M12.25 120.711l4.565-.111a374.157 374.157 0 014.471-.07l-.182.181-.016-2.412v-1.204a2.5 2.5 0 00-1.95-2.405c-.09-.019-.183-.03-.275-.045-.092-.015-.183-.011-.275-.012h-.604l-1.205-.01-1.207-.01h-.603c-.098 0-.189 0-.284.01a2.562 2.562 0 00-2.03 1.374c-.383.688-.276 1.505-.32 2.294l-.084 2.42zm0 0l-.068-2.394-.033-1.223a2.799 2.799 0 012.177-2.753c.104-.024.21-.037.315-.055.105-.018.215-.016.318-.02h.604l1.206-.01 1.206-.01h.603c.103 0 .215.01.321.013.106.005.215.03.32.051a2.875 2.875 0 012.27 2.796v1.206l-.018 2.411v.183h-.18c-.764 0-1.527-.016-2.289-.028a312.23 312.23 0 01-2.275-.043l-4.476-.124zM159.27 102.053c.003.318.068.633.192.926.126.29.31.552.54.77a2.328 2.328 0 003.229-.06c.885-.884.91-2.31.059-3.226a2.328 2.328 0 00-3.288-.106c-.23.218-.414.48-.54.771a2.426 2.426 0 00-.192.925zm0 0a2.535 2.535 0 014.27-1.842 2.53 2.53 0 11-4.27 1.842z" fill="#A166CC"/><ellipse fill="#FFF" transform="rotate(-15.005 161.48 101.899)" cx="161.48" cy="101.899" rx="2.439" ry="2.437"/><path d="M157.18 111.201h9.034v-3.604a2.676 2.676 0 00-2.676-2.674h-3.681a2.678 2.678 0 00-2.678 2.674l.001 3.604z" fill="#FFF"/><path d="M157.18 111.201l4.564-.112a374.074 374.074 0 014.472-.07l-.182.182-.017-2.412v-1.204a2.5 2.5 0 00-1.949-2.405c-.09-.019-.183-.03-.275-.045-.093-.015-.185-.011-.283-.013h-.602l-1.207-.01-1.206-.009h-.604c-.097 0-.188 0-.283.008a2.558 2.558 0 00-2.032 1.374c-.383.688-.276 1.506-.319 2.295l-.077 2.421zm0 0l-.069-2.394-.033-1.223a2.8 2.8 0 012.178-2.753c.104-.024.21-.038.316-.055.106-.018.215-.016.317-.02h.603l1.207-.01 1.206-.009h.602c.104 0 .215.01.323.014.107.004.213.029.32.05a2.88 2.88 0 011.976 1.544c.19.39.289.818.292 1.252v1.206l-.016 2.412v.183h-.188c-.763 0-1.526-.017-2.288-.03-.762-.011-1.515-.024-2.274-.042l-4.472-.125z" fill="#A166CC"/></g><path d="M150 22.093h59.663c5.141 0 3.252-2.56-2.16-4.351-5.413-1.792-4.306-9.552-11.096-11.397-5.472-1.505-7.166 2.432-12.85 1.89-5.683-.542-8.588-.873-10.952.813-2.642 1.89-1.505 6.775-6.775 7.166-5.269.391-9.198 1.972-11.502 3.93A7.377 7.377 0 01150 22.092zM106.818 45.218H47.855c-4.863 0-3.071-2.424 2.047-4.118 5.12-1.693 4.073-9.033 10.486-10.78 5.18-1.407 6.775 2.304 12.15 1.792 5.374-.511 8.122-.835 10.365.753 2.5 1.784 1.408 6.391 6.391 6.775 4.983.384 8.702 1.867 10.877 3.711 2.176 1.844 6.647 1.867 6.647 1.867z" fill="#FFE0C7" opacity=".734"/></g></svg>