<svg width="174" height="175" xmlns="http://www.w3.org/2000/svg"><defs><linearGradient x1="7.293%" y1="51.363%" x2="99.556%" y2="38.681%" id="a"><stop stop-color="#FFA300" offset="0%"/><stop stop-color="#FFCD00" offset="100%"/></linearGradient><linearGradient x1="122.504%" y1="66.383%" x2="10.291%" y2="38.924%" id="b"><stop stop-color="#E27212" offset="0%"/><stop stop-color="#FFCD00" offset="100%"/></linearGradient><linearGradient x1="7.315%" y1="49.63%" x2="123.124%" y2="33.995%" id="c"><stop stop-color="#E27212" offset="0%"/><stop stop-color="#FFCD00" offset="100%"/></linearGradient><linearGradient x1="59.016%" y1="88.523%" x2="59.952%" y2="-9.325%" id="d"><stop stop-color="#FFC300" offset="0%"/><stop stop-color="#FFE800" offset="100%"/></linearGradient><linearGradient x1="9.481%" y1="49.732%" x2="101.753%" y2="37.048%" id="e"><stop stop-color="#FFA300" offset="0%"/><stop stop-color="#FFCD00" offset="100%"/></linearGradient><linearGradient x1="123.495%" y1="65.999%" x2="11.302%" y2="38.557%" id="f"><stop stop-color="#E27212" offset="0%"/><stop stop-color="#FFCD00" offset="100%"/></linearGradient><linearGradient x1="10.285%" y1="47.43%" x2="126.092%" y2="31.777%" id="g"><stop stop-color="#E27212" offset="0%"/><stop stop-color="#FFCD00" offset="100%"/></linearGradient><linearGradient x1="1293.502%" y1="-4569.636%" x2="1312.221%" y2="-4646.25%" id="h"><stop stop-color="#FFC300" offset="0%"/><stop stop-color="#FFE800" offset="100%"/></linearGradient><linearGradient x1="11.021%" y1="48.348%" x2="103.289%" y2="35.659%" id="i"><stop stop-color="#FFA300" offset="0%"/><stop stop-color="#FFCD00" offset="100%"/></linearGradient><linearGradient x1="87.812%" y1="-7.894%" x2="32.284%" y2="90.995%" id="j"><stop stop-color="#E27212" offset="0%"/><stop stop-color="#FFCD00" offset="100%"/></linearGradient><linearGradient x1="12.366%" y1="45.571%" x2="128.173%" y2="29.929%" id="k"><stop stop-color="#E27212" offset="0%"/><stop stop-color="#FFCD00" offset="100%"/></linearGradient><linearGradient x1="1621.117%" y1="-5331.859%" x2="1640.696%" y2="-5408.812%" id="l"><stop stop-color="#FFC300" offset="0%"/><stop stop-color="#FFE800" offset="100%"/></linearGradient></defs><g fill="none" fill-rule="evenodd"><path d="M160.988 93.62c.94-4.912-.532-12.592-5.692-22.284 3.296 3.724 7.076 5.536 9.176 4.128 2.548-1.704 1.668-7.488-1.964-12.92-3.632-5.432-8.648-8.456-11.2-6.752-1.76 1.2-1.884 4.308-.592 7.92a127.776 127.776 0 00-8.996-11.86c-7.164-8.436-19.504-17.2-27.812-20.9-7.932-3.508-15.716-3.392-20.8-.464a4.4 4.4 0 00-1.636-1.012 4.452 4.452 0 00-5.068 6.8c-5.324 6.088-8.984 13.832-14.988 19.492-7.556 7.12-18.624 8.568-28.8 10.676-10.176 2.108-21.284 6.168-25.572 15.624-2.932 6.46-1.912 14.048.304 20.8 5.648 17.132 18.9 31.628 35.48 38.732 8.94 3.84 20 5.344 27.872-.4.332-.24.652-.492.96-.752a6.46 6.46 0 104.536-5.312c4.824-7.772 6-18.38 10.928-26.488 1.572-2.588 3.792-5.084 6.768-5.652 1.808-.348 3.672.068 5.44.576 6.216 1.784 12.024 4.752 18.16 6.8 6.136 2.048 12.908 3.108 19.024 1.004 7.568-2.576 12.96-9.9 14.472-17.756zM18.8 110.4c-3.2-5.2-8-8.036-10.656-6.376-2.656 1.66-2.24 7.2.964 12.376 3.204 5.176 8 8.036 10.656 6.376 2.656-1.66 2.236-7.204-.964-12.376zM22.468 124.704a1.696 1.696 0 10-1.11 3.205 1.696 1.696 0 001.11-3.205z" fill="#FDECD6" fill-rule="nonzero"/><path d="M148.664 52.536a1.672 1.672 0 101.095-3.16 1.672 1.672 0 00-1.095 3.16z" fill="#FDECD6" fill-rule="nonzero"/><circle fill="#FDECD6" fill-rule="nonzero" transform="rotate(-9.6 161.262 50.259)" cx="161.262" cy="50.259" r="4.064"/><path d="M167.94 63.096a1.676 1.676 0 101.105-3.165 1.676 1.676 0 00-1.105 3.165zM50.336 62.192a4.8 4.8 0 100-9.6 4.8 4.8 0 000 9.6zM110.892 33.2a2.772 2.772 0 10-.056-5.544 2.772 2.772 0 00.056 5.544zM117.456 26.776a1.756 1.756 0 10-.024-3.512 1.756 1.756 0 00.024 3.512zM122.056 38.692a5.436 5.436 0 10-.072-10.872 5.436 5.436 0 00.072 10.872zM39.116 63.628a1.824 1.824 0 10-.024-3.648 1.824 1.824 0 00.024 3.648z" fill="#FDECD6" fill-rule="nonzero"/><path d="M129.276 36.664c-.576-4.3-.584-9.292 5.624-13.816-.108 2.72.8 5.796.064 7.976-.736 2.18-3.5 4.68-5.688 5.84z" fill="#4B5923" fill-rule="nonzero"/><path d="M117.96 64.032c-.628 1.08-.072 1.812.948.548s4.736-7.036 6.308-12.236c1.572-5.2 2.844-13.128 4.548-16.508-1.084 1-2.956 6.564-3.576 9.864-1.12 5.928-3.764 13.1-8.228 18.332z" fill="#4B5923" fill-rule="nonzero"/><path d="M119.808 29.4c1.816 1.636 4.732 1.768 6.436 4.136 1.704 2.368 1.224 6.228.352 10-1.82-.832-5.576-1.6-6.084-5.844s-.164-6.892-.704-8.292zM108.66 43.232c1.136.368 4.48 4.18 6.748 6.088 2.268 1.908 4.484 2.64 7 1.408 2.516-1.232 2.98-1.404 2.98-1.404s-.528-1.48-1.504-4.04-2.232-4.4-5.048-4.64c-2.816-.24-6.036 2.692-10.176 2.588zM112 61.544c1.812-1.2 4.208-1.248 5.664-1.456a6.4 6.4 0 004.532-3.548 31.452 31.452 0 011.94-3.524 9.1 9.1 0 00-5.872-.232c-2.4.688-3.504 3.104-4.452 5.124-.948 2.02-1.064 2.672-1.812 3.636zM124.8 52.636c.328.708 3.228 1.72 4.224 4.136.996 2.416-1.136 6.26-.984 8.5-1.828-1.748-4.028-4.276-3.752-7.012.276-2.736.82-4.844.512-5.624zM125.808 49.632c.664.8 4.952 6.028 11.048 3.08a27.176 27.176 0 017.452-3.228 15.796 15.796 0 01-4.092-3.284c-1.62-1.96-4.136-2.632-6.656-1.948-2.52.684-6.228 4.736-7.752 5.38zM127.304 43.492c.696.208 4.308 2.272 8.672-2.088 4.364-4.36 5.224-5.004 5.224-5.004s-3.06-.176-4.868-.896c-1.808-.72-4.4 1.064-5.58 2.596-1.18 1.532-2.472 4.328-3.448 5.392zM29.808 68.4c-4.028-.4-8.4-1.544-9.524-8.928 2.332.736 5.448.508 7.016 1.772 1.568 1.264 2.496 4.652 2.508 7.156z" fill="#4B5923" fill-rule="nonzero"/><path d="M48.6 86.256c.66.892 1.556.492.916-.84-.64-1.332-4-6.46-7.828-9.264-3.828-2.804-10.2-5.924-12.38-8.444.4 1.336 4.4 4.532 7.004 5.924 4.68 2.508 9.748 6.86 12.288 12.624z" fill="#4B5923" fill-rule="nonzero"/><path d="M19.112 76.4c2.264-1.476 3.72-4.424 6.568-5.62 2.848-1.196 6 .18 8.928 1.94-1.56 1.672-3.936 5.336-7.904 4.872-3.968-.464-6.108-1.42-7.592-1.192zM26.128 90.968c.844-1.076 5.712-3.6 8.42-5.492s4.364-3.972 4.436-6.828c.072-2.856.136-3.364.136-3.364s-1.54.196-4.228.604c-2.688.408-4.872 1.272-6.372 4.112s-.404 6.756-2.392 10.968zM43.688 91.784c-.208-2.124.832-4.584 1.32-6.124.488-1.54.4-3.892-1.032-5.444a21.472 21.472 0 01-2.2-2.8 12.976 12.976 0 00-2.892 5.944C38.4 86 40 87.664 41.332 89.096c1.332 1.432 1.868 1.704 2.356 2.688zM41.748 76.656c.768-.176 2.984-2.904 5.556-3.364 2.572-.46 4.96 2.6 6.992 2.96-2.364 1.464-5.6 3.132-7.86 2.22-2.26-.912-3.86-1.96-4.688-1.816zM39.6 74.928c.996-.5 7.544-3.672 7.756-10.58-.4-3.956.584-8.352.584-8.352a22.056 22.056 0 01-4.752 3.424 9.048 9.048 0 00-4.788 6.348c-.536 2.732 1.316 7.452 1.2 9.16zM34.888 72c.5-.664 3.96-3.876 2.14-9.34-1.82-5.464-1.98-6.476-1.98-6.476s-1.552 3.08-3.012 4.764c-1.46 1.684-1.076 4.72-.28 6.296.796 1.576 2.644 3.496 3.132 4.756zM27.692 123.308c-1.2 3.872-3.156 7.94-10.616 7.6 1.2-2.144 1.564-5.244 3.112-6.536 1.548-1.292 5.052-1.54 7.504-1.064z" fill="#4B5923" fill-rule="nonzero"/><path d="M48.88 108.368c1.004-.472.8-1.428-.644-1.06-1.444.368-7.12 2.656-10.616 5.868-3.496 3.212-7.804 8.844-10.7 10.488 1.384-.112 5.304-3.428 7.2-5.708 3.352-4.1 8.612-8.224 14.76-9.588z" fill="#4B5923" fill-rule="nonzero"/><path d="M33.448 135.36c-1.004-2.508-3.6-4.508-4.228-7.54-.628-3.032 1.352-5.864 3.648-8.376 1.332 1.86 4.46 4.904 3.232 8.704-1.228 3.8-2.584 5.716-2.652 7.212zM49.108 131.328c-.892-1.036-2.428-6.304-3.74-9.328-1.312-3.024-3.04-5.056-5.828-5.688-2.788-.632-3.276-.8-3.276-.8s-.104 1.548-.232 4.264.296 5.028 2.768 7.048c2.472 2.02 6.568 1.732 10.308 4.504zM53.34 114.264c-2.12-.208-4.332-1.708-5.744-2.488s-3.744-1.144-5.544-.052a21.6 21.6 0 01-3.168 1.6 12.996 12.996 0 005.264 4c2.468 1 4.428-.256 6.1-1.284 1.672-1.028 2.02-1.484 3.092-1.776zM38.124 113.2c-.02-.8-2.264-3.492-2.212-6.104.052-2.612 3.52-4.36 4.272-6.28.972 2.608 1.98 6.092.64 8.14-1.34 2.048-2.68 3.416-2.7 4.244zM36 115c-.292-1.076-2.124-8.116-8.856-9.672-3.96-.372-8.08-2.204-8.08-2.204a22 22 0 012.428 5.328 9.056 9.056 0 005.308 5.9c2.568 1.076 7.56.184 9.2.648zM32.204 119.028c-.552-.62-3.028-4.64-8.74-3.924-5.712.716-6.74.676-6.74.676s2.716 2.124 4.084 3.884c1.368 1.76 4.4 1.98 6.12 1.508 1.72-.472 3.96-1.912 5.276-2.144zM139.396 79.344c2.328-.34 5.008-1.22 7.268-6.54-1.46.56-3.136.436-4.288 1.368-1.152.932-2.416 3.376-2.98 5.172z" fill="#4B5923" fill-rule="nonzero"/><path d="M125.012 92.428c-.564.648-.972.372-.324-.592.648-.964 3.648-4.696 6.4-6.76 2.752-2.064 6.972-4.4 8.74-6.232-.508.964-3.444 3.312-5.2 4.348a30 30 0 00-9.616 9.236z" fill="#4B5923" fill-rule="nonzero"/><path d="M143.56 84.948c-.928-1.028-1.08-3.132-2.4-3.952-1.32-.82-3.38.212-5.384 1.516.496 1.18 1.004 3.78 3.308 3.396 2.304-.384 3.716-1.108 4.476-.96zM136.44 95.512c-.232-.764-2.368-2.52-3.456-3.832-1.088-1.312-1.544-2.8-.952-4.848.592-2.048.672-2.4.672-2.4s.8.12 2.212.376c1.412.256 2.424.848 2.632 2.856.208 2.008-1.28 4.848-1.108 7.848zM126.512 96.332c.584-1.528.556-3.284.624-4.38a6.66 6.66 0 011.78-3.928 25.568 25.568 0 001.84-2.032s.704 1.652.288 4.232c-.304 1.872-1.572 3.1-2.628 4.148-1.056 1.048-1.408 1.228-1.904 1.96zM130.94 85.436c-.4-.112-1.012-2.044-2.336-2.344-1.324-.3-3.332 1.936-4.536 2.224.988 1.02 2.4 2.176 3.868 1.492 1.468-.684 2.576-1.464 3.004-1.372zM132.528 84.164c-.444-.344-3.372-2.536-1.96-7.496a30.208 30.208 0 001.528-6 7.944 7.944 0 001.876 2.4c1.1.832 1.528 2.544 1.232 4.5-.296 1.956-2.372 5.372-2.676 6.596zM135.784 82c-.132-.468-1.34-2.732.88-6.68 2.22-3.948 2.536-4.696 2.536-4.696.09 1.146.296 2.28.616 3.384.436 1.2-.448 3.38-1.24 4.52-.792 1.14-2.248 2.56-2.792 3.472z" fill="#4B5923" fill-rule="nonzero"/><path d="M51.892 92.348c-.78.336-2.12 4-5.324 6.172-3.204 2.172-8.596 5.128-15.272 4-6.676-1.128-10.904-4.4-15.248-8.648-4.344-4.248-5.544-5.708-7.064-6.196 1.86-.576 5.252-3.724 8.28-5.728 3.028-2.004 9.6-4.888 18.204-3.48 8.604 1.408 14 8.08 14.84 10.188.84 2.108 1.392 2.584 1.776 2.956.384.372-.192.736-.192.736z" fill="#92A44B" fill-rule="nonzero"/><path d="M47.132 92.028c-.724 3.056-4.484 7.288-6.96 9.744.4-.14.824-.288 1.2-.448.504-.52.952-1 1.252-1.332 2-2.208 4.48-5.368 5.048-7.904v-.124a43.4 43.4 0 00-3.432-9.844 27.28 27.28 0 00-1.004-.664 41.06 41.06 0 013.896 10.572zM39.572 91.14c-1.312 3.552-6.452 9.2-8.48 11.34l.204.04.472.068c2.228-2.364 7.116-7.812 8.368-11.356l.032-.092-.032-.096a74.248 74.248 0 00-3.684-8.552 39.044 39.044 0 00-2.484-4.228l-.748-.072C34.516 80 36.96 84 39.572 91.14z" fill="#C0D254" fill-rule="nonzero"/><path d="M31.84 90.348c-1.092 2.96-4.852 7.38-7.244 10l.532.256c2.448-2.692 6.2-7.136 7.276-10.176l.032-.096-.032-.092a74.356 74.356 0 00-3.684-8.556 41.883 41.883 0 00-1.872-3.292l-.612.1c1.364 2.152 3.428 5.908 5.604 11.856zM25.348 89.452l-.036-.096a73.632 73.632 0 00-3.68-8.556 41.743 41.743 0 00-.46-.868l-.532.22a69.2 69.2 0 014.112 9.296c-.8 2.184-3.06 5.16-5.148 7.628l.444.356c2.14-2.532 4.46-5.6 5.268-7.888l.032-.092zM18.136 88.62l-.036-.092c-.776-2.136-1.536-4-2.252-5.6l-.468.344a79.416 79.416 0 012.16 5.336 19.624 19.624 0 01-2.492 4.268l.4.4c1.176-1.62 2.172-3.236 2.648-4.576l.04-.08z" fill="#C0D254" fill-rule="nonzero"/><path d="M56.8 92.948s-12.436-1.004-18.76-1.716c-6.324-.712-25.276-3.2-25.276-3.2s22.868 2.4 25.524 2.732c2.656.332 17.068 1.04 18.512 1.236.532.06.66.916 0 .948z" fill="#C0D254" fill-rule="nonzero"/><path d="M125.336 69.324c.192-.376-.448-2.2.096-4.032.544-1.832 1.676-4.656 4.58-6.324 2.904-1.668 5.552-1.736 8.54-1.484 2.988.252 3.916.444 4.648.152-.528.8-.84 3.072-1.364 4.8a12.824 12.824 0 01-5.864 7.048c-3.728 2.16-7.888 1.308-8.872.764s-1.344-.548-1.6-.572c-.256-.024-.164-.352-.164-.352z" fill="#92A44B" fill-rule="nonzero"/><path d="M127.256 67.952c-.684-1.396-.576-4.192-.4-5.912a9.987 9.987 0 00-.324.556c-.032.356-.052.68-.06.904-.068 1.468-.028 3.456.552 4.604v.028h.024a21.6 21.6 0 004.4 2.684c.196 0 .4-.036.592-.064a20.204 20.204 0 01-4.784-2.8zM130.424 65.916c-.616-1.768-.424-5.54-.32-6.996l-.092.048-.2.124c-.112 1.6-.268 5.22.368 6.964v.048l.044.024a35.2 35.2 0 004.092 2.112c.74.328 1.5.607 2.276.836.104-.068.208-.136.308-.208-1.048-.288-3.236-1.044-6.476-2.952z" fill="#C0D254" fill-rule="nonzero"/><path d="M133.628 63.792c-.512-1.476-.464-4.344-.376-6.1l-.284.068c-.092 1.8-.128 4.672.4 6.172v.048l.044.024a35.824 35.824 0 004.092 2.112c.692.3 1.272.516 1.748.672l.204-.232a29.688 29.688 0 01-5.828-2.764zM136.4 62.096l.044.024a37.2 37.2 0 004.092 2.112l.448.188c.048-.084.092-.168.136-.252a33.888 33.888 0 01-4.492-2.26c-.376-1.088-.448-2.932-.428-4.532h-.28c-.024 1.64.056 3.544.464 4.668l.016.052zM139.404 60.148l.044.024c.968.572 1.84 1.04 2.616 1.428a7.12 7.12 0 00.068-.28c-.748-.372-1.58-.82-2.5-1.36a9.804 9.804 0 01-.4-2.4l-.28-.028c.026.875.169 1.743.424 2.58l.028.036z" fill="#C0D254" fill-rule="nonzero"/><path d="M123.276 70.632s5.064-3.52 7.704-5.232c2.64-1.712 10.668-6.712 10.668-6.712s-9.488 6.268-10.608 6.972c-1.12.704-6.856 4.96-7.464 5.34-.228.14-.544-.144-.3-.368z" fill="#C0D254" fill-rule="nonzero"/><path d="M107.62 64.328c-.38-.364-2.8-.248-4.8-1.56s-4.984-3.676-5.94-7.76c-.956-4.084-.096-7.28 1.28-10.776 1.376-3.496 1.932-4.536 1.848-5.52.776.924 3.384 2.108 5.256 3.356a16.036 16.036 0 016.336 9.56c1.256 5.244-1.256 9.932-2.26 10.912-1.004.98-1.14 1.416-1.264 1.724-.124.308-.456.064-.456.064z" fill="#92A44B" fill-rule="nonzero"/><path d="M106.664 61.536c-1.92.32-5.236-.8-7.232-1.64.18.204.364.4.548.588.4.164.8.308 1.06.4 1.736.604 4.14 1.268 5.724.988h.036l.032-.024a27.06 27.06 0 004.8-4.316c.052-.24.096-.484.136-.736a25.38 25.38 0 01-5.104 4.74zM105.356 57.008c-2.34.1-6.8-1.48-8.504-2.124 0 .04 0 .084.028.124l.072.288c1.884.704 6.164 2.188 8.488 2.056h.06l.048-.044a45.08 45.08 0 004-4.152 23.816 23.816 0 001.82-2.432 18.939 18.939 0 00-.14-.444c-.728 1.172-2.428 3.524-5.872 6.728z" fill="#C0D254" fill-rule="nonzero"/><path d="M103.96 52.4c-1.956.084-5.38-1-7.452-1.74v.368c2.124.752 5.56 1.828 7.552 1.716h.064l.044-.044a45.08 45.08 0 004-4.152 25.032 25.032 0 001.432-1.856c-.07-.112-.137-.22-.204-.324a37.6 37.6 0 01-5.436 6.032zM102.916 48.48l.044-.04a45.6 45.6 0 004-4.152l.4-.468-.252-.252a42.44 42.44 0 01-4.324 4.572c-1.436.064-3.676-.508-5.6-1.112a6.293 6.293 0 00-.096.34c1.956.616 4.268 1.2 5.764 1.116l.064-.004zM101.66 44.164l.048-.04a51.537 51.537 0 002.644-2.628l-.308-.18c-.712.764-1.548 1.6-2.528 2.508a12.108 12.108 0 01-3.032-.4l-.132.328c1.06.279 2.152.413 3.248.4l.06.012z" fill="#C0D254" fill-rule="nonzero"/><path d="M108.452 67.272s-2.4-7.34-3.516-11.12c-1.116-3.78-4.22-15.2-4.22-15.2s4.112 13.628 4.556 15.224c.444 1.596 3.488 10 3.728 10.868.088.32-.368.6-.548.228z" fill="#C0D254" fill-rule="nonzero"/><path d="M45.516 97.24c-.108.516 1.256 2.516 1.2 4.908-.056 2.392-.516 6.172-3.492 9.128-2.976 2.956-6.148 3.9-9.848 4.56-3.7.66-4.872.736-5.664 1.324.38-1.144 0-4 .1-6.232a16.036 16.036 0 014.8-10.42c3.808-3.82 9.112-4.14 10.476-3.8 1.364.34 1.804.232 2.128.172.324-.06.3.36.3.36z" fill="#5E8845" fill-rule="nonzero"/><path d="M43.64 99.524c1.28 1.464 2.056 4.884 2.4 7.016.08-.26.152-.52.212-.776-.08-.44-.16-.84-.22-1.112-.4-1.796-1.084-4.188-2.156-5.388l-.028-.032h-.036a26.908 26.908 0 00-6.192-1.816c-.232.08-.464.168-.7.264 2.314.304 4.575.924 6.72 1.844zM40.472 103.008c1.312 1.94 2.304 6.564 2.652 8.356l.092-.088.208-.212c-.4-1.972-1.372-6.4-2.704-8.304l-.036-.052h-.06a45.344 45.344 0 00-5.632-1.228 24.064 24.064 0 00-3.024-.272l-.308.348c1.384-.012 4.272.196 8.812 1.452z" fill="#4C6E37" fill-rule="nonzero"/><path d="M37.284 106.616c1.096 1.6 1.968 5.104 2.432 7.256l.32-.176c-.472-2.204-1.36-5.692-2.5-7.328l-.036-.052h-.06c-1.85-.529-3.73-.94-5.632-1.232a26.991 26.991 0 00-2.336-.244c-.056.116-.116.232-.168.344 2.704.188 5.38.668 7.98 1.432zM34.496 109.564l-.064-.02a46.088 46.088 0 00-5.632-1.228l-.6-.08c-.028.116-.056.232-.08.344a43.04 43.04 0 016.16 1.284c.8 1.2 1.496 3.4 2 5.34l.34-.096c-.504-2-1.2-4.264-2.076-5.496l-.048-.048zM31.476 112.892h-.06a51.993 51.993 0 00-3.624-.876v.36a49.15 49.15 0 013.464.836c.533.877.953 1.817 1.248 2.8l.352-.06a12.364 12.364 0 00-1.352-2.984l-.028-.076z" fill="#4C6E37" fill-rule="nonzero"/><path d="M47.6 94.988s-4.988 5.9-7.624 8.828c-2.636 2.928-10.728 11.568-10.728 11.568s9.448-10.648 10.572-11.868c1.124-1.22 6.684-8.216 7.296-8.872.216-.244.692 0 .484.344z" fill="#4C6E37" fill-rule="nonzero"/><ellipse fill="#FDECD6" fill-rule="nonzero" transform="rotate(-15.88 86.652 151.972)" cx="86.652" cy="151.972" rx="59.788" ry="6.016"/><path d="M119.548 52.052s-66.364 18.684-75.688 22.8c-4.368 1.928-4.656 4.28-4.584 7.2L42 155.976c.076 2.928 1.708 7.144 6.28 6.524l73.472-24.332c2.468-.716 4.4-3.676 4.336-6.604l-.168-77.296c-.092-2.932-3.92-2.932-6.372-2.216z" fill="#743B27" fill-rule="nonzero"/><path d="M122.252 52.052l-78.4 22.8c-2.468.72-4.4 3.676-4.336 6.608l1.92 75.504c.072 2.928 2.136 4.724 4.604 4l78.4-22.8c2.468-.716 4.4-3.676 4.332-6.604l-1.916-75.504c-.056-2.928-2.136-4.72-4.604-4.004z" fill="#5A2D1A" fill-rule="nonzero"/><path d="M119.024 58.08l-71.68 20.844c-2.256.656-4.032 3.284-3.968 5.872l1.696 66.644c.064 2.588 1.948 4.152 4.204 3.496l71.68-20.844c2.256-.656 4.032-3.284 3.964-5.872l-1.692-66.644c-.064-2.588-1.948-4.152-4.204-3.496z" stroke="#F8B450" stroke-width=".93" stroke-dasharray="7.59"/><path d="M106.76 89.832c-1.64.476-2.932 2.444-2.88 4.4l.376 14.848c.048 1.948 1.42 3.14 3.06 2.664l20.8-6.048-.556-21.904-20.8 6.04z" fill="#985C3A" fill-rule="nonzero" opacity=".43" style="mix-blend-mode:multiply"/><path d="M131.172 81.8L108.1 88.512c-1.64.476-2.932 2.444-2.884 4.4l.38 14.848c.048 1.948 1.42 3.14 3.06 2.664l23.072-6.712c1.64-.476 2.932-2.444 2.884-4.4l-.38-14.848c-.048-1.948-1.432-3.14-3.06-2.664z" fill="#A87442" fill-rule="nonzero"/><path d="M129.872 84.344l-20.364 5.92a3.808 3.808 0 00-2.552 3.6l.304 11.936c.04 1.568 1.248 2.496 2.696 2.072l20.364-5.92a3.804 3.804 0 002.552-3.6l-.304-11.952c-.04-1.552-1.244-2.48-2.696-2.056z" stroke="#F8B450" stroke-width=".93" stroke-dasharray="7.59"/><path d="M116.324 97.152c.056 2.212-1.408 4.444-3.268 4.984-1.86.54-3.42-.8-3.476-3.024-.056-2.224 1.408-4.444 3.272-4.984 1.864-.54 3.416.812 3.472 3.024z" fill="#FDCC53" fill-rule="nonzero"/><path d="M41.644 76.216a7.346 7.346 0 00-2.12 5.24l1.92 75.504c.072 2.928 2.136 4.724 4.604 4l78.4-22.8c2.468-.716 4.4-3.676 4.332-6.604l-.44-17.336c-49.336 42.424-84.616 13-86.696-38.004z" fill="#985C3A" fill-rule="nonzero" opacity=".24" style="mix-blend-mode:multiply"/><path d="M79.912 52.548c3.784 7.684 1.3 18.712-5.556 24.628-2.556 2.208-3.176 3.392-5.884 3.6-.444.036-3.068.048-3.504.032-4.044-.148-7.732-2.496-9.872-6.844-3.784-7.684-1.296-18.712 5.556-24.628 2.572-2.22 5.388-3.404 8.108-3.6.568-.044 3.376 0 3.376 0s5.708 2.608 7.776 6.812z" fill="#CA6B0A" fill-rule="nonzero"/><ellipse fill="url(#a)" fill-rule="nonzero" transform="rotate(-72.52 70.244 63.263)" cx="70.244" cy="63.263" rx="17.896" ry="13.752"/><ellipse fill="url(#b)" fill-rule="nonzero" transform="rotate(-72.52 70.244 63.263)" cx="70.244" cy="63.263" rx="14.276" ry="10.972"/><ellipse fill="url(#c)" fill-rule="nonzero" transform="rotate(-72.474 69.93 63.48)" cx="69.93" cy="63.479" rx="13.17" ry="10.122"/><path d="M76.044 64.083c-.08-1.967-.991-2.72-2.282-2.455.962-1.332 1.48-2.94 1.346-4.209-.104-1.901-1.217-2.597-3.217-1.799l-.19-2.286-2.16 1.394.214 2.086-1.204.776-.233-2.067-2.149 1.406.267 2.036-1.919 1.256-1.333.88.307 1.969 1.312-.856 1.312 9.768-1.337.818.275 2.001 1.31-.788 1.71-1.025.249 2.422 1.842-1.076-.204-2.473 1.068-.634.186 2.495 1.853-1.076-.152-2.617c2.137-1.612 3.208-3.703 3.129-5.946zm-8.6-3.58l2.822-1.803c1.569-.994 2.497-.867 2.607.474.107 1.345-.726 2.55-2.247 3.49l-3.102 1.944-.459-3.86.379-.245zm4.117 8.17l-3.145 1.897-.222.137-.457-4.075 3.482-2.153c1.633-1 2.556-.88 2.643.603.084 1.485-.723 2.663-2.3 3.606v-.014z" fill="url(#d)" fill-rule="nonzero"/><path d="M107.424 52.452c2.964 6.024 1.016 14.668-4.356 19.304-2 1.732-2.492 2.66-4.612 2.832-.348.028-2.4.036-2.748.02-3.168-.116-6.06-1.956-7.74-5.36-2.964-6.028-1.016-14.668 4.356-19.308a11.1 11.1 0 016.356-2.832c.444-.032 2.648 0 2.648 0s4.472 2.048 6.096 5.344z" fill="#CA6B0A" fill-rule="nonzero"/><ellipse fill="url(#e)" fill-rule="nonzero" transform="rotate(-72.52 99.846 60.849)" cx="99.846" cy="60.849" rx="14.028" ry="10.78"/><ellipse fill="url(#f)" fill-rule="nonzero" transform="rotate(-72.52 99.842 60.849)" cx="99.842" cy="60.849" rx="11.192" ry="8.6"/><ellipse fill="url(#g)" fill-rule="nonzero" transform="rotate(-72.52 99.845 60.791)" cx="99.845" cy="60.791" rx="10.364" ry="7.964"/><path d="M104.996 62.252c-.067-1.694-.847-2.341-1.95-2.114.822-1.146 1.265-2.53 1.15-3.622-.089-1.636-1.04-2.235-2.75-1.548L101.282 53l-1.846 1.2.182 1.796-1.03.667-.198-1.779-1.838 1.21.228 1.752-1.64 1.081-1.141.757.263 1.695 1.122-.736 1.121 8.407-1.143.704.235 1.722 1.12-.679 1.463-.882.212 2.085 1.576-.926-.175-2.128.914-.546.159 2.148 1.584-.927-.13-2.252c1.828-1.388 2.743-3.187 2.675-5.117zm-7.67-3.006l2.426-1.649c1.348-.909 2.146-.793 2.24.434.092 1.23-.624 2.331-1.931 3.191L97.394 63 97 59.47l.325-.224zm3.793 6.98l-2.566 1.655-.181.119L98 64.445l2.84-1.878c1.331-.873 2.084-.768 2.155.525.069 1.296-.59 2.324-1.876 3.146v-.012z" fill="url(#h)" fill-rule="nonzero"/><path d="M97.864 20.472c2.556 5.2.876 12.636-3.752 16.632-1.728 1.492-2.148 2.292-3.976 2.436-.3.024-2.072.032-2.368.02-2.728-.1-5.2-1.684-6.664-4.62-2.556-5.2-.876-12.636 3.752-16.632a9.548 9.548 0 015.476-2.44c.38-.028 2.28 0 2.28 0s3.852 1.764 5.252 4.604z" fill="#CA6B0A" fill-rule="nonzero"/><ellipse fill="url(#i)" fill-rule="nonzero" transform="rotate(-72.52 91.332 27.708)" cx="91.332" cy="27.708" rx="12.084" ry="9.288"/><path d="M98 21.932c2.04 4.144.7 10.084-2.992 13.272-3.692 3.188-8.34 2.4-10.376-1.728-2.036-4.128-.7-10.08 2.992-13.268C91.316 17.02 96 17.792 98 21.932z" fill="url(#j)" fill-rule="nonzero"/><ellipse fill="url(#k)" fill-rule="nonzero" transform="rotate(-72.52 91.334 27.657)" cx="91.334" cy="27.657" rx="8.928" ry="6.86"/><path d="M95.68 26.804l-2.654 7.157-4.92-4.056 4.261.8 3.312-3.901zM90.403 21l5.074 4.992-3.263 3.96L88 29.21 90.404 21z" fill="url(#l)" fill-rule="nonzero"/><path d="M126.256 53.672l-78.4 22.8c-2.468.716-4.4 3.676-4.332 6.604l1.916 75.504c.076 2.932 2.044 4.672 6.616 4.048l76.4-22.836c2.468-.72 4.4-3.676 4.332-6.608l-.168-77.292c-.084-2.936-3.896-2.94-6.364-2.22z" fill="#743B27" fill-rule="nonzero"/><path d="M128.96 53.672l-78.4 22.8c-2.468.716-4.4 3.676-4.336 6.604l1.92 75.504c.072 2.932 2.136 4.724 4.604 4l78.4-22.8c2.468-.72 4.4-3.676 4.332-6.608l-1.916-75.504c-.076-2.92-2.136-4.716-4.604-3.996z" fill="#A87442" fill-rule="nonzero"/><path d="M134.088 78.4l-.524-20.704c-.076-2.928-2.136-4.724-4.604-4L68.9 71.136c9.664 17.948 32.148 19.752 65.188 7.264z" fill="#B67C48" fill-rule="nonzero"/><path d="M125.732 59.7L58.8 79.244c-2.256.656-4.032 3.284-3.964 5.872l1.684 66.644c.064 2.588 1.948 4.152 4.204 3.496l66.936-19.544c2.26-.656 4.036-3.284 3.968-5.872l-1.692-66.64c-.064-2.592-1.936-4.156-4.204-3.5z" stroke="#F8B450" stroke-width=".93" stroke-dasharray="7.59"/><path d="M113.468 89.66c-1.64.476-2.932 2.444-2.884 4.4l.4 16.64c.048 1.948 1.42 3.14 3.06 2.664l20.8-6.048-.576-23.716-20.8 6.06z" fill="#985C3A" fill-rule="nonzero" opacity=".43" style="mix-blend-mode:multiply"/><path d="M137.88 83.42l-23.08 6.708c-1.64.48-2.932 2.444-2.884 4.4l.38 14.844c.048 1.952 1.42 3.144 3.06 2.664l23.072-6.708c1.64-.476 2.932-2.444 2.884-4.4l-.38-14.848c-.04-1.944-1.412-3.136-3.052-2.66z" fill="#A87442" fill-rule="nonzero"/><path d="M136.58 85.96l-20.364 5.924a3.808 3.808 0 00-2.552 3.6l.304 11.936c.04 1.564 1.244 2.496 2.696 2.072l20.364-5.92a3.816 3.816 0 002.552-3.6l-.304-11.936c-.04-1.568-1.244-2.496-2.696-2.076z" stroke="#F8B450" stroke-width=".93" stroke-dasharray="7.59"/><path d="M123.032 98.772c.056 2.208-1.408 4.44-3.268 4.984-1.86.544-3.42-.8-3.476-3.024-.056-2.224 1.408-4.444 3.272-4.984 1.864-.54 3.416.812 3.472 3.024z" fill="#C6A188" fill-rule="nonzero"/><path d="M48.348 77.836a7.354 7.354 0 00-2.116 5.236l1.92 75.504c.072 2.932 2.136 4.724 4.604 4l78.4-22.8c2.468-.72 4.4-3.676 4.332-6.608l-.44-17.332c-49.336 42.428-84.62 13.004-86.7-38z" fill="#985C3A" fill-rule="nonzero" opacity=".24" style="mix-blend-mode:multiply"/><ellipse fill="#633220" fill-rule="nonzero" transform="rotate(-78.74 91.475 102.817)" cx="91.475" cy="102.817" rx="5.664" ry="4.02"/><path fill="#633220" fill-rule="nonzero" d="M91.524 101.796l-3.572 20.072 10.24-3.428z"/><path d="M43.384 75.028c-4.052 2.04 1.288 3.172 6.768 1.6 0 7.736 2.244 83.636 2.244 86-4.66 1.076-11.012 2.052-11.012-5.172 0-12.112-2.028-69.76-2.168-74.94-.14-5.18 1.368-6.348 4.168-7.488z" fill="#A87442" fill-rule="nonzero"/><path d="M43.384 75.028c-4.052 2.04 1.288 3.172 6.768 1.6 0 7.736 2.244 83.636 2.244 86-4.66 1.076-11.012 2.052-11.012-5.172 0-12.112-2.028-69.76-2.168-74.94-.14-5.18 1.368-6.348 4.168-7.488z" fill="#723B27" fill-rule="nonzero" opacity=".47" style="mix-blend-mode:multiply"/><path d="M110.312 106.848l-22.888-2.484a7.78 7.78 0 01.568-3.832l22.74 2.472-.42 3.844z" fill="#FFCD00" fill-rule="nonzero"/><path d="M97.34 104.232c-4.46-.48-7.284-1.632-7.828-3.532l-1.52-.168a7.78 7.78 0 00-.568 3.832l22.888 2.484.144-1.34c-3.656-.34-9.524-.892-13.116-1.276z" fill="#FABC00" fill-rule="nonzero"/><path d="M112 105.26c-.216 2.02-1.54 3.536-2.952 3.384-1.412-.152-2.376-1.916-2.156-3.94.22-2.024 1.54-3.536 2.952-3.384 1.412.152 2.36 1.916 2.156 3.94z" fill="#F59F00" fill-rule="nonzero"/><path d="M120.84 115.344c-.352 0-.704 0-1.064-.036-6.356-.464-11.228-4.944-10.86-10 .368-5.056 5.84-8.764 12.192-8.308 6.352.456 11.228 4.944 10.864 10-.348 4.76-5.24 8.344-11.132 8.344zm-.8-14.496c-3.832 0-7.084 2.068-7.28 4.756-.208 2.868 3.128 5.544 7.288 5.844 4.16.3 7.844-1.864 8.052-4.728.208-2.864-3.128-5.544-7.284-5.844a9.61 9.61 0 00-.764-.028h-.012z" fill="#FFCD00" fill-rule="nonzero"/><path d="M120.06 111.448c-4.16-.3-7.496-2.976-7.288-5.844.04-.524.194-1.032.448-1.492a8 8 0 01-1.92-3.792 7.848 7.848 0 00-2.4 5.004c-.368 5.04 4.504 9.52 10.86 10 .36.024.712.036 1.064.036 5.892 0 10.8-3.6 11.132-8.344a7.644 7.644 0 000-.8 13.176 13.176 0 01-4.076 1.456c-.816 2.368-4.136 4.044-7.82 3.776z" fill="#FABC00" fill-rule="nonzero"/><path d="M120.74 97.804a9.54 9.54 0 013.5.356c1.152.316 2.247.811 3.244 1.468a8.892 8.892 0 012.536 2.532c.657 1 1.04 2.154 1.112 3.348a10.464 10.464 0 00-1.656-2.956 11 11 0 00-2.468-2.208 15.876 15.876 0 00-2.984-1.552 19.748 19.748 0 00-3.284-.988z" fill="#FFFDF4" fill-rule="nonzero"/><circle stroke="#92A44B" stroke-width="1.03" cx="149.892" cy="43.088" r="1.192"/><path d="M145.572 30.728a.3.3 0 11-.596-.07.3.3 0 01.596.07h0z" stroke="#92A44B" stroke-width="1.03"/><circle stroke="#92A44B" stroke-width="1.03" cx="154.58" cy="65.644" r="1"/><circle stroke="#92A44B" stroke-width="1.03" cx="72.608" cy="37.876" r="1.192"/><circle stroke="#92A44B" stroke-width="1.03" cx="59.356" cy="36.384" r="1"/><circle stroke="#92A44B" stroke-width="1.03" cx="67.544" cy="25.216" r="1.192"/><path d="M44.912 49.2a.596.596 0 11-1.192 0 .596.596 0 011.192 0z" stroke="#92A44B" stroke-width="1.03"/><circle stroke="#92A44B" stroke-width="1.03" cx="7.016" cy="72.496" r="1"/><path d="M11.856 54.328a2 2 0 11-4 0 2 2 0 014 0zM2.472 85.6a1.116 1.116 0 11-2.232 0 1.116 1.116 0 012.232 0z" stroke="#92A44B" stroke-width="1.03"/><circle stroke="#92A44B" stroke-width="1.03" cx="11.928" cy="99.744" r="1"/><circle stroke="#92A44B" stroke-width="1.03" cx="7.684" cy="124.688" r="1.636"/><path d="M29.276 140.544a1.116 1.116 0 11-2.232 0 1.116 1.116 0 012.232 0zM29.276 16.656a1.116 1.116 0 11-2.232 0 1.116 1.116 0 012.232 0z" stroke="#92A44B" stroke-width="1.03"/><circle stroke="#92A44B" stroke-width="1.03" cx="125.692" cy=".872" r="1"/><circle stroke="#92A44B" stroke-width="1.03" cx="166.888" cy="27.068" r="1.72"/><path d="M173.768 86.624a.432.432 0 11-.864 0 .432.432 0 01.864 0h0zM153.344 113.82a1.396 1.396 0 11-2.792 0 1.396 1.396 0 012.792 0z" stroke="#92A44B" stroke-width="1.03"/></g></svg>