<svg viewBox="0 0 579 253" fill="none" xmlns="http://www.w3.org/2000/svg"><g clip-path="url(#clip0)"><mask id="a" maskUnits="userSpaceOnUse" x="-408" y="0" width="1000" height="253"><rect x="-408" width="1000" height="253" rx="20" fill="#fff"/></mask><g mask="url(#a)"><path d="M-26 275.5s161.093 14.493 208.809-42.252c47.716-56.746 101.086-42.044 116.111-63.146C313.946 149 308.694 142 308.694 142" stroke="#fff" stroke-dasharray="6"/><circle cx="117.5" cy="-46.5" r="117.5" fill="url(#paint0_linear)"/><path d="M409.654 37.59L392.44 121.2c-.615 3.688-5.533 5.533-8.607 3.074l-26.436-19.673-13.525 13.525c-2.459 2.459-6.148 1.229-7.377-1.844l-9.837-30.74-25.82-7.992c-3.689-1.229-3.689-5.532 0-6.762l102.668-39.96c3.074-.615 7.377 2.458 6.148 6.762z" fill="#F9FAFC"/><path d="M389.981 49.886l-47.953 42.42c-.615.614-.615 1.229-.615 1.844l-1.844 16.599c0 .614-.615.614-1.23 0l-7.377-24.591c-.615-1.23 0-2.46 1.229-3.074l55.945-35.043c1.845-.615 3.074 1.23 1.845 1.845z" fill="#C7D8E9"/><path fill-rule="evenodd" clip-rule="evenodd" d="M248 272.054s48.58-91.69 161.202-80.103c0 0 98.616-92.537 192.86-32.028 94.244 60.508-6.66 181.251-6.66 181.251L248 272.054z" fill="url(#paint1_linear)"/></g></g><defs><linearGradient id="paint0_linear" x1="-31.84" y1="84.228" x2="229.617" y2="147.908" gradientUnits="userSpaceOnUse"><stop stop-color="#5ABAFF"/><stop offset="1" stop-color="#369EF4"/></linearGradient><linearGradient id="paint1_linear" x1="48.212" y1="238.587" x2="214.954" y2="563.316" gradientUnits="userSpaceOnUse"><stop stop-color="#5ABAFF"/><stop offset="1" stop-color="#369EF4"/></linearGradient><clipPath id="clip0"><path fill="#fff" d="M0 0h579v253H0z"/></clipPath></defs></svg>