<svg width="23" height="23" viewBox="0 0 23 23" fill="none" xmlns="http://www.w3.org/2000/svg">
<rect width="23" height="23" fill="white"/>
<circle cx="11.4182" cy="11.4182" r="11.4182" fill="#55ACEE"/>
<path d="M18.4123 8.20613C17.923 8.4231 17.3967 8.56985 16.8447 8.63539C17.4083 8.29772 17.8408 7.76343 18.0449 7.12574C17.5176 7.43858 16.9332 7.66553 16.3118 7.78785C15.8139 7.25763 15.1046 6.92627 14.3191 6.92627C12.8121 6.92627 11.5899 8.14853 11.5899 9.65553C11.5899 9.86946 11.6141 10.0777 11.6609 10.2776C9.39267 10.1638 7.38149 9.07728 6.03528 7.42555C5.80039 7.82856 5.66565 8.29772 5.66565 8.79782C5.66565 9.74448 6.14784 10.5802 6.87976 11.0695C6.43259 11.0555 6.01146 10.9327 5.64367 10.7278C5.64346 10.7394 5.64346 10.751 5.64346 10.7624C5.64346 12.0848 6.58463 13.1878 7.83294 13.4383C7.60416 13.501 7.36256 13.5342 7.11404 13.5342C6.93777 13.5342 6.767 13.5173 6.60051 13.4855C6.94775 14.5696 7.95547 15.3587 9.15005 15.3809C8.2158 16.113 7.03914 16.5492 5.76009 16.5492C5.54027 16.5492 5.32248 16.5364 5.10938 16.511C6.31657 17.2856 7.75153 17.7373 9.29273 17.7373C14.3128 17.7373 17.0582 13.5786 17.0582 9.97163C17.0582 9.85338 17.0555 9.73553 17.0502 9.61869C17.5839 9.234 18.0466 8.75345 18.4123 8.20613V8.20613Z" fill="white"/>
</svg>
